<svg width="24" height="24" viewBox="0 0 24 24" fill="none" xmlns="http://www.w3.org/2000/svg">
<path d="M19.545 15.0252V12.6042H21.967V10.7892H19.545V8.36824H17.73V10.7892H15.309V12.6042H17.73V15.0252H19.545ZM8.052 8.30224C9.185 8.30224 9.948 8.78624 10.382 9.19824L12.104 7.52824C11.056 6.54824 9.689 5.94824 8.052 5.94824C4.714 5.94724 2 8.65924 2 12.0002C2 15.3412 4.714 18.0532 8.052 18.0532C11.545 18.0532 13.864 15.5962 13.864 12.1402C13.864 11.6372 13.8 11.2802 13.711 10.9002H8.049V13.1562H11.381C11.223 14.1072 10.37 15.7122 8.052 15.7122C6.049 15.7122 4.415 14.0472 4.415 12.0082C4.415 9.96624 6.049 8.30224 8.052 8.30224Z" fill="white"/>
</svg>
