<svg width="14" height="14" viewBox="0 0 14 14" fill="none" xmlns="http://www.w3.org/2000/svg">
<g clip-path="url(#clip0_2046_97123)">
<path d="M7.74999 5.25H6.25C5.69772 5.25 5.25 5.69771 5.25 6.25V7.74999C5.25 8.30227 5.69771 8.74999 6.25 8.74999H7.74999C8.30227 8.74999 8.74999 8.30228 8.74999 7.74999V6.25C8.74999 5.69772 8.30228 5.25 7.74999 5.25Z" fill="#333C48"/>
<path d="M2.49999 0H1C0.447715 0 0 0.447715 0 0.999999V2.49999C0 3.05227 0.447715 3.49999 0.999999 3.49999H2.49999C3.05227 3.49999 3.49999 3.05227 3.49999 2.49999V1C3.49999 0.447715 3.05227 0 2.49999 0Z" fill="#333C48"/>
<path d="M7.74999 10.5H6.25C5.69772 10.5 5.25 10.9477 5.25 11.5V13C5.25 13.5523 5.69771 14 6.25 14H7.74999C8.30227 14 8.74999 13.5523 8.74999 13V11.5C8.74999 10.9477 8.30228 10.5 7.74999 10.5Z" fill="#333C48"/>
<path d="M2.49999 5.25H1C0.447715 5.25 0 5.69771 0 6.25V7.74999C0 8.30227 0.447715 8.74999 0.999999 8.74999H2.49999C3.05227 8.74999 3.49999 8.30228 3.49999 7.74999V6.25C3.49999 5.69772 3.05227 5.25 2.49999 5.25Z" fill="#333C48"/>
<path d="M2.49999 10.5H1C0.447715 10.5 0 10.9477 0 11.5V13C0 13.5523 0.447715 14 0.999999 14H2.49999C3.05227 14 3.49999 13.5523 3.49999 13V11.5C3.49999 10.9477 3.05227 10.5 2.49999 10.5Z" fill="#333C48"/>
<path d="M13 0H11.5C10.9477 0 10.5 0.447715 10.5 0.999999V2.49999C10.5 3.05227 10.9477 3.49999 11.5 3.49999H13C13.5523 3.49999 14 3.05227 14 2.49999V1C14 0.447715 13.5523 0 13 0Z" fill="#333C48"/>
<path d="M7.74999 0H6.25C5.69772 0 5.25 0.447715 5.25 0.999999V2.49999C5.25 3.05227 5.69771 3.49999 6.25 3.49999H7.74999C8.30227 3.49999 8.74999 3.05227 8.74999 2.49999V1C8.74999 0.447715 8.30228 0 7.74999 0Z" fill="#333C48"/>
<path d="M13 5.25H11.5C10.9477 5.25 10.5 5.69771 10.5 6.25V7.74999C10.5 8.30227 10.9477 8.74999 11.5 8.74999H13C13.5523 8.74999 14 8.30228 14 7.74999V6.25C14 5.69772 13.5523 5.25 13 5.25Z" fill="#333C48"/>
<path d="M13 10.5H11.5C10.9477 10.5 10.5 10.9477 10.5 11.5V13C10.5 13.5523 10.9477 14 11.5 14H13C13.5523 14 14 13.5523 14 13V11.5C14 10.9477 13.5523 10.5 13 10.5Z" fill="#333C48"/>
</g>
<defs>
<clipPath id="clip0_2046_97123">
<rect width="14" height="14" fill="white"/>
</clipPath>
</defs>
</svg>
