<svg width="290" height="275" viewBox="0 0 290 275" fill="none" xmlns="http://www.w3.org/2000/svg">
<g clip-path="url(#clip0_913_92453)">
<path d="M34.5936 167.112L24.2089 167.324L18.9464 167.395C17.1922 167.395 15.438 167.395 13.6838 167.465H13.4032V167.183L13.333 158.292V157.939H13.6838L24.1387 158.01C27.6471 158.01 31.1554 158.081 34.5936 158.151H34.8041V158.363C34.8041 159.845 34.7339 161.397 34.7339 162.879L34.5936 167.112ZM34.5936 167.112L34.5234 162.597C34.5234 161.115 34.4533 159.633 34.4533 158.151L34.6638 158.363C31.1554 158.433 27.6471 158.504 24.2089 158.504L13.754 158.575L14.1048 158.222L14.0347 167.112L13.754 166.83C15.5082 166.83 17.1922 166.83 18.9464 166.901L24.1387 166.971L34.5936 167.112Z" fill="#EBEBEB"/>
<path d="M22.8748 178.331L12.4901 178.543L7.22761 178.613C5.47344 178.613 3.71927 178.613 1.96509 178.684H1.68442V178.402L1.61426 169.511V169.158H1.96509L12.42 169.229C15.9283 169.229 19.4367 169.299 22.8748 169.37H23.0853V169.582C23.0853 171.063 23.0152 172.616 23.0152 174.098L22.8748 178.331ZM22.8748 178.331L22.8047 173.815C22.8047 172.333 22.7345 170.852 22.7345 169.37L22.945 169.582C19.4367 169.652 15.9283 169.723 12.4901 169.723L2.03526 169.793L2.38609 169.44L2.31593 178.331L2.03526 178.049C3.78943 178.049 5.47344 178.049 7.22761 178.12L12.42 178.19L22.8748 178.331Z" fill="#EBEBEB"/>
<path d="M222.64 100.925L212.256 101.137L206.993 101.207C205.239 101.207 203.485 101.207 201.731 101.278H201.45V100.996L201.38 92.1048V91.752H201.731L212.186 91.8225C215.694 91.8225 219.202 91.8931 222.64 91.9636H222.851V92.1753C222.851 93.6571 222.781 95.2095 222.781 96.6913L222.64 100.925ZM222.64 100.925L222.57 96.409C222.57 94.9272 222.5 93.4454 222.5 91.9636L222.711 92.1753C219.202 92.2459 215.694 92.3164 212.256 92.3164L201.801 92.387L202.152 92.0342L202.082 100.925L201.801 100.643C203.555 100.643 205.239 100.643 206.993 100.713L212.186 100.784L222.64 100.925Z" fill="#EBEBEB"/>
<path d="M210.922 112.214L200.537 112.426L195.274 112.496C193.52 112.496 191.766 112.496 190.012 112.567H189.731V112.285L189.661 103.394V103.041H190.012L200.467 103.112C203.975 103.112 207.484 103.182 210.922 103.253H211.132V103.464C211.132 104.946 211.062 106.499 211.062 107.98L210.922 112.214ZM210.922 112.214L210.852 107.698C210.852 106.216 210.781 104.734 210.781 103.253L210.992 103.464C207.484 103.535 203.975 103.605 200.537 103.605L190.082 103.676L190.433 103.323L190.363 112.214L190.082 111.932C191.836 111.932 193.52 111.932 195.274 112.002L200.467 112.073L210.922 112.214Z" fill="#EBEBEB"/>
<path d="M199.275 100.925L188.891 101.137L183.628 101.207C181.874 101.207 180.12 101.207 178.365 101.278H178.085V100.996L178.015 92.1048V91.752H178.365L188.82 91.8225C192.329 91.8225 195.837 91.8931 199.275 91.9636H199.486V92.1753C199.486 93.6571 199.416 95.2095 199.416 96.6913L199.275 100.925ZM199.275 100.925L199.205 96.409C199.205 94.9272 199.135 93.4454 199.135 91.9636L199.345 92.1753C195.837 92.2459 192.329 92.3164 188.891 92.3164L178.436 92.387L178.786 92.0342L178.716 100.925L178.436 100.643C180.19 100.643 181.874 100.643 183.628 100.713L188.82 100.784L199.275 100.925Z" fill="#EBEBEB"/>
<path d="M288.105 178.331L277.721 178.543L272.458 178.613C270.704 178.613 268.95 178.613 267.196 178.684H266.915V178.402L266.845 169.511V169.158H267.196L277.65 169.229C281.159 169.229 284.667 169.299 288.105 169.37H288.316V169.582C288.316 171.063 288.246 172.616 288.246 174.098L288.105 178.331ZM288.105 178.331L288.035 173.815C288.035 172.333 287.965 170.852 287.965 169.37L288.175 169.582C284.667 169.652 281.159 169.723 277.721 169.723L267.266 169.793L267.617 169.44L267.546 178.331L267.266 178.049C269.02 178.049 270.704 178.049 272.458 178.12L277.65 178.19L288.105 178.331Z" fill="#EBEBEB"/>
<path d="M109.882 11.9464L99.497 12.1581L94.2345 12.2287C92.4803 12.2287 90.7261 12.2287 88.9719 12.2993H88.6913V12.017L88.6211 3.12625V2.77344H88.9719L99.4268 2.844C102.935 2.844 106.444 2.91456 109.882 2.98512H110.092V3.19681C110.092 4.6786 110.022 6.23095 110.022 7.71275L109.882 11.9464ZM109.882 11.9464L109.812 7.4305C109.812 5.94871 109.741 4.46691 109.741 2.98512L109.952 3.19681C106.443 3.26737 102.935 3.33793 99.497 3.33793L89.0421 3.40849L89.3929 3.05568L89.1824 11.9464L88.9018 11.6642C90.6559 11.6642 92.3399 11.6642 94.0941 11.7348L99.2865 11.8053L109.882 11.9464Z" fill="#EBEBEB"/>
<path d="M266.564 71.0088L270.704 64.3055L268.669 63.0353C268.038 62.6825 267.757 61.9769 267.827 61.2713C267.827 60.8479 267.897 60.4951 267.897 60.0718C267.897 59.3661 268.248 58.7311 268.88 58.3783L270.985 57.2493L267.266 50.3343L265.161 51.4632C264.529 51.8161 263.757 51.7455 263.196 51.3221C262.845 51.1104 262.565 50.8988 262.214 50.6871C261.582 50.3343 261.231 49.6992 261.231 48.9936L261.302 46.5945L253.443 46.3828L253.373 48.7819C253.373 49.4875 252.952 50.1226 252.25 50.4048C252.11 50.4754 251.899 50.5459 251.759 50.6871C251.619 50.7576 251.408 50.8988 251.268 50.9693C250.636 51.3221 249.935 51.3221 249.303 50.9693L247.268 49.6992L243.128 56.4026L245.163 57.6727C245.795 58.0255 246.075 58.7311 246.005 59.4367C246.005 59.8601 245.935 60.2129 245.935 60.6362C245.935 61.3419 245.584 61.9769 244.953 62.3297L242.848 63.4587L246.566 70.3738L248.672 69.2448C249.303 68.892 250.005 68.9625 250.636 69.3859C250.987 69.5976 251.268 69.8093 251.619 70.0209C252.25 70.3738 252.601 71.0088 252.601 71.7144L252.531 74.1135L260.389 74.3252L260.46 71.9261C260.46 71.2205 260.881 70.5854 261.582 70.3032C261.723 70.2326 261.933 70.1621 262.073 70.0209C262.214 69.9504 262.424 69.8093 262.565 69.7387C263.196 69.3859 263.898 69.3153 264.529 69.7387L266.564 71.0088ZM259.898 65.9989C256.741 67.6924 252.882 66.4929 251.198 63.3882C249.514 60.2129 250.706 56.332 253.794 54.6385C256.951 52.945 260.81 54.1446 262.494 57.2493C264.178 60.4246 263.056 64.3055 259.898 65.9989Z" fill="#EBEBEB"/>
<path d="M40.8375 146.86L44.9774 140.157L42.9425 138.887C42.311 138.534 42.0304 137.828 42.1005 137.123C42.1005 136.699 42.1707 136.347 42.1707 135.923C42.1707 135.218 42.5215 134.583 43.153 134.23L45.258 133.101L41.5392 126.186L39.4342 127.315C38.8027 127.668 38.0308 127.597 37.4695 127.174C37.1187 126.962 36.838 126.75 36.4872 126.539C35.8557 126.186 35.5048 125.551 35.5048 124.845L35.575 122.446L27.7163 122.234L27.6461 124.633C27.6461 125.339 27.2251 125.974 26.5235 126.256C26.3831 126.327 26.1726 126.398 26.0323 126.539C25.892 126.609 25.6815 126.75 25.5411 126.821C24.9096 127.174 24.208 127.174 23.5765 126.821L21.5416 125.551L17.4018 132.254L19.4366 133.524C20.0681 133.877 20.3488 134.583 20.2786 135.288C20.2786 135.712 20.2084 136.064 20.2084 136.488C20.2084 137.193 19.8576 137.828 19.2261 138.181L17.1211 139.31L20.8399 146.225L22.945 145.096C23.5765 144.744 24.2781 144.814 24.9096 145.237C25.2605 145.449 25.5411 145.661 25.892 145.873C26.5235 146.225 26.8743 146.86 26.8743 147.566L26.8041 149.965L34.6628 150.177L34.733 147.778C34.733 147.072 35.154 146.437 35.8557 146.155C35.996 146.084 36.2065 146.014 36.3468 145.873C36.4872 145.802 36.6977 145.661 36.838 145.59C37.4695 145.237 38.1712 145.167 38.8027 145.59L40.8375 146.86ZM34.1717 141.921C31.0142 143.615 27.155 142.415 25.471 139.31C23.787 136.135 24.9798 132.254 28.0671 130.561C31.2247 128.867 35.0838 130.067 36.7678 133.171C38.4519 136.276 37.3292 140.228 34.1717 141.921Z" fill="#EBEBEB"/>
<path d="M121.039 18.5806L118.302 13.7824L116.829 14.6291C116.408 14.9114 115.846 14.8408 115.425 14.5586C115.215 14.4175 114.934 14.2763 114.724 14.1352C114.303 13.9235 114.022 13.4296 114.022 12.9357V11.2422H108.549V12.9357C108.549 13.4296 108.268 13.853 107.847 14.1352C107.637 14.2763 107.356 14.4175 107.146 14.5586C106.725 14.8408 106.233 14.8408 105.742 14.6291L104.269 13.7824L101.532 18.5806L103.006 19.4273C103.427 19.7096 103.637 20.1329 103.637 20.6269C103.637 20.768 103.637 20.9091 103.637 21.0502C103.637 21.1914 103.637 21.3325 103.637 21.4736C103.637 21.9675 103.427 22.4615 103.006 22.6732L101.532 23.5199L104.269 28.3181L105.742 27.4713C106.163 27.1891 106.725 27.2597 107.146 27.5419C107.356 27.683 107.637 27.8242 107.847 27.9653C108.268 28.177 108.549 28.6709 108.549 29.1648V30.8583H114.022V29.1648C114.022 28.6709 114.303 28.2475 114.724 27.9653C114.934 27.8242 115.215 27.683 115.425 27.5419C115.846 27.2597 116.337 27.2597 116.829 27.4713L118.302 28.3181L121.039 23.5199L119.565 22.6732C119.144 22.3909 118.934 21.9675 118.934 21.4736C118.934 21.3325 118.934 21.1914 118.934 21.0502C118.934 20.9091 118.934 20.768 118.934 20.6269C118.934 20.1329 119.144 19.639 119.565 19.4273L121.039 18.5806ZM115.776 21.0502C115.776 23.5199 113.741 25.5662 111.285 25.5662C108.83 25.5662 106.795 23.5199 106.795 21.0502C106.795 18.5806 108.83 16.5343 111.285 16.5343C113.741 16.5343 115.776 18.5806 115.776 21.0502Z" fill="#EBEBEB"/>
<path d="M31.9256 157.656C22.7337 166.688 21.19 180.659 23.1547 192.866C23.2249 193.149 23.6459 193.078 23.6459 192.796C23.6459 190.044 23.5757 187.221 23.5757 184.47C23.6459 184.328 23.6459 184.258 23.716 184.117C26.1017 182.353 28.2769 180.377 29.6802 177.696C31.2239 174.661 31.7852 171.275 32.9781 168.099C33.1184 167.817 32.7676 167.888 32.5571 168.029C27.0139 172.192 25.1895 176.637 23.5757 182.564C23.6459 179.46 23.8564 176.355 24.558 173.321C25.7509 167.676 28.1366 162.102 32.2062 157.868C32.2764 157.797 32.0659 157.515 31.9256 157.656Z" fill="#263238"/>
<path d="M33.6095 158.713C35.1531 158.784 36.2056 161.324 37.3985 162.03C38.03 162.453 38.6615 162.383 39.1527 161.748C40.3455 160.054 38.7317 157.937 37.1178 156.738C38.2405 157.232 39.1527 158.008 40.4157 158.22C41.1173 158.361 41.7488 158.078 41.8892 157.302C42.4505 154.974 39.5035 153.915 37.5388 153.915C38.5212 153.21 41.2577 151.375 39.7842 150.528C38.3107 149.611 35.0128 152.222 33.9603 153.139C32.4166 154.409 30.5221 156.314 30.452 158.29C30.3818 160.689 32.4166 159.207 33.6095 158.713Z" fill="#FFC727"/>
<path opacity="0.1" d="M33.6095 158.713C35.1531 158.784 36.2056 161.324 37.3985 162.03C38.03 162.453 38.6615 162.383 39.1527 161.748C40.3455 160.054 38.7317 157.937 37.1178 156.738C38.2405 157.232 39.1527 158.008 40.4157 158.22C41.1173 158.361 41.7488 158.078 41.8892 157.302C42.4505 154.974 39.5035 153.915 37.5388 153.915C38.5212 153.21 41.2577 151.375 39.7842 150.528C38.3107 149.611 35.0128 152.222 33.9603 153.139C32.4166 154.409 30.5221 156.314 30.452 158.29C30.3818 160.689 32.4166 159.207 33.6095 158.713Z" fill="black"/>
<path d="M33.1882 159.136C35.223 158.219 39.0822 159.56 39.4331 158.783C40.1347 157.231 36.9772 156.173 35.3634 155.961C36.9071 155.538 39.8541 154.903 39.7839 153.35C39.6436 151.516 35.2932 153.068 33.0479 154.832C30.2412 157.019 30.2412 159.066 30.7324 159.489C31.2235 160.054 32.8374 159.277 33.1882 159.136Z" fill="#FFC727"/>
<path d="M11.0164 156.806C20.489 165.485 22.594 179.386 21.1205 191.664C21.0503 191.946 20.6293 191.875 20.6293 191.593C20.489 188.841 20.489 186.019 20.4188 183.267C20.3486 183.126 20.3486 183.055 20.2785 182.914C17.8226 181.291 15.5773 179.386 14.1038 176.705C12.4899 173.741 11.7181 170.354 10.4551 167.249C10.3147 166.967 10.6656 167.038 10.8761 167.179C16.6298 171.13 18.5243 175.505 20.3486 181.362C20.1381 178.257 19.7873 175.223 19.0154 172.118C17.6121 166.544 15.0159 161.04 10.8059 157.018C10.5954 156.877 10.8761 156.665 11.0164 156.806Z" fill="#263238"/>
<path d="M9.33235 157.937C7.78868 158.078 6.87651 160.618 5.68367 161.394C5.05217 161.818 4.42067 161.818 3.9295 161.182C2.66649 159.489 4.21017 157.372 5.75384 156.102C4.63117 156.596 3.719 157.443 2.52616 157.725C1.82449 157.866 1.19299 157.654 1.05265 156.878C0.42115 154.55 3.298 153.421 5.26267 153.28C4.28033 152.645 1.40349 150.88 2.87699 149.963C4.3505 148.975 7.71851 151.516 8.77102 152.292C10.3849 153.491 12.2794 155.326 12.4197 157.302C12.6302 159.701 10.5954 158.36 9.33235 157.937Z" fill="#FFC727"/>
<path opacity="0.1" d="M9.33235 157.937C7.78868 158.078 6.87651 160.618 5.68367 161.394C5.05217 161.818 4.42067 161.818 3.9295 161.182C2.66649 159.489 4.21017 157.372 5.75384 156.102C4.63117 156.596 3.719 157.443 2.52616 157.725C1.82449 157.866 1.19299 157.654 1.05265 156.878C0.42115 154.55 3.298 153.421 5.26267 153.28C4.28033 152.645 1.40349 150.88 2.87699 149.963C4.3505 148.975 7.71851 151.516 8.77102 152.292C10.3849 153.491 12.2794 155.326 12.4197 157.302C12.6302 159.701 10.5954 158.36 9.33235 157.937Z" fill="black"/>
<path d="M9.82317 158.291C7.78833 157.444 3.92914 158.926 3.57831 158.15C2.87664 156.597 5.89382 155.398 7.57783 155.186C6.03415 154.833 3.01697 154.269 3.08714 152.787C3.15731 150.952 7.57783 152.364 9.89334 153.986C12.7702 156.033 12.8403 158.15 12.4193 158.573C11.7878 159.137 10.174 158.432 9.82317 158.291Z" fill="#FFC727"/>
<path d="M20.7695 179.671C21.4712 184.257 22.3132 188.985 23.7165 193.36C23.8568 193.783 24.4182 193.642 24.348 193.219C23.7165 188.985 22.5938 184.822 21.9623 180.588C21.3308 176.284 20.98 171.98 21.2607 167.675C21.6817 160.549 23.5762 152.999 28.2072 147.424C28.2774 147.283 28.0669 147.071 27.9967 147.213C18.7347 158.079 20.2082 171.345 20.2082 172.544C18.875 168.028 17.5418 162.877 12.6301 158.361C12.4196 158.15 12.2793 158.291 12.2793 158.573C13.1915 166.899 15.4368 171.274 20.2783 175.719C20.3485 177.06 20.559 178.401 20.7695 179.671Z" fill="#263238"/>
<path d="M28.2768 148.693C29.9608 147.917 32.2062 150.104 33.8902 150.245C34.7322 150.316 35.4338 149.963 35.5742 149.046C35.9952 146.647 33.1885 145.306 30.9432 144.883C32.3465 144.812 33.7498 145.165 35.083 144.812C35.925 144.6 36.346 144.036 36.1355 143.119C35.504 140.437 31.9957 140.79 29.8907 141.778C30.5222 140.578 32.4868 137.262 30.5222 137.05C28.4873 136.839 26.4525 141.214 25.821 142.695C24.8386 144.812 23.8563 147.705 24.7685 149.822C25.8911 152.362 27.2243 149.822 28.2768 148.693Z" fill="#FFC727"/>
<path opacity="0.1" d="M28.2768 148.693C29.9608 147.917 32.2062 150.104 33.8902 150.245C34.7322 150.316 35.4338 149.963 35.5742 149.046C35.9952 146.647 33.1885 145.306 30.9432 144.883C32.3465 144.812 33.7498 145.165 35.083 144.812C35.925 144.6 36.346 144.036 36.1355 143.119C35.504 140.437 31.9957 140.79 29.8907 141.778C30.5222 140.578 32.4868 137.262 30.5222 137.05C28.4873 136.839 26.4525 141.214 25.821 142.695C24.8386 144.812 23.8563 147.705 24.7685 149.822C25.8911 152.362 27.2243 149.822 28.2768 148.693Z" fill="black"/>
<path d="M27.996 149.327C29.6099 147.351 34.3111 146.787 34.2409 145.799C34.1707 143.823 30.3817 144.317 28.5574 144.952C29.9607 143.753 32.6972 141.565 31.8552 140.084C30.8027 138.249 27.0137 142.13 25.6104 145.023C23.786 148.692 24.8385 150.88 25.5402 151.091C26.4524 151.303 27.7154 149.68 27.996 149.327Z" fill="#FFC727"/>
<path d="M14.6644 182.209L10.5947 213.539H35.4338C34.9427 210.787 30.3116 182.139 30.3116 182.139L14.6644 182.209Z" fill="#FFC727"/>
<path d="M0 213.613L36.2763 213.471L72.4825 213.401L144.965 213.26L217.447 213.401L253.724 213.471L290 213.613L253.724 213.824L217.447 213.895L144.965 213.965L72.4825 213.895L36.2763 213.824L0 213.613Z" fill="#263238"/>
<path d="M144.965 275C202.744 275 249.584 268.334 249.584 260.111C249.584 251.888 202.744 245.223 144.965 245.223C87.1852 245.223 40.3457 251.888 40.3457 260.111C40.3457 268.334 87.1852 275 144.965 275Z" fill="#EBEBEB"/>
<path d="M80.1319 103.961L75.7815 86.7436L41.3997 95.5638L36.8389 77.5706L64.3443 14.5591L77.9567 11.1016L91.2182 63.4583L102.234 60.6358L106.795 78.7701L95.7791 81.5926L100.129 98.8096L80.1319 103.961ZM56.5558 72.349L73.6063 67.9742L67.993 45.6767L56.5558 72.349Z" fill="#263238"/>
<path d="M178.646 46.3817C178.646 52.0972 177.804 57.3187 176.05 62.1875C174.296 66.9857 171.981 71.1488 168.963 74.6769C165.946 78.2049 162.368 80.8863 158.298 82.862C154.228 84.8377 149.738 85.755 144.966 85.755C140.125 85.755 135.704 84.7672 131.564 82.862C127.425 80.8863 123.846 78.2049 120.829 74.6769C117.812 71.1488 115.496 66.9857 113.812 62.1875C112.128 57.3893 111.286 52.0972 111.286 46.3817C111.286 40.6662 112.128 35.4446 113.812 30.5759C115.496 25.7777 117.812 21.6146 120.829 18.0865C123.846 14.5584 127.425 11.8065 131.564 9.83077C135.704 7.85505 140.195 6.86719 144.966 6.86719C149.808 6.86719 154.228 7.85505 158.298 9.83077C162.368 11.8065 165.946 14.5584 168.963 18.0865C171.981 21.6146 174.366 25.7777 176.05 30.5759C177.804 35.4446 178.646 40.6662 178.646 46.3817ZM157.877 46.3817C157.877 40.3134 156.684 35.4446 154.228 31.6343C151.843 27.8945 148.755 25.9894 144.966 25.9894C141.037 25.9894 137.809 27.8945 135.494 31.6343C133.108 35.3741 131.915 40.3134 131.915 46.3817C131.915 52.45 133.108 57.3187 135.494 61.0585C137.879 64.7983 141.037 66.6329 144.966 66.6329C148.755 66.6329 151.843 64.7983 154.228 61.0585C156.684 57.3187 157.877 52.45 157.877 46.3817Z" fill="#263238"/>
<path d="M215.763 100.644L218.57 83.0743L183.557 77.3588L186.504 59.0128L236.673 12.2305L250.566 14.4884L241.936 67.9036L253.162 69.7382L250.215 88.2253L238.989 86.3907L236.182 103.961L215.763 100.644ZM206.642 62.1881L223.973 65.0105L227.621 42.3603L206.642 62.1881Z" fill="#263238"/>
<path d="M159.419 164.781H134.51V166.828H159.419V164.781Z" fill="#37474F"/>
<path d="M159.419 167.393H134.51V169.439H159.419V167.393Z" fill="#37474F"/>
<path d="M159.419 170.072H134.51V172.119H159.419V170.072Z" fill="#37474F"/>
<path d="M159.419 172.756H134.51V174.802H159.419V172.756Z" fill="#37474F"/>
<path d="M159.419 175.436H134.51V177.482H159.419V175.436Z" fill="#37474F"/>
<path d="M170.225 228.781H122.862V230.828H170.225V228.781Z" fill="#37474F"/>
<path d="M170.225 231.463H122.862V233.509H170.225V231.463Z" fill="#37474F"/>
<path d="M170.225 234.145H122.862V236.191H170.225V234.145Z" fill="#37474F"/>
<path d="M170.225 236.826H122.862V238.872H170.225V236.826Z" fill="#37474F"/>
<path d="M170.225 239.508H122.862V241.554H170.225V239.508Z" fill="#37474F"/>
<path d="M102.093 147.776C102.093 147.493 91.708 143.965 91.708 143.965L92.3395 108.05L106.092 105.086L102.093 147.776Z" fill="#FFC727"/>
<path opacity="0.2" d="M102.093 147.776C102.093 147.493 91.708 143.965 91.708 143.965L92.3395 108.05L106.092 105.086L102.093 147.776Z" fill="black"/>
<path d="M197.24 161.888C197.31 161.606 208.256 161.959 208.256 161.959L219.974 128.019L208.046 120.469L197.24 161.888Z" fill="#FFC727"/>
<path opacity="0.2" d="M197.24 161.888C197.31 161.606 208.256 161.959 208.256 161.959L219.974 128.019L208.046 120.469L197.24 161.888Z" fill="black"/>
<path d="M100.059 160.972C100.059 160.972 103.918 102.9 107.286 83.7773C107.286 83.7773 177.032 89.0695 214.711 103.535C214.711 103.535 195.275 171.344 194.293 174.731C194.293 174.802 145.176 165.064 100.059 160.972Z" fill="#FFC727"/>
<path opacity="0.1" d="M162.295 91.6113C161.172 98.5969 159.979 105.583 158.857 112.568L155.278 133.525L155.068 133.243L178.433 138.817L190.081 141.639L201.729 144.533L190.011 141.922L178.293 139.24L154.927 133.737L154.717 133.666L154.787 133.454L158.506 112.568C159.699 105.512 161.032 98.5264 162.295 91.6113Z" fill="black"/>
<path opacity="0.1" d="M159.77 95.5638C159.77 96.1989 159.279 96.8339 158.577 96.9045C158.226 96.9045 157.805 96.8339 157.524 96.5517C157.244 96.2694 157.033 95.9166 157.033 95.4933C157.033 95.0699 157.174 94.7171 157.524 94.4348C157.805 94.1526 158.226 94.082 158.577 94.082C159.279 94.2937 159.77 94.9288 159.77 95.5638ZM159.77 95.5638C159.77 95.211 159.629 94.9288 159.419 94.7171C159.208 94.5054 158.858 94.4348 158.577 94.4348C158.016 94.5054 157.595 94.9993 157.595 95.5638C157.595 96.0578 157.945 96.6223 158.577 96.6928C158.858 96.6928 159.208 96.6223 159.419 96.4106C159.629 96.1989 159.77 95.9166 159.77 95.5638Z" fill="black"/>
<path opacity="0.1" d="M158.506 104.242C158.506 104.877 158.015 105.512 157.313 105.582C156.962 105.582 156.541 105.512 156.261 105.229C155.98 104.947 155.77 104.594 155.77 104.171C155.77 103.748 155.91 103.395 156.261 103.113C156.541 102.83 156.962 102.76 157.313 102.76C158.015 102.901 158.576 103.536 158.506 104.242ZM158.506 104.242C158.506 103.889 158.366 103.607 158.155 103.395C157.945 103.183 157.594 103.113 157.313 103.113C156.752 103.183 156.331 103.677 156.331 104.242C156.331 104.735 156.682 105.3 157.313 105.371C157.594 105.371 157.945 105.3 158.155 105.088C158.366 104.877 158.506 104.524 158.506 104.242Z" fill="black"/>
<path opacity="0.1" d="M157.033 113.345C157.033 113.98 156.542 114.615 155.841 114.686C155.49 114.686 155.069 114.615 154.788 114.333C154.507 114.051 154.297 113.698 154.297 113.275C154.297 112.851 154.437 112.498 154.788 112.216C155.069 111.934 155.49 111.863 155.841 111.863C156.542 112.075 157.033 112.71 157.033 113.345ZM157.033 113.345C157.033 112.992 156.893 112.71 156.683 112.498C156.472 112.287 156.121 112.216 155.841 112.216C155.279 112.287 154.858 112.781 154.858 113.345C154.858 113.839 155.209 114.404 155.841 114.474C156.121 114.474 156.472 114.403 156.683 114.192C156.893 113.98 157.033 113.698 157.033 113.345Z" fill="black"/>
<path opacity="0.1" d="M155.489 122.445C155.489 123.08 154.998 123.715 154.297 123.785C153.946 123.785 153.525 123.715 153.244 123.433C152.963 123.15 152.753 122.797 152.753 122.374C152.753 121.951 152.893 121.598 153.244 121.316C153.525 121.033 153.946 120.963 154.297 120.963C154.998 121.175 155.56 121.81 155.489 122.445ZM155.489 122.445C155.489 122.092 155.349 121.81 155.139 121.598C154.928 121.386 154.577 121.316 154.297 121.316C153.735 121.386 153.314 121.88 153.314 122.445C153.314 122.939 153.665 123.503 154.297 123.574C154.577 123.574 154.928 123.503 155.139 123.291C155.349 123.08 155.489 122.798 155.489 122.445Z" fill="black"/>
<path opacity="0.1" d="M160.682 137.054C160.682 137.689 160.191 138.324 159.489 138.395C159.138 138.395 158.717 138.324 158.436 138.042C158.156 137.76 157.945 137.407 157.945 136.983C157.945 136.56 158.086 136.207 158.436 135.925C158.717 135.643 159.138 135.572 159.489 135.572C160.191 135.713 160.682 136.419 160.682 137.054ZM160.682 137.054C160.682 136.701 160.541 136.419 160.331 136.207C160.12 135.996 159.77 135.925 159.489 135.925C158.928 135.996 158.507 136.49 158.507 137.054C158.507 137.548 158.857 138.112 159.489 138.183C159.77 138.183 160.12 138.112 160.331 137.901C160.541 137.689 160.682 137.336 160.682 137.054Z" fill="black"/>
<path opacity="0.1" d="M169.241 139.099C169.241 139.734 168.75 140.369 168.049 140.44C167.698 140.44 167.277 140.369 166.996 140.087C166.715 139.805 166.505 139.452 166.505 139.028C166.505 138.605 166.645 138.252 166.996 137.97C167.277 137.688 167.698 137.617 168.049 137.617C168.75 137.829 169.241 138.464 169.241 139.099ZM169.241 139.099C169.241 138.746 169.101 138.464 168.891 138.252C168.68 138.041 168.329 137.97 168.049 137.97C167.487 138.041 167.066 138.534 167.066 139.099C167.066 139.593 167.417 140.157 168.049 140.228C168.329 140.228 168.68 140.157 168.891 139.946C169.101 139.805 169.241 139.452 169.241 139.099Z" fill="black"/>
<path opacity="0.1" d="M177.803 141.216C177.803 141.851 177.312 142.486 176.61 142.557C176.259 142.557 175.838 142.486 175.558 142.204C175.277 141.922 175.066 141.569 175.066 141.146C175.066 140.722 175.207 140.369 175.558 140.087C175.838 139.805 176.259 139.734 176.61 139.734C177.312 139.946 177.803 140.581 177.803 141.216ZM177.803 141.216C177.803 140.863 177.663 140.581 177.452 140.369C177.242 140.158 176.891 140.087 176.61 140.087C176.049 140.158 175.628 140.652 175.628 141.216C175.628 141.71 175.979 142.275 176.61 142.345C176.891 142.345 177.242 142.275 177.452 142.063C177.663 141.851 177.803 141.569 177.803 141.216Z" fill="black"/>
<path opacity="0.1" d="M186.362 143.333C186.362 143.968 185.871 144.603 185.17 144.674C184.819 144.674 184.398 144.603 184.117 144.321C183.836 144.039 183.626 143.686 183.626 143.263C183.626 142.839 183.766 142.487 184.117 142.204C184.398 141.922 184.819 141.852 185.17 141.852C185.871 142.063 186.362 142.698 186.362 143.333ZM186.362 143.333C186.362 142.981 186.222 142.698 186.012 142.487C185.801 142.275 185.45 142.204 185.17 142.204C184.608 142.275 184.187 142.769 184.187 143.333C184.187 143.827 184.538 144.392 185.17 144.462C185.45 144.462 185.801 144.392 186.012 144.18C186.222 143.968 186.362 143.686 186.362 143.333Z" fill="black"/>
<path opacity="0.1" d="M194.923 145.521C194.853 146.156 194.362 146.791 193.59 146.791C193.239 146.791 192.889 146.65 192.608 146.368C192.327 146.085 192.187 145.662 192.257 145.309C192.257 144.886 192.468 144.533 192.818 144.321C193.099 144.11 193.52 144.039 193.871 144.039C194.573 144.18 194.994 144.886 194.923 145.521ZM194.923 145.521C194.923 145.168 194.853 144.886 194.573 144.674C194.362 144.462 194.011 144.321 193.731 144.321C193.169 144.321 192.748 144.815 192.678 145.309C192.608 145.803 192.959 146.368 193.52 146.509C193.801 146.579 194.152 146.509 194.362 146.297C194.713 146.156 194.923 145.874 194.923 145.521Z" fill="black"/>
<path opacity="0.1" d="M154.016 131.619C154.016 132.254 153.525 132.889 152.823 132.959C152.472 132.959 152.051 132.889 151.77 132.606C151.49 132.324 151.279 131.971 151.279 131.548C151.279 131.125 151.42 130.772 151.77 130.49C152.051 130.207 152.472 130.137 152.823 130.137C153.525 130.278 154.016 130.983 154.016 131.619ZM154.016 131.619C154.016 131.266 153.875 130.983 153.665 130.772C153.454 130.56 153.104 130.49 152.823 130.49C152.262 130.56 151.841 131.054 151.841 131.619C151.841 132.112 152.191 132.677 152.823 132.747C153.104 132.747 153.454 132.677 153.665 132.465C153.875 132.254 154.016 131.901 154.016 131.619Z" fill="black"/>
<path opacity="0.2" d="M139.583 146.681C147.709 139.334 148.374 126.753 141.067 118.581C133.761 110.409 121.25 109.741 113.124 117.089C104.998 124.436 104.333 137.017 111.64 145.189C118.946 153.361 131.457 154.029 139.583 146.681Z" fill="black"/>
<path d="M141.166 137.527C144.266 129.291 140.139 120.086 131.949 116.969C123.759 113.851 114.606 118 111.505 126.237C108.405 134.473 112.531 143.678 120.722 146.796C128.912 149.913 138.065 145.764 141.166 137.527Z" fill="#263238"/>
<path d="M125.39 126.012L121.649 125.402L121.044 129.164L124.784 129.773L125.39 126.012Z" fill="#FFC727"/>
<path d="M122.297 121.711L118.557 121.102L117.951 124.863L121.691 125.472L122.297 121.711Z" fill="#FFC727"/>
<path d="M137.175 124.113L133.435 123.504L132.829 127.265L136.569 127.874L137.175 124.113Z" fill="#FFC727"/>
<path d="M119.917 136.529L116.177 135.92L115.571 139.681L119.311 140.29L119.917 136.529Z" fill="#FFC727"/>
<path d="M134.784 139.002L131.044 138.393L130.438 142.154L134.178 142.763L134.784 139.002Z" fill="#FFC727"/>
<path d="M124.193 133.42L120.453 132.811L119.847 136.572L123.587 137.181L124.193 133.42Z" fill="#FFC727"/>
<path d="M128.546 130.32L124.806 129.711L124.2 133.472L127.94 134.081L128.546 130.32Z" fill="#FFC727"/>
<path d="M132.818 127.281L129.078 126.672L128.472 130.433L132.212 131.042L132.818 127.281Z" fill="#FFC727"/>
<path d="M131.636 134.617L127.896 134.008L127.29 137.769L131.03 138.378L131.636 134.617Z" fill="#FFC727"/>
<path d="M194.773 152.861C201.699 144.361 200.461 131.823 192.009 124.858C183.556 117.893 171.088 119.137 164.162 127.638C157.236 136.138 158.474 148.676 166.926 155.641C175.379 162.606 187.847 161.362 194.773 152.861Z" fill="#FFC727"/>
<path opacity="0.2" d="M194.773 152.861C201.699 144.361 200.461 131.823 192.009 124.858C183.556 117.893 171.088 119.137 164.162 127.638C157.236 136.138 158.474 148.676 166.926 155.641C175.379 162.606 187.847 161.362 194.773 152.861Z" fill="black"/>
<path opacity="0.2" d="M198.784 144.892C198.713 145.316 198.573 145.669 198.503 146.021L159.911 137.766C159.981 137.06 160.122 136.354 160.262 135.649C162.788 124.923 173.453 118.361 184.119 120.901C194.714 123.442 201.31 134.167 198.784 144.892Z" fill="black"/>
<path d="M185.587 154.959C193.668 151.563 197.482 142.223 194.106 134.097C190.729 125.97 181.441 122.135 173.36 125.53C165.279 128.925 161.465 138.266 164.842 146.392C168.218 154.518 177.506 158.354 185.587 154.959Z" fill="#263238"/>
<path d="M183.499 131.539L179.812 130.658L175.481 148.988L179.167 149.869L183.499 131.539Z" fill="#FFC727"/>
<path d="M199.906 144.469L159.35 134.802C162.016 123.512 173.243 116.597 184.469 119.278C195.626 121.96 202.572 133.249 199.906 144.469Z" fill="#FFC727"/>
<path opacity="0.2" d="M199.906 144.469L159.35 134.802C162.016 123.512 173.243 116.597 184.469 119.278C195.626 121.96 202.572 133.249 199.906 144.469Z" fill="black"/>
<path opacity="0.1" d="M145.036 152.081C145.106 150.458 145.738 148.906 146.86 147.565C147.422 146.93 148.194 146.436 149.036 146.083C149.878 145.801 150.79 145.73 151.632 145.801C152.474 145.871 153.386 146.224 154.088 146.789C154.789 147.353 155.351 148.059 155.702 148.906C156.333 150.458 156.403 152.151 156.123 153.704C155.842 152.151 155.491 150.599 154.719 149.399C154.018 148.129 152.825 147.353 151.491 147.212C150.088 147.071 148.755 147.424 147.632 148.341C146.51 149.329 145.668 150.67 145.036 152.081Z" fill="black"/>
<path d="M105.462 111.435C105.602 109.319 105.883 107.202 106.093 105.085C106.304 102.968 106.585 100.851 106.795 98.7343C107.006 96.6175 107.286 94.5006 107.567 92.3838C107.848 90.2669 108.128 88.1501 108.409 86.0332L108.479 85.4688L109.04 85.5393C113.601 85.8216 118.162 86.1744 122.723 86.6683C124.968 86.88 127.284 87.1622 129.529 87.4445C131.775 87.7973 134.09 88.0795 136.335 88.5029L122.653 87.6562L108.97 86.7389L109.602 86.2449C109.321 88.3618 108.97 90.4786 108.69 92.5955C108.339 94.7123 108.058 96.8292 107.707 98.8754C107.356 100.992 107.006 103.109 106.655 105.155C106.304 107.272 105.953 109.389 105.462 111.435Z" fill="white"/>
<path d="M108.76 127.594C109.251 125.054 110.374 122.584 111.917 120.467C112.338 119.903 112.759 119.409 113.18 118.915C113.671 118.421 114.092 117.998 114.584 117.504C115.075 117.08 115.636 116.657 116.127 116.234C116.689 115.881 117.25 115.528 117.811 115.175C118.443 114.893 119.004 114.611 119.636 114.329L121.53 113.693L123.495 113.27C124.126 113.2 124.828 113.129 125.46 113.129C128.126 113.058 130.722 113.623 133.108 114.611C130.582 114.117 128.056 113.835 125.53 114.117C123.074 114.329 120.618 115.105 118.443 116.304C116.268 117.504 114.303 119.127 112.689 121.032C111.075 123.008 109.742 125.124 108.76 127.594Z" fill="white"/>
<path d="M163.42 132.957C164.192 130.487 165.735 128.229 167.56 126.324C167.981 125.83 168.542 125.407 169.033 124.983C169.524 124.56 170.086 124.207 170.647 123.784C171.208 123.431 171.77 123.078 172.331 122.796C172.963 122.514 173.524 122.232 174.155 121.949C174.787 121.738 175.418 121.526 176.05 121.314L178.015 120.961L179.979 120.82C180.611 120.82 181.312 120.891 181.944 120.961C184.54 121.244 187.066 122.161 189.312 123.502C186.856 122.655 184.4 122.09 181.874 121.949C179.348 121.808 176.892 122.232 174.576 123.149C172.261 123.996 170.086 125.407 168.261 127.1C166.367 128.723 164.683 130.699 163.42 132.957Z" fill="white"/>
<path d="M102.304 196.816C97.2518 196.816 86.0952 195.687 78.9382 186.444C69.8165 174.589 73.1144 151.939 73.2547 150.951L77.2542 151.586C77.2542 151.798 74.0967 173.531 82.1659 183.974C90.0948 194.205 104.409 192.724 104.549 192.724L104.97 196.746C104.83 196.675 103.847 196.816 102.304 196.816Z" fill="#FFC727"/>
<path opacity="0.4" d="M102.304 196.816C97.2518 196.816 86.0952 195.687 78.9382 186.444C69.8165 174.589 73.1144 151.939 73.2547 150.951L77.2542 151.586C77.2542 151.798 74.0967 173.531 82.1659 183.974C90.0948 194.205 104.409 192.724 104.549 192.724L104.97 196.746C104.83 196.675 103.847 196.816 102.304 196.816Z" fill="white"/>
<path d="M78.3767 154.268C77.675 154.268 76.9032 154.197 76.1314 154.056C69.4655 152.998 66.4483 148.905 65.1853 145.73C63.8521 142.555 63.5715 138.674 64.2731 134.229L72.7633 135.64C72.3423 138.392 72.4827 140.791 73.1142 142.414C73.6054 143.613 74.5175 145.024 77.5347 145.448C78.8679 145.659 80.3414 145.518 81.8851 143.19C83.0779 141.355 83.7796 138.956 84.0602 137.404L92.5504 138.815C92.3399 140.015 91.4979 144.319 89.0421 147.988C86.4459 152.151 82.6569 154.268 78.3767 154.268Z" fill="#FFC727"/>
<path d="M110.654 208.319C110.654 208.107 103.426 206.978 103.426 206.978L99.918 183.411L108.619 179.953L110.654 208.319Z" fill="#FFC727"/>
<path opacity="0.2" d="M110.654 208.319C110.654 208.107 103.426 206.978 103.426 206.978L99.918 183.411L108.619 179.953L110.654 208.319Z" fill="black"/>
<path d="M181.662 208.389C181.662 208.178 188.889 207.19 188.889 207.19L192.889 183.693L184.258 180.023L181.662 208.389Z" fill="#FFC727"/>
<path opacity="0.2" d="M181.662 208.389C181.662 208.178 188.889 207.19 188.889 207.19L192.889 183.693L184.258 180.023L181.662 208.389Z" fill="black"/>
<path d="M107.707 174.729C107.707 174.729 165.805 172.26 185.452 175.506C185.452 175.506 179.698 232.025 179.347 233.154C179.347 233.154 121.53 233.013 112.548 233.154C112.478 233.084 107.637 195.545 107.707 174.729Z" fill="#FFC727"/>
<path opacity="0.2" d="M125.318 190.184C125.318 190.184 157.034 188.914 167.769 190.607C167.769 190.607 164.612 219.114 164.472 219.679C164.472 219.679 132.896 219.608 127.985 219.679C127.985 219.679 125.81 200.133 125.318 190.184Z" fill="black"/>
<path opacity="0.2" d="M129.669 219.608C128.967 219.608 128.336 219.608 127.985 219.608C127.985 219.608 125.81 200.062 125.318 190.184C125.318 190.184 126.02 190.184 127.283 190.113L129.669 219.608Z" fill="black"/>
<path d="M139.001 197.24C137.247 196.675 135.352 197.663 134.791 199.427C134.229 201.191 135.212 203.096 136.966 203.661C138.72 204.225 140.615 203.237 141.176 201.473C141.807 199.709 140.825 197.804 139.001 197.24ZM140.825 201.332C140.334 202.884 138.65 203.802 137.106 203.308C135.563 202.814 134.65 201.12 135.142 199.568C135.633 198.016 137.317 197.098 138.86 197.592C140.474 198.086 141.316 199.78 140.825 201.332ZM139.001 197.24C137.247 196.675 135.352 197.663 134.791 199.427C134.229 201.191 135.212 203.096 136.966 203.661C138.72 204.225 140.615 203.237 141.176 201.473C141.807 199.709 140.825 197.804 139.001 197.24ZM140.825 201.332C140.334 202.884 138.65 203.802 137.106 203.308C135.563 202.814 134.65 201.12 135.142 199.568C135.633 198.016 137.317 197.098 138.86 197.592C140.474 198.086 141.316 199.78 140.825 201.332ZM139.001 197.24C137.247 196.675 135.352 197.663 134.791 199.427C134.229 201.191 135.212 203.096 136.966 203.661C138.72 204.225 140.615 203.237 141.176 201.473C141.807 199.709 140.825 197.804 139.001 197.24ZM140.825 201.332C140.334 202.884 138.65 203.802 137.106 203.308C135.563 202.814 134.65 201.12 135.142 199.568C135.633 198.016 137.317 197.098 138.86 197.592C140.474 198.086 141.316 199.78 140.825 201.332ZM140.123 193.641C136.405 192.441 132.405 194.558 131.212 198.298C130.019 202.038 132.124 206.06 135.843 207.259C139.562 208.459 143.562 206.342 144.754 202.602C145.947 198.862 143.912 194.84 140.123 193.641ZM141.737 201.614C141.106 203.661 138.931 204.86 136.826 204.155C134.791 203.519 133.668 201.332 134.3 199.215C134.931 197.169 137.106 196.04 139.211 196.675C141.246 197.381 142.369 199.568 141.737 201.614ZM141.246 201.473C141.807 199.709 140.825 197.804 139.071 197.24C137.317 196.675 135.422 197.663 134.861 199.427C134.3 201.191 135.282 203.096 137.036 203.661C138.79 204.225 140.685 203.237 141.246 201.473ZM140.825 201.332C140.334 202.884 138.65 203.802 137.106 203.308C135.563 202.814 134.65 201.12 135.142 199.568C135.633 198.016 137.317 197.098 138.86 197.592C140.474 198.086 141.316 199.78 140.825 201.332ZM139.001 197.24C137.247 196.675 135.352 197.663 134.791 199.427C134.229 201.191 135.212 203.096 136.966 203.661C138.72 204.225 140.615 203.237 141.176 201.473C141.807 199.709 140.825 197.804 139.001 197.24ZM140.825 201.332C140.334 202.884 138.65 203.802 137.106 203.308C135.563 202.814 134.65 201.12 135.142 199.568C135.633 198.016 137.317 197.098 138.86 197.592C140.474 198.086 141.316 199.78 140.825 201.332ZM139.001 197.24C137.247 196.675 135.352 197.663 134.791 199.427C134.229 201.191 135.212 203.096 136.966 203.661C138.72 204.225 140.615 203.237 141.176 201.473C141.807 199.709 140.825 197.804 139.001 197.24ZM140.825 201.332C140.334 202.884 138.65 203.802 137.106 203.308C135.563 202.814 134.65 201.12 135.142 199.568C135.633 198.016 137.317 197.098 138.86 197.592C140.474 198.086 141.316 199.78 140.825 201.332Z" fill="#FFC727"/>
<path d="M137.247 207.401L134.65 206.555L134.229 208.46L136.545 209.236L137.247 207.401Z" fill="#FFC727"/>
<path d="M132.544 204.932L131.281 202.533L129.667 203.521L130.79 205.708L132.544 204.932Z" fill="#FFC727"/>
<path d="M131.001 199.851L131.773 197.24L129.949 196.816L129.177 199.145L131.001 199.851Z" fill="#FFC727"/>
<path d="M133.457 195.194L135.843 193.924L134.791 192.23L132.686 193.359L133.457 195.194Z" fill="#FFC727"/>
<path d="M138.438 193.571L141.105 194.418L141.526 192.513L139.21 191.736L138.438 193.571Z" fill="#FFC727"/>
<path d="M143.14 196.042L144.403 198.441L146.087 197.453L144.964 195.266L143.14 196.042Z" fill="#FFC727"/>
<path d="M144.753 201.121L143.911 203.732L145.806 204.155L146.507 201.827L144.753 201.121Z" fill="#FFC727"/>
<path d="M142.298 205.779L139.842 207.049L140.894 208.743L143.069 207.614L142.298 205.779Z" fill="#FFC727"/>
<path d="M150.508 207.189C149.455 206.483 148.052 206.765 147.35 207.824C146.649 208.882 146.929 210.294 147.982 210.999C149.034 211.705 150.438 211.423 151.139 210.364C151.841 209.306 151.56 207.894 150.508 207.189ZM150.929 210.223C150.297 211.14 149.104 211.423 148.192 210.787C147.28 210.152 146.999 208.953 147.631 208.036C148.262 207.118 149.455 206.836 150.367 207.471C151.28 208.036 151.49 209.306 150.929 210.223ZM150.508 207.189C149.455 206.483 148.052 206.765 147.35 207.824C146.649 208.882 146.929 210.294 147.982 210.999C149.034 211.705 150.438 211.423 151.139 210.364C151.841 209.306 151.56 207.894 150.508 207.189ZM150.929 210.223C150.297 211.14 149.104 211.423 148.192 210.787C147.28 210.152 146.999 208.953 147.631 208.036C148.262 207.118 149.455 206.836 150.367 207.471C151.28 208.036 151.49 209.306 150.929 210.223ZM150.508 207.189C149.455 206.483 148.052 206.765 147.35 207.824C146.649 208.882 146.929 210.294 147.982 210.999C149.034 211.705 150.438 211.423 151.139 210.364C151.841 209.306 151.56 207.894 150.508 207.189ZM150.929 210.223C150.297 211.14 149.104 211.423 148.192 210.787C147.28 210.152 146.999 208.953 147.631 208.036C148.262 207.118 149.455 206.836 150.367 207.471C151.28 208.036 151.49 209.306 150.929 210.223ZM151.841 205.072C149.596 203.59 146.649 204.225 145.245 206.483C143.772 208.741 144.403 211.705 146.649 213.116C148.894 214.598 151.841 213.963 153.244 211.705C154.718 209.517 154.086 206.554 151.841 205.072ZM151.42 210.576C150.648 211.775 149.034 212.128 147.771 211.352C146.578 210.576 146.228 208.953 146.999 207.683C147.771 206.483 149.385 206.13 150.648 206.907C151.911 207.683 152.262 209.306 151.42 210.576ZM151.139 210.364C151.841 209.306 151.56 207.894 150.508 207.189C149.455 206.483 148.052 206.765 147.35 207.824C146.649 208.882 146.929 210.294 147.982 210.999C149.034 211.705 150.438 211.423 151.139 210.364ZM150.929 210.223C150.297 211.14 149.104 211.423 148.192 210.787C147.28 210.152 146.999 208.953 147.631 208.036C148.262 207.118 149.455 206.836 150.367 207.471C151.28 208.036 151.49 209.306 150.929 210.223ZM150.508 207.189C149.455 206.483 148.052 206.765 147.35 207.824C146.649 208.882 146.929 210.294 147.982 210.999C149.034 211.705 150.438 211.423 151.139 210.364C151.841 209.306 151.56 207.894 150.508 207.189ZM150.929 210.223C150.297 211.14 149.104 211.423 148.192 210.787C147.28 210.152 146.999 208.953 147.631 208.036C148.262 207.118 149.455 206.836 150.367 207.471C151.28 208.036 151.49 209.306 150.929 210.223ZM150.508 207.189C149.455 206.483 148.052 206.765 147.35 207.824C146.649 208.882 146.929 210.294 147.982 210.999C149.034 211.705 150.438 211.423 151.139 210.364C151.841 209.306 151.56 207.894 150.508 207.189ZM150.929 210.223C150.297 211.14 149.104 211.423 148.192 210.787C147.28 210.152 146.999 208.953 147.631 208.036C148.262 207.118 149.455 206.836 150.367 207.471C151.28 208.036 151.49 209.306 150.929 210.223Z" fill="#DBDBDB"/>
<path d="M147.491 213.468L145.947 212.48L145.315 213.609L146.719 214.527L147.491 213.468Z" fill="#DBDBDB"/>
<path d="M144.895 211.069L144.544 209.234L143.281 209.587L143.632 211.21L144.895 211.069Z" fill="#DBDBDB"/>
<path d="M144.824 207.471L145.806 205.918L144.684 205.283L143.771 206.694L144.824 207.471Z" fill="#DBDBDB"/>
<path d="M147.211 204.859L149.035 204.436L148.684 203.236L147.07 203.519L147.211 204.859Z" fill="#DBDBDB"/>
<path d="M150.788 204.719L152.332 205.777L152.963 204.577L151.56 203.66L150.788 204.719Z" fill="#DBDBDB"/>
<path d="M153.386 207.188L153.737 209.023L155 208.599L154.649 206.977L153.386 207.188Z" fill="#DBDBDB"/>
<path d="M153.525 210.785L152.473 212.338L153.665 212.902L154.507 211.561L153.525 210.785Z" fill="#DBDBDB"/>
<path d="M151.069 213.396L149.245 213.749L149.666 215.019L151.21 214.667L151.069 213.396Z" fill="#DBDBDB"/>
<path d="M183.979 226.523L186.224 226.946L192.609 183.48L190.083 182.986L183.979 226.523Z" fill="#FFC727"/>
<path d="M164.402 219.678L167.7 190.607L190.013 182.986C190.013 182.986 183.909 227.017 183.909 226.523L164.402 219.678Z" fill="#FFC727"/>
<path opacity="0.4" d="M164.402 219.678L167.7 190.607L190.013 182.986C190.013 182.986 183.909 227.017 183.909 226.523L164.402 219.678Z" fill="white"/>
<path d="M110.373 191.735C110.022 189.336 109.812 186.866 109.672 184.467C109.601 183.268 109.601 182.068 109.531 180.798C109.531 179.598 109.461 178.399 109.531 177.129V176.776H109.812C114.232 176.564 118.653 176.211 123.144 176.07C127.564 175.859 131.985 175.647 136.475 175.506C132.055 175.929 127.634 176.282 123.214 176.564C118.793 176.917 114.373 177.129 109.952 177.482L110.303 177.129V180.727L110.373 184.397C110.373 185.596 110.373 186.796 110.443 188.066L110.373 191.735Z" fill="white"/>
<path d="M170.856 191.031C172.26 190.396 173.663 189.761 175.066 189.196C176.47 188.632 177.943 188.067 179.347 187.573C180.82 187.079 182.223 186.586 183.697 186.162C185.17 185.739 186.644 185.386 188.188 185.104L188.539 185.033L188.468 185.386C188.118 187.291 187.767 189.126 187.346 191.031C187.486 189.126 187.767 187.221 187.977 185.315L188.258 185.598C186.784 185.951 185.311 186.374 183.837 186.797C182.364 187.221 180.96 187.715 179.487 188.138L170.856 191.031Z" fill="white"/>
<path opacity="0.1" d="M119.985 174.801L120.406 182.069L120.687 189.336L121.248 203.872L121.669 218.478L121.88 225.746L122.02 233.014L121.599 225.746L121.319 218.478L120.757 203.943L120.266 189.336L120.126 182.069L119.985 174.801Z" fill="black"/>
<path opacity="0.1" d="M117.951 179.176C118.091 179.811 117.74 180.517 117.038 180.729C116.688 180.799 116.267 180.799 115.986 180.587C115.635 180.376 115.425 180.023 115.354 179.67C115.284 179.317 115.354 178.894 115.635 178.541C115.846 178.259 116.196 178.047 116.547 177.977C117.179 178.047 117.81 178.541 117.951 179.176ZM117.951 179.176C117.88 178.894 117.67 178.612 117.389 178.4C117.109 178.259 116.758 178.259 116.547 178.329C115.986 178.541 115.705 179.106 115.846 179.6C115.916 180.093 116.407 180.517 117.038 180.517C117.319 180.517 117.6 180.376 117.81 180.093C117.951 179.882 118.021 179.529 117.951 179.176Z" fill="black"/>
<path opacity="0.1" d="M118.441 187.926C118.581 188.561 118.23 189.267 117.529 189.478C117.178 189.549 116.757 189.549 116.476 189.337C116.125 189.126 115.915 188.773 115.845 188.42C115.774 188.067 115.845 187.644 116.125 187.291C116.336 187.009 116.687 186.797 117.037 186.727C117.669 186.727 118.3 187.291 118.441 187.926ZM118.441 187.926C118.371 187.644 118.16 187.362 117.879 187.15C117.599 187.009 117.248 187.009 117.037 187.079C116.476 187.291 116.195 187.856 116.336 188.349C116.406 188.843 116.897 189.267 117.529 189.267C117.809 189.267 118.09 189.126 118.3 188.843C118.441 188.561 118.511 188.208 118.441 187.926Z" fill="black"/>
<path opacity="0.1" d="M118.722 197.168C118.862 197.803 118.512 198.509 117.81 198.721C117.459 198.791 117.038 198.791 116.757 198.58C116.407 198.368 116.196 198.015 116.126 197.662C116.056 197.309 116.126 196.886 116.407 196.533C116.617 196.251 116.968 196.039 117.319 195.969C118.02 195.969 118.652 196.533 118.722 197.168ZM118.722 197.168C118.652 196.886 118.441 196.604 118.161 196.392C117.88 196.251 117.529 196.251 117.319 196.322C116.757 196.533 116.477 197.098 116.617 197.592C116.687 198.086 117.178 198.509 117.81 198.509C118.091 198.509 118.371 198.368 118.582 198.086C118.722 197.803 118.792 197.451 118.722 197.168Z" fill="black"/>
<path opacity="0.1" d="M119.074 206.412C119.214 207.047 118.863 207.753 118.161 207.965C117.811 208.035 117.39 208.035 117.109 207.824C116.758 207.612 116.548 207.259 116.477 206.906C116.407 206.554 116.477 206.13 116.758 205.777C116.969 205.495 117.319 205.283 117.67 205.213C118.302 205.213 118.933 205.777 119.074 206.412ZM119.074 206.412C119.003 206.13 118.793 205.848 118.512 205.636C118.232 205.495 117.881 205.495 117.67 205.566C117.109 205.777 116.828 206.342 116.969 206.836C117.039 207.33 117.53 207.753 118.161 207.753C118.442 207.753 118.723 207.612 118.933 207.33C119.074 207.047 119.144 206.765 119.074 206.412Z" fill="black"/>
<path opacity="0.1" d="M119.354 215.655C119.494 216.29 119.143 216.995 118.442 217.207C118.091 217.278 117.67 217.278 117.389 217.066C117.038 216.854 116.828 216.501 116.758 216.149C116.688 215.796 116.758 215.372 117.038 215.02C117.249 214.737 117.6 214.526 117.951 214.455C118.652 214.455 119.284 215.02 119.354 215.655ZM119.354 215.655C119.284 215.372 119.073 215.09 118.793 214.878C118.512 214.737 118.161 214.737 117.951 214.808C117.389 215.02 117.109 215.584 117.249 216.078C117.319 216.572 117.81 216.995 118.442 216.995C118.722 216.995 119.003 216.854 119.214 216.572C119.354 216.29 119.424 216.007 119.354 215.655Z" fill="black"/>
<path opacity="0.1" d="M119.705 224.899C119.846 225.534 119.495 226.239 118.793 226.451C118.442 226.522 118.021 226.522 117.741 226.31C117.39 226.098 117.179 225.745 117.109 225.393C117.039 225.04 117.109 224.617 117.39 224.264C117.6 223.981 117.951 223.77 118.302 223.699C118.934 223.77 119.565 224.264 119.705 224.899ZM119.705 224.899C119.635 224.617 119.425 224.334 119.144 224.123C118.863 223.981 118.513 223.981 118.302 224.052C117.741 224.264 117.46 224.828 117.6 225.322C117.671 225.816 118.162 226.239 118.793 226.239C119.074 226.239 119.355 226.098 119.565 225.816C119.705 225.604 119.776 225.252 119.705 224.899Z" fill="black"/>
<path d="M122.57 239.016L89.667 249.043L90.8269 252.892L123.73 242.865L122.57 239.016Z" fill="#FFC727"/>
<path opacity="0.4" d="M122.57 239.016L89.667 249.043L90.8269 252.892L123.73 242.865L122.57 239.016Z" fill="white"/>
<path d="M106.794 242.578L102.982 243.797L104.79 249.513L108.602 248.294L106.794 242.578Z" fill="#FFC727"/>
<path d="M90.5854 258.629L82.0952 221.654L56.4141 227.723L69.0441 263.78L90.5854 258.629Z" fill="#FFC727"/>
<path d="M96.2685 256.723L90.5849 258.629L82.0947 221.654L90.2341 223.63L96.2685 256.723Z" fill="#FFC727"/>
<path opacity="0.2" d="M96.2685 256.723L90.5849 258.629L82.0947 221.654L90.2341 223.63L96.2685 256.723Z" fill="black"/>
<path d="M123.143 245.363C125.546 245.363 127.494 243.404 127.494 240.988C127.494 238.572 125.546 236.613 123.143 236.613C120.741 236.613 118.793 238.572 118.793 240.988C118.793 243.404 120.741 245.363 123.143 245.363Z" fill="#FFC727"/>
<path d="M167.99 238.94L166.822 242.787L199.705 252.883L200.873 249.036L167.99 238.94Z" fill="#FFC727"/>
<path opacity="0.4" d="M167.99 238.94L166.822 242.787L199.705 252.883L200.873 249.036L167.99 238.94Z" fill="white"/>
<path d="M183.733 242.417L181.913 248.129L185.722 249.356L187.542 243.645L183.733 242.417Z" fill="#FFC727"/>
<path d="M199.974 258.558L208.534 221.654L234.145 227.793L221.445 263.78L199.974 258.558Z" fill="#FFC727"/>
<path d="M194.291 256.653L199.975 258.558L208.535 221.654L200.325 223.559L194.291 256.653Z" fill="#FFC727"/>
<path opacity="0.2" d="M194.291 256.653L199.975 258.558L208.535 221.654L200.325 223.559L194.291 256.653Z" fill="black"/>
<path d="M163.067 240.847C163.067 243.247 165.032 245.222 167.418 245.222C169.803 245.222 171.768 243.247 171.768 240.847C171.768 238.448 169.803 236.473 167.418 236.473C165.032 236.473 163.067 238.448 163.067 240.847Z" fill="#FFC727"/>
<path d="M195.977 195.264C196.047 195.194 206.642 185.315 219.062 188.702C231.762 192.16 242.287 211.423 242.357 211.564L245.865 209.659C245.374 208.812 234.428 188.702 220.044 184.821C205.379 180.87 193.661 191.877 193.17 192.371L195.977 195.264Z" fill="#FFC727"/>
<path opacity="0.4" d="M195.977 195.264C196.047 195.194 206.642 185.315 219.062 188.702C231.762 192.16 242.287 211.423 242.357 211.564L245.865 209.659C245.374 208.812 234.428 188.702 220.044 184.821C205.379 180.87 193.661 191.877 193.17 192.371L195.977 195.264Z" fill="white"/>
<path d="M237.655 230.97L245.233 226.948C244.531 225.537 243.619 223.138 243.479 221.021C243.338 218.199 244.391 217.211 245.654 216.576C248.32 215.164 249.934 215.729 250.987 216.364C252.53 217.281 254.074 219.116 255.337 221.586L262.915 217.564C260.81 213.612 258.284 210.719 255.337 208.955C252.39 207.191 247.619 205.78 241.584 208.955C236.883 211.425 234.497 215.941 234.848 221.586C235.199 225.96 237.094 229.912 237.655 230.97Z" fill="#FFC727"/>
<path d="M197.59 181.787C199.274 180.658 200.958 179.529 202.642 178.471C204.326 177.412 206.08 176.354 207.764 175.366C209.518 174.378 211.202 173.32 212.956 172.403L215.623 170.991C216.535 170.497 217.377 170.074 218.289 169.58C217.447 170.145 216.605 170.709 215.763 171.274L213.237 172.896C211.553 173.955 209.799 175.013 208.115 176.001C206.361 176.989 204.677 178.047 202.923 178.965C201.098 179.953 199.344 180.94 197.59 181.787Z" fill="#263238"/>
<path d="M193.17 198.299C195.556 199.64 197.801 201.192 199.976 202.744C202.151 204.297 204.326 205.99 206.361 207.754C203.976 206.413 201.73 204.861 199.555 203.309C197.38 201.756 195.275 200.133 193.17 198.299Z" fill="#263238"/>
<path d="M197.1 196.322C198.924 196.887 200.748 197.522 202.502 198.157C204.327 198.792 206.081 199.498 207.835 200.133C209.589 200.838 211.343 201.544 213.098 202.32L215.694 203.449C216.536 203.872 217.448 204.225 218.29 204.649C217.378 204.366 216.466 204.084 215.554 203.802L212.887 202.885C211.063 202.249 209.309 201.544 207.554 200.909C205.8 200.203 204.046 199.498 202.292 198.721C200.538 197.875 198.784 197.098 197.1 196.322Z" fill="#263238"/>
<path d="M202.292 183.341C204.046 182.918 205.8 182.494 207.555 182.142C209.309 181.789 211.063 181.436 212.887 181.154C214.641 180.871 216.466 180.519 218.22 180.307L220.886 179.954C221.798 179.884 222.64 179.742 223.553 179.672C222.711 179.884 221.798 180.095 220.956 180.307L218.29 180.871C216.536 181.224 214.782 181.577 212.957 181.859C211.203 182.142 209.379 182.494 207.625 182.706C205.871 182.918 204.046 183.2 202.292 183.341Z" fill="#263238"/>
<path d="M160.122 194.35C160.403 192.939 160.894 191.528 161.525 190.187C162.157 188.846 162.929 187.576 163.841 186.447C164.823 185.318 165.946 184.33 167.349 183.766C168.753 183.272 170.366 183.272 171.77 183.836C173.173 184.401 174.296 185.601 174.927 187.012C175.208 187.717 175.418 188.423 175.489 189.199C175.559 189.975 175.559 190.751 175.208 191.528C175.068 191.88 174.787 192.304 174.436 192.516C174.226 192.657 174.015 192.727 173.805 192.727C173.594 192.727 173.384 192.727 173.103 192.657C172.612 192.445 172.401 192.092 172.191 191.739C171.98 191.387 171.84 191.034 171.77 190.681C171.349 189.199 171.349 187.717 171.419 186.236C171.629 183.272 172.401 180.308 173.945 177.768C174.717 176.498 175.769 175.369 176.962 174.522C178.225 173.676 179.628 173.111 181.102 172.899C181.804 172.758 182.576 172.758 183.277 172.688C183.628 172.617 184.049 172.758 184.4 172.758C184.751 172.829 185.172 172.829 185.523 172.899C186.996 173.182 188.329 173.746 189.662 174.452C190.925 175.157 192.048 176.145 193.101 177.133C194.153 178.192 195.065 179.321 195.837 180.591C194.153 178.192 192.048 176.145 189.522 174.734C188.259 174.099 186.926 173.534 185.523 173.323C185.172 173.252 184.821 173.252 184.47 173.182C184.119 173.182 183.768 173.111 183.417 173.111C182.716 173.182 182.014 173.182 181.312 173.323C179.909 173.534 178.576 174.099 177.453 174.875C176.26 175.651 175.348 176.78 174.576 177.98C173.103 180.379 172.331 183.272 172.191 186.094C172.121 187.506 172.121 188.987 172.471 190.328C172.612 190.963 172.963 191.669 173.384 191.88C173.454 191.88 173.454 191.951 173.524 191.951C173.594 191.951 173.664 191.951 173.734 191.951C173.875 191.951 174.015 191.88 174.085 191.81C174.296 191.669 174.506 191.387 174.647 191.104C174.927 190.54 174.927 189.764 174.857 189.129C174.787 188.423 174.647 187.788 174.296 187.153C173.734 185.883 172.752 184.754 171.489 184.26C170.226 183.695 168.753 183.695 167.419 184.119C166.086 184.613 164.964 185.53 163.981 186.588C162.227 188.846 160.894 191.528 160.122 194.35Z" fill="#263238"/>
<path d="M95.2871 212.627C95.9888 211.356 96.9711 210.227 98.0938 209.381C99.2866 208.534 100.62 207.828 102.023 207.476C103.426 207.123 104.97 207.123 106.444 207.546C107.847 207.97 109.18 208.816 110.162 209.875C111.215 210.933 111.987 212.274 112.478 213.614C112.969 215.026 113.32 216.507 113.18 217.989C113.11 218.765 112.969 219.542 112.338 220.177C112.057 220.529 111.566 220.671 111.145 220.741C110.724 220.741 110.303 220.671 109.952 220.459C109.601 220.247 109.25 219.894 109.11 219.542C108.899 219.189 108.829 218.765 108.829 218.342C108.829 217.566 108.97 216.79 109.18 216.084C109.671 214.673 110.443 213.332 111.355 212.203C112.268 211.004 113.32 210.016 114.513 209.099C116.899 207.334 119.916 206.417 122.863 206.77C124.336 206.982 125.74 207.405 127.073 208.111C128.336 208.816 129.458 209.804 130.371 211.004C131.283 212.133 131.984 213.473 132.546 214.814C133.107 216.155 133.528 217.566 133.668 218.977C133.107 216.155 131.914 213.403 130.09 211.215C129.178 210.086 128.055 209.169 126.862 208.534C125.599 207.828 124.266 207.476 122.863 207.334C120.056 207.052 117.179 207.899 114.934 209.592C112.689 211.286 110.794 213.614 109.882 216.225C109.671 216.86 109.531 217.566 109.531 218.201C109.531 218.836 109.741 219.471 110.303 219.753C110.583 219.894 110.864 219.965 111.215 219.965C111.496 219.965 111.776 219.824 111.987 219.612C112.408 219.189 112.548 218.483 112.618 217.778C112.759 216.366 112.478 214.955 111.987 213.685C111.496 212.344 110.724 211.145 109.812 210.086C108.829 209.028 107.636 208.252 106.303 207.828C104.97 207.405 103.497 207.334 102.163 207.617C99.427 208.463 96.8308 210.157 95.2871 212.627Z" fill="#263238"/>
<path d="M62.8703 42.2174C62.8002 39.3243 62.1687 36.3607 60.8355 33.8205C60.1338 32.5504 59.2918 31.4214 58.099 30.6453C56.9062 29.8691 55.5028 29.5868 54.0995 29.7985C52.7663 30.0102 51.5033 30.8569 50.6613 31.9154C50.2403 32.4799 49.8895 33.1149 49.679 33.75C49.4685 34.385 49.3281 35.0906 49.3983 35.7257C49.4685 36.0079 49.5386 36.3607 49.7491 36.5019C49.8193 36.5724 49.9596 36.643 50.1 36.7136C50.1701 36.7136 50.2403 36.7136 50.3105 36.7841C50.3806 36.7841 50.4508 36.7841 50.4508 36.7841C50.942 36.7136 51.363 36.0785 51.7138 35.4434C52.3453 34.2439 52.7663 32.8327 53.047 31.4214C53.5381 28.599 53.5381 25.6354 52.626 22.954C52.205 21.6134 51.5033 20.3433 50.5911 19.2848C49.679 18.2264 48.4861 17.3797 47.2231 16.8152C46.5916 16.4624 45.8899 16.3213 45.2584 16.1096C44.9076 15.9685 44.5568 15.9685 44.2059 15.8979C43.8551 15.8273 43.5043 15.7568 43.1534 15.7568C41.7501 15.6156 40.2766 15.8273 38.9434 16.1801C36.1367 16.8858 33.6107 18.4381 31.4355 20.3433C32.4881 19.2848 33.6107 18.4381 34.8737 17.6619C36.1367 16.8858 37.4699 16.2507 38.8732 15.8273C40.2766 15.4745 41.7501 15.1923 43.2236 15.2628C43.5744 15.2628 43.9253 15.3334 44.3463 15.404C44.6971 15.4745 45.1181 15.4745 45.4689 15.6156C46.1706 15.8273 46.8723 15.9685 47.5739 16.3213C48.9773 16.8152 50.2403 17.7325 51.2226 18.8615C52.205 19.9905 52.9066 21.3311 53.3978 22.7424C54.31 25.5648 54.3801 28.6695 53.889 31.5626C53.6083 33.0444 53.1873 34.4556 52.4856 35.7963C52.2751 36.1491 52.0646 36.4313 51.8541 36.7841C51.5735 37.0664 51.2928 37.3486 50.7315 37.4897C50.4508 37.4897 50.2403 37.4897 50.0298 37.4192C49.8193 37.3486 49.6088 37.2075 49.4685 37.0664C49.1878 36.7136 49.0475 36.2902 48.9773 35.9374C48.837 35.1612 49.0475 34.385 49.258 33.6088C49.5386 32.9032 49.8895 32.1976 50.3806 31.6331C51.2928 30.4336 52.6961 29.5163 54.1696 29.3046C55.6431 29.0929 57.257 29.4457 58.4498 30.2925C59.7128 31.1392 60.5548 32.4093 61.2565 33.6794C61.888 35.0201 62.309 36.4313 62.5897 37.8425C62.8002 39.3243 62.9405 40.7356 62.8703 42.2174Z" fill="#263238"/>
<path d="M217.799 79.0508C214.992 78.4157 211.975 78.3451 209.238 79.1213C207.835 79.4741 206.502 80.1092 205.519 81.0265C204.537 82.0143 203.835 83.355 203.765 84.6957C203.625 86.1069 204.186 87.4476 205.028 88.5766C205.449 89.1411 206.011 89.5644 206.572 89.9878C207.133 90.3406 207.765 90.6229 208.466 90.6934C208.817 90.6934 209.098 90.6934 209.308 90.5523C209.449 90.4817 209.519 90.4112 209.589 90.2701C209.659 90.1995 209.659 90.1289 209.659 90.0584C209.659 89.9878 209.659 89.9173 209.729 89.9173C209.729 89.4233 209.238 88.7883 208.747 88.3649C207.695 87.4476 206.432 86.742 205.169 86.1775C202.572 85.0485 199.696 84.3429 196.889 84.5546C195.485 84.6957 194.082 84.9779 192.819 85.6836C191.556 86.3186 190.504 87.2359 189.662 88.4355C189.17 88.9999 188.89 89.635 188.469 90.1995C188.258 90.4817 188.188 90.8346 188.048 91.1874C187.907 91.5402 187.767 91.8224 187.697 92.1752C187.276 93.5159 187.136 94.9977 187.136 96.4089C187.206 99.3019 188.048 102.124 189.381 104.735C188.609 103.465 188.048 102.124 187.627 100.713C187.206 99.3019 186.855 97.8907 186.785 96.4089C186.715 94.9271 186.855 93.4453 187.276 92.0341C187.346 91.6813 187.557 91.3285 187.627 90.9757C187.767 90.6229 187.837 90.2701 188.048 89.9878C188.399 89.3528 188.749 88.6471 189.241 88.0826C190.083 86.8831 191.205 85.8247 192.538 85.1191C193.872 84.4134 195.345 84.0606 196.819 83.9195C199.766 83.6373 202.783 84.3429 205.449 85.4719C206.782 86.1069 208.116 86.8125 209.238 87.871C209.519 88.1532 209.8 88.4355 210.01 88.7177C210.221 89.0705 210.431 89.4233 210.431 89.9173C210.361 90.1995 210.291 90.4112 210.15 90.5523C210.01 90.764 209.87 90.9051 209.659 90.9757C209.238 91.1874 208.817 91.2579 208.396 91.1874C207.624 91.1168 206.853 90.764 206.221 90.3406C205.59 89.9173 205.028 89.4233 204.537 88.7883C203.555 87.5887 203.064 86.0364 203.204 84.484C203.344 82.9317 204.116 81.5204 205.169 80.5326C206.291 79.5447 207.695 78.9096 209.098 78.6274C210.501 78.2746 211.975 78.204 213.448 78.2746C214.922 78.4157 216.395 78.6274 217.799 79.0508Z" fill="#263238"/>
<path d="M174.365 33.3994C173.874 31.7059 173.803 29.9418 174.084 28.1778C174.365 26.4843 174.926 24.7203 175.908 23.2385C176.821 21.7567 178.154 20.4866 179.697 19.6398C181.241 18.7931 183.065 18.4403 184.82 18.5109C186.574 18.5814 188.328 19.0048 189.942 19.781C191.556 20.5571 193.029 21.545 194.222 22.8857C194.783 23.5913 195.345 24.3675 195.345 25.4259C195.345 25.9198 195.134 26.4843 194.783 26.8371C194.433 27.1899 194.011 27.4722 193.52 27.6133C193.029 27.7544 192.468 27.7544 192.047 27.5427C191.556 27.4016 191.205 27.0488 190.854 26.7666C190.152 26.1315 189.731 25.3553 189.31 24.5086C188.538 22.8857 188.117 21.1216 187.907 19.4282C187.696 17.6641 187.767 15.9001 188.047 14.136C188.609 10.6785 190.433 7.29156 193.24 5.17472C194.643 4.11629 196.257 3.26955 197.941 2.84618C199.625 2.35225 201.449 2.28169 203.133 2.49337C204.887 2.70506 206.571 3.19899 208.115 3.90461C209.729 4.61022 211.202 5.45696 212.606 6.51539C209.729 4.61022 206.501 3.19899 203.063 2.84618C201.379 2.70506 199.625 2.77562 198.011 3.26955C196.397 3.69292 194.854 4.53966 193.52 5.59809C192.187 6.65651 191.064 7.99718 190.293 9.47897C189.451 10.9608 188.959 12.5837 188.609 14.2772C188.047 17.5936 188.398 21.1922 189.801 24.2969C190.152 25.0731 190.643 25.7787 191.205 26.3432C191.766 26.9077 192.538 27.2605 193.24 27.0488C193.59 26.9782 193.941 26.696 194.222 26.4843C194.503 26.2021 194.573 25.9198 194.573 25.567C194.573 24.7908 194.152 24.0852 193.59 23.4502C192.538 22.1801 191.064 21.1922 189.591 20.4866C188.047 19.781 186.363 19.3576 184.679 19.287C182.995 19.2165 181.311 19.5693 179.768 20.2749C178.224 21.0511 176.961 22.2506 176.049 23.6618C174.295 26.3432 173.593 30.0124 174.365 33.3994Z" fill="#263238"/>
<path d="M92.9727 212.765C91.429 212.272 89.745 213.118 89.2539 214.741C88.7627 216.294 89.6047 217.987 91.2185 218.481C92.7622 218.975 94.4462 218.128 94.9374 216.505C95.4286 214.953 94.5164 213.259 92.9727 212.765ZM94.5866 216.435C94.1656 217.846 92.6921 218.622 91.2887 218.128C89.8854 217.705 89.1135 216.223 89.6047 214.812C90.0257 213.401 91.4992 212.624 92.9025 213.118C94.2357 213.542 95.0076 215.023 94.5866 216.435ZM92.9727 212.765C91.429 212.272 89.745 213.118 89.2539 214.741C88.7627 216.294 89.6047 217.987 91.2185 218.481C92.7622 218.975 94.4462 218.128 94.9374 216.505C95.4286 214.953 94.5164 213.259 92.9727 212.765ZM94.5866 216.435C94.1656 217.846 92.6921 218.622 91.2887 218.128C89.8854 217.705 89.1135 216.223 89.6047 214.812C90.0257 213.401 91.4992 212.624 92.9025 213.118C94.2357 213.542 95.0076 215.023 94.5866 216.435ZM92.9727 212.765C91.429 212.272 89.745 213.118 89.2539 214.741C88.7627 216.294 89.6047 217.987 91.2185 218.481C92.7622 218.975 94.4462 218.128 94.9374 216.505C95.4286 214.953 94.5164 213.259 92.9727 212.765ZM94.5866 216.435C94.1656 217.846 92.6921 218.622 91.2887 218.128C89.8854 217.705 89.1135 216.223 89.6047 214.812C90.0257 213.401 91.4992 212.624 92.9025 213.118C94.2357 213.542 95.0076 215.023 94.5866 216.435ZM93.955 209.59C90.6572 208.532 87.0787 210.366 86.0964 213.753C85.0438 217.07 86.8682 220.668 90.2362 221.656C93.5341 222.715 97.1126 220.88 98.0949 217.493C99.1474 214.247 97.2529 210.649 93.955 209.59ZM95.3584 216.717C94.7971 218.552 92.8324 219.539 91.008 218.975C89.1837 218.41 88.2014 216.435 88.7627 214.6C89.324 212.765 91.2887 211.778 93.113 212.342C94.9374 212.907 95.9197 214.882 95.3584 216.717ZM94.9374 216.576C95.4286 215.023 94.5866 213.33 92.9727 212.836C91.429 212.342 89.745 213.189 89.2539 214.812C88.7627 216.364 89.6047 218.058 91.2185 218.552C92.7622 218.975 94.4462 218.128 94.9374 216.576ZM94.5866 216.435C94.1656 217.846 92.6921 218.622 91.2887 218.128C89.8854 217.705 89.1135 216.223 89.6047 214.812C90.0257 213.401 91.4992 212.624 92.9025 213.118C94.2357 213.542 95.0076 215.023 94.5866 216.435ZM92.9727 212.765C91.429 212.272 89.745 213.118 89.2539 214.741C88.7627 216.294 89.6047 217.987 91.2185 218.481C92.7622 218.975 94.4462 218.128 94.9374 216.505C95.4286 214.953 94.5164 213.259 92.9727 212.765ZM94.5866 216.435C94.1656 217.846 92.6921 218.622 91.2887 218.128C89.8854 217.705 89.1135 216.223 89.6047 214.812C90.0257 213.401 91.4992 212.624 92.9025 213.118C94.2357 213.542 95.0076 215.023 94.5866 216.435ZM92.9727 212.765C91.429 212.272 89.745 213.118 89.2539 214.741C88.7627 216.294 89.6047 217.987 91.2185 218.481C92.7622 218.975 94.4462 218.128 94.9374 216.505C95.4286 214.953 94.5164 213.259 92.9727 212.765ZM94.5866 216.435C94.1656 217.846 92.6921 218.622 91.2887 218.128C89.8854 217.705 89.1135 216.223 89.6047 214.812C90.0257 213.401 91.4992 212.624 92.9025 213.118C94.2357 213.542 95.0076 215.023 94.5866 216.435Z" fill="#455A64"/>
<path d="M91.4289 221.795L89.1134 221.09L88.6924 222.713L90.7974 223.418L91.4289 221.795Z" fill="#455A64"/>
<path d="M87.2886 219.609L86.1659 217.492L84.6924 218.409L85.6747 220.315L87.2886 219.609Z" fill="#455A64"/>
<path d="M85.8853 215.164L86.587 212.835L84.903 212.412L84.2715 214.458L85.8853 215.164Z" fill="#455A64"/>
<path d="M88.061 211.001L90.1661 209.872L89.2539 208.391L87.3594 209.378L88.061 211.001Z" fill="#455A64"/>
<path d="M92.4824 209.59L94.7979 210.295L95.1488 208.602L93.1139 207.967L92.4824 209.59Z" fill="#455A64"/>
<path d="M96.6211 211.707L97.7438 213.895L99.2173 212.977L98.2349 211.072L96.6211 211.707Z" fill="#455A64"/>
<path d="M98.0239 216.221L97.3223 218.549L99.0063 218.902L99.6378 216.856L98.0239 216.221Z" fill="#455A64"/>
<path d="M95.8491 220.385L93.7441 221.514L94.6563 222.996L96.5508 221.937L95.8491 220.385Z" fill="#455A64"/>
<path d="M209.308 192.656C212.466 188.352 211.553 182.284 207.343 179.109C203.063 175.933 197.029 176.851 193.871 181.084C190.714 185.389 191.626 191.457 195.836 194.632C200.116 197.807 206.151 196.89 209.308 192.656ZM205.168 189.552C203.695 191.527 200.888 191.951 198.923 190.469C196.959 188.987 196.538 186.165 198.011 184.118C199.485 182.143 202.291 181.719 204.256 183.201C206.221 184.754 206.642 187.576 205.168 189.552Z" fill="#263238"/>
<path d="M197.591 195.408L194.644 193.221L193.24 195.408L195.836 197.384L197.591 195.408Z" fill="#263238"/>
<path d="M192.679 190.187L192.118 186.518L189.592 187.082L190.083 190.398L192.679 190.187Z" fill="#263238"/>
<path d="M192.89 182.988L195.066 180.025L192.89 178.613L190.926 181.295L192.89 182.988Z" fill="#263238"/>
<path d="M198.083 178.05L201.731 177.556L201.17 174.945L197.872 175.439L198.083 178.05Z" fill="#263238"/>
<path d="M205.239 178.261L208.186 180.519L209.59 178.261L206.923 176.285L205.239 178.261Z" fill="#263238"/>
<path d="M210.15 183.483L210.642 187.152L213.238 186.588L212.747 183.342L210.15 183.483Z" fill="#263238"/>
<path d="M209.94 190.68L207.694 193.643L209.94 195.054L211.904 192.444L209.94 190.68Z" fill="#263238"/>
<path d="M204.747 195.619L201.099 196.184L201.66 198.724L204.888 198.23L204.747 195.619Z" fill="#263238"/>
<path d="M198.152 187.294L200.187 189.905L203.415 189.411L204.608 186.306L202.573 183.695L199.345 184.189L198.152 187.294ZM202.012 186.024C202.503 186.377 202.573 187.012 202.222 187.506C201.871 188 201.24 188.07 200.749 187.717C200.257 187.365 200.187 186.729 200.538 186.236C200.889 185.742 201.591 185.671 202.012 186.024Z" fill="#263238"/>
<path d="M216.535 4.39899C215.132 3.97562 213.659 4.7518 213.238 6.09247C212.817 7.5037 213.588 8.9855 214.922 9.40887C216.325 9.83224 217.728 9.05606 218.22 7.71539C218.641 6.30416 217.869 4.82236 216.535 4.39899ZM217.939 7.57426C217.588 8.77381 216.255 9.47943 215.062 9.05606C213.869 8.70325 213.167 7.36258 213.588 6.16303C213.939 4.96349 215.272 4.25787 216.465 4.68124C217.658 5.10461 218.29 6.37472 217.939 7.57426ZM216.535 4.39899C215.132 3.97562 213.659 4.7518 213.238 6.09247C212.817 7.5037 213.588 8.9855 214.922 9.40887C216.325 9.83224 217.728 9.05606 218.22 7.71539C218.641 6.30416 217.869 4.82236 216.535 4.39899ZM217.939 7.57426C217.588 8.77381 216.255 9.47943 215.062 9.05606C213.869 8.70325 213.167 7.36258 213.588 6.16303C213.939 4.96349 215.272 4.25787 216.465 4.68124C217.658 5.10461 218.29 6.37472 217.939 7.57426ZM216.535 4.39899C215.132 3.97562 213.659 4.7518 213.238 6.09247C212.817 7.5037 213.588 8.9855 214.922 9.40887C216.325 9.83224 217.728 9.05606 218.22 7.71539C218.641 6.30416 217.869 4.82236 216.535 4.39899ZM217.939 7.57426C217.588 8.77381 216.255 9.47943 215.062 9.05606C213.869 8.70325 213.167 7.36258 213.588 6.16303C213.939 4.96349 215.272 4.25787 216.465 4.68124C217.658 5.10461 218.29 6.37472 217.939 7.57426ZM217.377 1.64709C214.501 0.729794 211.413 2.35271 210.501 5.24573C209.589 8.13876 211.203 11.2435 214.08 12.1608C216.956 13.0781 220.044 11.4552 220.956 8.56213C221.868 5.6691 220.254 2.56439 217.377 1.64709ZM218.641 7.78595C218.149 9.40886 216.465 10.2556 214.851 9.76167C213.238 9.26774 212.396 7.57427 212.887 5.95135C213.378 4.32843 215.062 3.48169 216.676 3.97563C218.219 4.54012 219.132 6.23359 218.641 7.78595ZM218.22 7.71539C218.641 6.30416 217.869 4.89293 216.535 4.39899C215.132 3.97562 213.659 4.7518 213.238 6.09247C212.817 7.5037 213.588 8.9855 214.922 9.40887C216.325 9.83224 217.798 9.05606 218.22 7.71539ZM217.939 7.57426C217.588 8.77381 216.255 9.47943 215.062 9.05606C213.869 8.70325 213.167 7.36258 213.588 6.16303C213.939 4.96349 215.272 4.25787 216.465 4.68124C217.658 5.10461 218.29 6.37472 217.939 7.57426ZM216.535 4.39899C215.132 3.97562 213.659 4.7518 213.238 6.09247C212.817 7.5037 213.588 8.9855 214.922 9.40887C216.325 9.83224 217.728 9.05606 218.22 7.71539C218.641 6.30416 217.869 4.82236 216.535 4.39899ZM217.939 7.57426C217.588 8.77381 216.255 9.47943 215.062 9.05606C213.869 8.70325 213.167 7.36258 213.588 6.16303C213.939 4.96349 215.272 4.25787 216.465 4.68124C217.658 5.10461 218.29 6.37472 217.939 7.57426ZM216.535 4.39899C215.132 3.97562 213.659 4.7518 213.238 6.09247C212.817 7.5037 213.588 8.9855 214.922 9.40887C216.325 9.83224 217.728 9.05606 218.22 7.71539C218.641 6.30416 217.869 4.82236 216.535 4.39899ZM217.939 7.57426C217.588 8.77381 216.255 9.47943 215.062 9.05606C213.869 8.70325 213.167 7.36258 213.588 6.16303C213.939 4.96349 215.272 4.25787 216.465 4.68124C217.658 5.10461 218.29 6.37472 217.939 7.57426Z" fill="#263238"/>
<path d="M215.133 12.3011L213.168 11.666L212.817 13.1478L214.572 13.7123L215.133 12.3011Z" fill="#263238"/>
<path d="M211.554 10.3954L210.572 8.49023L209.309 9.26641L210.151 10.9599L211.554 10.3954Z" fill="#263238"/>
<path d="M210.291 6.44376L210.923 4.39748L209.449 4.11523L208.888 5.87927L210.291 6.44376Z" fill="#263238"/>
<path d="M212.186 2.84611L214.081 1.85825L213.239 0.517578L211.625 1.43488L212.186 2.84611Z" fill="#263238"/>
<path d="M216.115 1.5753L218.08 2.21035L218.431 0.728555L216.677 0.164062L216.115 1.5753Z" fill="#263238"/>
<path d="M219.693 3.48051L220.676 5.38567L221.939 4.53893L221.097 2.91602L219.693 3.48051Z" fill="#263238"/>
<path d="M220.956 7.43164L220.324 9.40737L221.798 9.76018L222.359 7.99614L220.956 7.43164Z" fill="#263238"/>
<path d="M219.062 11.0293L217.168 12.0172L217.94 13.2873L219.624 12.4405L219.062 11.0293Z" fill="#263238"/>
<path d="M189.731 105.229C188.327 104.806 186.924 105.582 186.433 106.923C186.012 108.334 186.784 109.816 188.117 110.239C189.52 110.663 190.924 109.886 191.415 108.546C191.836 107.134 191.064 105.653 189.731 105.229ZM191.134 108.405C190.783 109.604 189.45 110.31 188.257 109.886C187.064 109.534 186.363 108.193 186.784 106.993C187.135 105.794 188.468 105.088 189.661 105.512C190.783 105.864 191.485 107.205 191.134 108.405ZM189.731 105.229C188.327 104.806 186.924 105.582 186.433 106.923C186.012 108.334 186.784 109.816 188.117 110.239C189.52 110.663 190.924 109.886 191.415 108.546C191.836 107.134 191.064 105.653 189.731 105.229ZM191.134 108.405C190.783 109.604 189.45 110.31 188.257 109.886C187.064 109.534 186.363 108.193 186.784 106.993C187.135 105.794 188.468 105.088 189.661 105.512C190.783 105.864 191.485 107.205 191.134 108.405ZM189.731 105.229C188.327 104.806 186.924 105.582 186.433 106.923C186.012 108.334 186.784 109.816 188.117 110.239C189.52 110.663 190.924 109.886 191.415 108.546C191.836 107.134 191.064 105.653 189.731 105.229ZM191.134 108.405C190.783 109.604 189.45 110.31 188.257 109.886C187.064 109.534 186.363 108.193 186.784 106.993C187.135 105.794 188.468 105.088 189.661 105.512C190.783 105.864 191.485 107.205 191.134 108.405ZM190.573 102.407C187.696 101.49 184.609 103.112 183.696 106.005C182.784 108.899 184.398 112.003 187.275 112.921C190.152 113.838 193.239 112.215 194.151 109.322C195.064 106.429 193.45 103.324 190.573 102.407ZM191.766 108.616C191.274 110.239 189.59 111.086 187.977 110.592C186.363 110.098 185.521 108.405 186.012 106.782C186.503 105.159 188.187 104.312 189.801 104.806C191.415 105.3 192.257 107.064 191.766 108.616ZM191.415 108.475C191.836 107.064 191.064 105.653 189.731 105.159C188.327 104.735 186.924 105.512 186.433 106.852C186.012 108.263 186.784 109.745 188.117 110.169C189.52 110.663 190.994 109.886 191.415 108.475ZM191.134 108.405C190.783 109.604 189.45 110.31 188.257 109.886C187.064 109.534 186.363 108.193 186.784 106.993C187.135 105.794 188.468 105.088 189.661 105.512C190.783 105.864 191.485 107.205 191.134 108.405ZM189.731 105.229C188.327 104.806 186.924 105.582 186.433 106.923C186.012 108.334 186.784 109.816 188.117 110.239C189.52 110.663 190.924 109.886 191.415 108.546C191.836 107.134 191.064 105.653 189.731 105.229ZM191.134 108.405C190.783 109.604 189.45 110.31 188.257 109.886C187.064 109.534 186.363 108.193 186.784 106.993C187.135 105.794 188.468 105.088 189.661 105.512C190.783 105.864 191.485 107.205 191.134 108.405ZM189.731 105.229C188.327 104.806 186.924 105.582 186.433 106.923C186.012 108.334 186.784 109.816 188.117 110.239C189.52 110.663 190.924 109.886 191.415 108.546C191.836 107.134 191.064 105.653 189.731 105.229ZM191.134 108.405C190.783 109.604 189.45 110.31 188.257 109.886C187.064 109.534 186.363 108.193 186.784 106.993C187.135 105.794 188.468 105.088 189.661 105.512C190.783 105.864 191.485 107.205 191.134 108.405Z" fill="#263238"/>
<path d="M188.328 113.063L186.293 112.428L186.013 113.91L187.767 114.474L188.328 113.063Z" fill="#263238"/>
<path d="M184.679 111.157L183.767 109.322L182.434 110.098L183.346 111.792L184.679 111.157Z" fill="#263238"/>
<path d="M183.486 107.276L184.118 105.23L182.644 104.877L182.083 106.712L183.486 107.276Z" fill="#263238"/>
<path d="M185.38 103.608L187.274 102.62L186.432 101.35L184.818 102.196L185.38 103.608Z" fill="#263238"/>
<path d="M189.24 102.407L191.275 103.042L191.626 101.561L189.802 100.996L189.24 102.407Z" fill="#263238"/>
<path d="M192.889 104.313L193.871 106.147L195.134 105.371L194.292 103.678L192.889 104.313Z" fill="#263238"/>
<path d="M194.151 108.193L193.52 110.24L194.923 110.592L195.554 108.758L194.151 108.193Z" fill="#263238"/>
<path d="M192.258 111.861L190.363 112.849L191.135 114.119L192.819 113.273L192.258 111.861Z" fill="#263238"/>
<path d="M36.2073 25.85C37.2598 21.4046 34.5935 16.8887 30.1028 15.7597C25.6823 14.7013 21.1916 17.3826 20.0689 21.8985C19.0164 26.3439 21.6828 30.8599 26.1735 31.9888C30.6641 33.0473 35.1548 30.2954 36.2073 25.85ZM31.9271 24.7916C31.436 26.9084 29.331 28.1785 27.226 27.614C25.121 27.1201 23.8579 25.0032 24.4193 22.8864C24.9105 20.7695 27.0155 19.4994 29.1205 20.0639C31.1553 20.6284 32.4885 22.7453 31.9271 24.7916Z" fill="#263238"/>
<path d="M27.8571 31.9888L24.7698 31.2832L24.4189 33.4706L27.1555 34.1762L27.8571 31.9888Z" fill="#263238"/>
<path d="M22.2447 29.5195L20.5607 26.7676L18.7363 28.1082L20.2098 30.5779L22.2447 29.5195Z" fill="#263238"/>
<path d="M19.9984 23.7329L20.7703 20.6282L18.5249 20.2754L17.8232 23.0273L19.9984 23.7329Z" fill="#263238"/>
<path d="M22.454 18.0867L25.1905 16.3932L23.8574 14.5586L21.4717 16.0404L22.454 18.0867Z" fill="#263238"/>
<path d="M28.208 15.8297L31.2954 16.6059L31.6462 14.3479L28.9097 13.7129L28.208 15.8297Z" fill="#263238"/>
<path d="M33.8223 18.369L35.5063 21.0503L37.3306 19.7096L35.8571 17.3105L33.8223 18.369Z" fill="#263238"/>
<path d="M36.0677 24.084L35.2959 27.1887L37.5412 27.5415L38.2429 24.7896L36.0677 24.084Z" fill="#263238"/>
<path d="M33.6105 29.7305L30.874 31.4239L32.2072 33.2585L34.5929 31.7768L33.6105 29.7305Z" fill="#263238"/>
<path d="M25.6112 25.4253L28.067 26.766L30.4527 25.2842L30.3825 22.4618L27.9267 21.1211L25.541 22.5323L25.6112 25.4253ZM28.2775 23.0263C28.7687 23.1674 29.0494 23.6613 28.909 24.0847C28.7687 24.5786 28.2775 24.8609 27.8565 24.7197C27.3654 24.5786 27.0847 24.0847 27.225 23.6613C27.2952 23.2379 27.7864 22.9557 28.2775 23.0263Z" fill="#263238"/>
<path d="M223.27 111.863C221.376 108.97 220.323 105.724 220.323 102.267C220.323 90.1303 233.585 80.3223 249.934 80.3223C266.283 80.3223 279.474 90.1303 279.474 102.267C279.474 114.404 266.212 124.212 249.934 124.212C242.005 124.212 234.848 121.883 229.515 118.143L219.341 120.754L223.27 111.863Z" fill="white"/>
<path d="M223.271 111.862C221.517 109.18 220.394 106.076 220.254 102.83C220.184 99.5841 220.955 96.3382 222.639 93.5158C224.253 90.6933 226.569 88.2942 229.165 86.389C231.761 84.4839 234.708 83.0021 237.725 82.0142C240.813 80.9558 243.97 80.3913 247.198 80.1091C250.425 79.8974 253.653 80.0385 256.811 80.603C257.583 80.7441 258.425 80.8852 259.196 81.0969L261.512 81.732L263.827 82.5081C264.599 82.7904 265.301 83.1432 266.073 83.496C269.02 84.9072 271.686 86.7418 274.002 88.9998C276.317 91.3283 278.141 94.0802 279.124 97.2555C280.106 100.36 280.176 103.818 279.194 106.993C278.282 110.168 276.457 112.991 274.212 115.319C271.967 117.648 269.23 119.482 266.353 120.964C263.477 122.375 260.319 123.363 257.162 123.928C254.004 124.492 250.776 124.704 247.549 124.492C244.321 124.281 241.163 123.716 238.076 122.658C234.989 121.67 232.112 120.259 229.446 118.353H229.586L219.342 120.894L219.201 120.964L219.271 120.823L223.271 111.862ZM223.271 111.862L219.412 120.823L219.342 120.682L229.516 118.001H229.586L229.656 118.071C234.919 121.74 241.234 123.575 247.549 123.928C250.706 124.139 253.934 123.857 257.021 123.293C260.109 122.728 263.196 121.811 266.073 120.329C268.879 118.918 271.546 117.083 273.721 114.825C275.896 112.567 277.65 109.815 278.492 106.781C279.404 103.747 279.334 100.501 278.352 97.4672C277.44 94.4331 275.686 91.7517 273.44 89.4937C271.195 87.2358 268.529 85.4717 265.722 84.0605C265.02 83.7783 264.319 83.3549 263.547 83.0726L261.301 82.2965L258.986 81.6614C258.214 81.4497 257.442 81.3792 256.67 81.1675C253.513 80.603 250.355 80.4619 247.198 80.6735C244.04 80.8852 240.883 81.4497 237.866 82.4376C234.848 83.4254 231.972 84.8367 229.375 86.6713C226.779 88.5059 224.534 90.8344 222.92 93.5863C221.236 96.3382 220.394 99.5135 220.464 102.689C220.464 106.076 221.517 109.18 223.271 111.862Z" fill="#263238"/>
<path d="M234.708 105.934V107.557H228.112V97.9609H234.638V99.5839H230.007V101.912H234.006V103.394H230.007V105.864H234.708V105.934Z" fill="#263238"/>
<path d="M236.182 107.557V97.9609H240.392C240.813 97.9609 241.234 98.0315 241.584 98.2432C241.935 98.4549 242.286 98.6666 242.567 98.9488C242.847 99.2311 243.058 99.5839 243.198 100.007C243.339 100.36 243.409 100.783 243.409 101.136C243.409 101.771 243.268 102.336 242.918 102.83C242.637 103.324 242.216 103.676 241.655 103.959L243.83 107.557H241.725L239.76 104.311H237.936V107.557H236.182ZM238.006 102.689H240.321C240.462 102.689 240.672 102.618 240.813 102.547C240.953 102.477 241.093 102.336 241.163 102.195C241.304 102.054 241.374 101.912 241.444 101.701C241.514 101.489 241.514 101.277 241.514 101.066C241.514 100.854 241.444 100.642 241.374 100.431C241.304 100.219 241.234 100.078 241.093 99.9367C240.953 99.7955 240.813 99.6544 240.672 99.5839C240.532 99.5133 240.321 99.4427 240.181 99.4427H237.936V102.689H238.006Z" fill="#263238"/>
<path d="M245.092 107.557V97.9609H249.302C249.723 97.9609 250.144 98.0315 250.495 98.2432C250.845 98.4549 251.196 98.6666 251.477 98.9488C251.758 99.2311 251.968 99.5839 252.108 100.007C252.249 100.36 252.319 100.783 252.319 101.136C252.319 101.771 252.179 102.336 251.828 102.83C251.547 103.324 251.126 103.676 250.565 103.959L252.74 107.557H250.635L248.67 104.311H246.846V107.557H245.092ZM246.916 102.689H249.232C249.372 102.689 249.582 102.618 249.723 102.547C249.863 102.477 250.003 102.336 250.074 102.195C250.214 102.054 250.284 101.912 250.354 101.701C250.424 101.489 250.424 101.277 250.424 101.066C250.424 100.854 250.354 100.642 250.284 100.431C250.214 100.219 250.144 100.078 250.003 99.9367C249.863 99.7955 249.723 99.6544 249.582 99.5839C249.442 99.5133 249.232 99.4427 249.091 99.4427H246.846V102.689H246.916Z" fill="#263238"/>
<path d="M258.073 107.628C257.372 107.628 256.74 107.487 256.179 107.205C255.618 106.922 255.126 106.57 254.705 106.076C254.284 105.652 254.004 105.088 253.793 104.523C253.583 103.959 253.442 103.324 253.442 102.759C253.442 102.124 253.583 101.489 253.793 100.925C254.004 100.36 254.355 99.7958 254.776 99.3724C255.197 98.949 255.688 98.5962 256.249 98.314C256.81 98.0317 257.442 97.8906 258.144 97.8906C258.845 97.8906 259.477 98.0317 260.038 98.314C260.599 98.5962 261.091 98.949 261.512 99.443C261.933 99.9369 262.213 100.431 262.424 100.995C262.634 101.56 262.775 102.195 262.775 102.759C262.775 103.394 262.634 104.029 262.424 104.594C262.213 105.158 261.862 105.723 261.441 106.146C261.02 106.57 260.529 106.922 259.968 107.205C259.336 107.487 258.775 107.628 258.073 107.628ZM255.337 102.759C255.337 103.183 255.407 103.606 255.547 103.959C255.688 104.312 255.828 104.665 256.109 105.017C256.389 105.37 256.67 105.582 256.951 105.723C257.302 105.935 257.652 106.005 258.144 106.005C258.565 106.005 258.986 105.935 259.336 105.723C259.687 105.511 259.968 105.3 260.178 105.017C260.389 104.735 260.599 104.382 260.74 103.959C260.88 103.606 260.95 103.183 260.95 102.759C260.95 102.336 260.88 101.913 260.74 101.56C260.599 101.207 260.459 100.854 260.178 100.501C259.968 100.219 259.617 99.9369 259.336 99.7958C258.986 99.6547 258.635 99.5135 258.144 99.5135C257.723 99.5135 257.302 99.5841 256.951 99.7958C256.6 100.007 256.319 100.219 256.109 100.501C255.898 100.784 255.688 101.136 255.547 101.56C255.337 101.983 255.337 102.336 255.337 102.759Z" fill="#263238"/>
<path d="M264.178 107.557V97.9609H268.388C268.809 97.9609 269.23 98.0315 269.581 98.2432C269.931 98.4549 270.282 98.6666 270.563 98.9488C270.844 99.2311 271.054 99.5839 271.194 100.007C271.335 100.36 271.405 100.783 271.405 101.136C271.405 101.771 271.265 102.336 270.914 102.83C270.633 103.324 270.212 103.676 269.651 103.959L271.826 107.557H269.721L267.756 104.311H265.932V107.557H264.178ZM266.002 102.689H268.318C268.458 102.689 268.668 102.618 268.809 102.547C268.949 102.477 269.089 102.336 269.16 102.195C269.3 102.054 269.37 101.912 269.44 101.701C269.51 101.489 269.51 101.277 269.51 101.066C269.51 100.854 269.44 100.642 269.37 100.431C269.3 100.219 269.23 100.078 269.089 99.9367C268.949 99.7955 268.809 99.6544 268.668 99.5839C268.528 99.5133 268.318 99.4427 268.177 99.4427H265.932V102.689H266.002Z" fill="#263238"/>
</g>
<defs>
<clipPath id="clip0_913_92453">
<rect width="290" height="275" fill="white"/>
</clipPath>
</defs>
</svg>
