<svg width="60" height="60" viewBox="0 0 60 60" fill="none" xmlns="http://www.w3.org/2000/svg">
<g clip-path="url(#clip0_3720_16926)">
<path d="M57.8553 26.5585C57.5334 23.8772 56.8358 21.3171 55.8298 18.9322L56.9029 17.0459L54.5689 12.9767L52.3958 12.9632C50.8129 10.8478 48.9349 8.9749 46.8423 7.38496L46.8289 5.20216L42.7778 2.85768L40.8998 3.9356C38.5121 2.91157 35.9634 2.22439 33.3074 1.90102L32.2208 0.0146484H27.5527L26.4662 1.90102C23.7967 2.22439 21.2481 2.92505 18.8737 3.9356L16.9958 2.85768L12.9044 5.18869L12.891 7.37149C10.7984 8.9749 8.93384 10.8478 7.33755 12.9632L5.16446 12.9767L2.83039 17.0459L3.90352 18.9322C2.88405 21.3306 2.19992 23.8907 1.87798 26.5585L0 27.6499V32.3389L1.87798 33.4303C2.19992 36.1117 2.89746 38.6717 3.90352 41.0566L2.83039 42.943L5.16446 47.0122L7.33755 47.0256C8.92043 49.1411 10.7984 51.014 12.891 52.6039L12.9044 54.7867L16.9555 57.1312L18.8335 56.0533C21.2212 57.0773 23.7699 57.7645 26.4259 58.0878L27.5125 59.9742H32.1806L33.2671 58.0878C35.9366 57.7645 38.4853 57.0638 40.8596 56.0533L42.7376 57.1312L46.7886 54.7867L46.802 52.6039C48.9081 51.014 50.7726 49.1276 52.3555 47.0256L54.5286 47.0122L56.8627 42.943L55.7895 41.0566C56.809 38.6583 57.4931 36.0982 57.8151 33.4303L59.6931 32.3389V27.6499L57.8553 26.5585ZM29.8599 48.4C19.7457 48.4 11.5496 40.1673 11.5496 30.0079C11.5496 19.8485 19.7457 11.6023 29.8599 11.6023C39.9742 11.6023 48.1703 19.835 48.1703 29.9944C48.1703 40.1539 39.9742 48.4 29.8599 48.4Z" fill="#B3B3B3"/>
<path d="M20.0005 25.4793H15.1982V21.208H29.216V25.4793H24.4138V38.7917H19.9871V25.4793H20.0005Z" fill="#D1D3D4"/>
<path d="M31.5234 21.208H37.6939C43.4083 21.208 46.7081 24.8325 46.7081 29.9526C46.7081 35.0323 43.3546 38.8051 37.6 38.8051H31.5234V21.208ZM37.761 34.4664C40.4035 34.4664 42.1742 32.863 42.1742 29.9661C42.1742 27.15 40.417 25.4658 37.761 25.4658H35.9501V34.4664H37.761Z" fill="#D1D3D4"/>
<path d="M29.8601 3.78613C15.4533 3.78613 3.76953 15.522 3.76953 29.9932C3.76953 44.4643 15.4533 56.2002 29.8601 56.2002C44.2669 56.2002 55.9507 44.4643 55.9507 29.9932C55.9507 15.522 44.2803 3.78613 29.8601 3.78613ZM29.8601 48.3987C19.7458 48.3987 11.5498 40.1661 11.5498 30.0067C11.5498 19.8472 19.7458 11.6011 29.8601 11.6011C39.9744 11.6011 48.1705 19.8337 48.1705 29.9932C48.1705 40.1526 39.9744 48.3987 29.8601 48.3987Z" fill="white"/>
<path d="M29.8601 3.78613C15.4533 3.78613 3.76953 15.522 3.76953 29.9932C3.76953 44.4643 15.4533 56.2002 29.8601 56.2002C44.2669 56.2002 55.9507 44.4643 55.9507 29.9932C55.9507 15.522 44.2803 3.78613 29.8601 3.78613ZM47.6741 47.8867C42.9121 52.67 36.594 55.2975 29.8601 55.2975C23.1262 55.2975 16.8081 52.67 12.0461 47.8867C7.28405 43.1034 4.66828 36.7572 4.66828 29.9932C4.66828 23.2292 7.28405 16.8829 12.0461 12.0996C16.8081 7.31634 23.1262 4.68889 29.8601 4.68889C36.594 4.68889 42.9121 7.31634 47.6741 12.0996C52.4362 16.8829 55.0519 23.2292 55.0519 29.9932C55.0519 36.7572 52.4362 43.1169 47.6741 47.8867Z" fill="#D4D4D4"/>
<path d="M43.4481 16.3575C39.8128 12.7195 34.9971 10.7119 29.8595 10.7119C24.7219 10.7119 19.9062 12.7195 16.2709 16.3575C12.6491 19.9955 10.6504 24.8462 10.6504 30.0067C10.6504 35.1673 12.6491 40.0045 16.2709 43.6559C19.9062 47.2939 24.7219 49.3015 29.8595 49.3015C34.9971 49.3015 39.8128 47.2939 43.4481 43.6559C47.0699 40.0045 49.0686 35.1673 49.0686 30.0067C49.082 24.8462 47.0833 19.9955 43.4481 16.3575ZM29.8595 48.3988C19.7452 48.3988 11.5491 40.1662 11.5491 30.0067C11.5491 19.8473 19.7452 11.6012 29.8595 11.6012C39.9738 11.6012 48.1699 19.8338 48.1699 29.9933C48.1699 40.1527 39.9738 48.3988 29.8595 48.3988Z" fill="url(#paint0_linear_3720_16926)"/>
<path d="M13.6026 45.1647C12.9319 45.7037 11.9527 45.5959 11.3625 44.8683C10.7857 44.1407 10.893 43.1706 11.5771 42.6181C12.2478 42.0792 13.227 42.187 13.8173 42.9146C14.3941 43.6422 14.2733 44.6123 13.6026 45.1647ZM12.1003 43.2918C11.7649 43.5613 11.6576 44.0464 11.9527 44.4102C12.2344 44.7605 12.7173 44.774 13.0661 44.491C13.4014 44.2215 13.5087 43.7365 13.2136 43.3727C12.9319 43.0223 12.449 43.0089 12.1003 43.2918Z" fill="#2B3990"/>
<path d="M10.3964 42.228L9.98055 41.5138L10.383 41.2713C10.0476 41.3117 9.75251 41.2309 9.57812 40.894L10.3159 40.4629L10.3561 40.5168C10.5708 40.8806 10.9061 40.9749 11.3622 40.6919L11.9793 40.3281L12.3951 41.0423L10.3964 42.228Z" fill="#2B3990"/>
<path d="M8.49109 40.4488L8.12891 39.6808L8.67889 39.4248L9.04108 40.1928L8.49109 40.4488ZM9.21546 40.085L8.86669 39.344L10.9727 38.3604L11.3215 39.1014L9.21546 40.085Z" fill="#2B3990"/>
<path d="M11.0539 37.5122L10.4637 37.4314C10.5174 37.1484 10.5174 36.8924 10.4235 36.5825C10.3028 36.1917 10.0479 36.057 9.6857 36.1783L9.60521 36.2052C9.83325 36.2995 10.0479 36.4612 10.1552 36.7846C10.3296 37.3236 10.0881 37.903 9.44424 38.1051C8.81378 38.3207 8.2638 37.9973 8.10282 37.4853C7.99551 37.1484 8.06258 36.9059 8.18331 36.6903L7.91503 36.7846L7.66016 36.0031L9.33693 35.4507C9.73936 35.3159 10.0479 35.3159 10.3162 35.4507C10.5844 35.5854 10.7991 35.8549 10.9466 36.3265C11.0808 36.7577 11.121 37.1484 11.0539 37.5122ZM8.89426 36.4477C8.65281 36.5286 8.53208 36.7711 8.61256 37.0406C8.69305 37.3101 8.94792 37.4314 9.20279 37.3505C9.44424 37.2697 9.56497 37.0271 9.48449 36.7577C9.39059 36.4882 9.14913 36.3669 8.89426 36.4477Z" fill="#2B3990"/>
<path d="M6.64046 35.1264L6.47949 34.2909L7.06972 34.1697L7.23069 35.0051L6.64046 35.1264ZM7.44531 34.9512L7.28434 34.1427L9.56476 33.6846L9.72572 34.4931L7.44531 34.9512Z" fill="#2B3990"/>
<path d="M7.0833 33.0923L7.01623 32.2704L7.33817 32.2434C7.13696 32.1087 6.93574 31.9066 6.90892 31.5832C6.86867 31.0847 7.16379 30.7613 7.70035 30.7209L9.21615 30.5996L9.28322 31.4215L8.02229 31.5293C7.76742 31.5563 7.64669 31.691 7.66011 31.8931C7.67352 32.0952 7.82108 32.23 8.07595 32.203L9.33688 32.0952L9.40395 32.9172L7.0833 33.0923Z" fill="#2B3990"/>
<path d="M8.53165 29.9122C8.04874 29.8852 7.8207 29.508 7.86094 28.9555C7.87435 28.7399 7.92801 28.5378 7.98167 28.4031H7.94142C7.69997 28.3896 7.55241 28.5378 7.539 28.8477C7.52558 29.0903 7.56583 29.2789 7.6329 29.4945L7.04267 29.6292C6.94877 29.3597 6.89512 29.0768 6.92195 28.6726C6.94877 28.2549 7.05609 27.9719 7.2573 27.7968C7.4451 27.6351 7.68655 27.5677 8.00849 27.5946L9.3365 27.6755L9.28284 28.4839L9.04139 28.4705C9.20236 28.6456 9.30967 28.8612 9.29626 29.1711C9.26943 29.6158 9.00114 29.9391 8.53165 29.9122ZM8.45116 28.4166H8.34385C8.30361 28.4974 8.27678 28.6052 8.26336 28.7265C8.24995 28.969 8.35726 29.1037 8.53165 29.1172C8.69262 29.1307 8.78652 29.0094 8.79993 28.8477C8.81334 28.6187 8.6792 28.43 8.45116 28.4166Z" fill="#2B3990"/>
<path d="M6.37207 26.3685L6.50621 25.5601L9.59147 26.0856L9.45733 26.894L6.37207 26.3685Z" fill="#2B3990"/>
<path d="M7.7002 21.6528L7.99531 20.8982L11.2818 20.8174L10.9598 21.6528H10.383L9.95377 22.7307L10.3696 23.1349L10.0477 23.9568L7.7002 21.6528ZM9.68548 21.6393H8.77332L9.44403 22.2726L9.68548 21.6393Z" fill="#2B3990"/>
<path d="M10.8529 19.9819L9.55176 19.2004L9.9676 18.4997L11.0541 19.1465C11.2688 19.2812 11.4566 19.2273 11.5639 19.0656C11.6578 18.904 11.6175 18.7019 11.4029 18.5671L10.3164 17.9204L10.7322 17.2197L12.7309 18.4189L12.3151 19.1195L12.0468 18.9579C12.1407 19.1869 12.1809 19.4564 12.0066 19.7528C11.7383 20.1705 11.309 20.2514 10.8529 19.9819Z" fill="#2B3990"/>
<path d="M12.7041 17.2198L11.9663 16.6404L11.7919 16.856L11.2687 16.4518L11.4431 16.2362L10.9736 15.8723L11.4834 15.2256L11.9529 15.5894L12.2882 15.1582L12.8114 15.5624L12.476 15.9936L13.0931 16.4787C13.2272 16.5865 13.3211 16.5595 13.415 16.4518C13.4821 16.3709 13.5223 16.2631 13.5492 16.1553L14.0589 16.5461C14.0321 16.7078 13.9516 16.8964 13.8174 17.0716C13.4955 17.4623 13.1467 17.5701 12.7041 17.2198Z" fill="#2B3990"/>
<path d="M13.6293 15.3466C13.1598 14.875 13.1598 14.0935 13.6964 13.568C14.2195 13.0425 14.9842 13.056 15.4671 13.5276C15.9366 13.9992 15.9366 14.7807 15.4 15.3062C14.8634 15.8317 14.0988 15.8182 13.6293 15.3466ZM14.8903 14.0935C14.689 13.8914 14.3805 13.8644 14.1659 14.0666C13.9513 14.2821 13.9915 14.5786 14.1927 14.7807C14.3939 14.9828 14.7025 15.0097 14.9171 14.8076C15.1183 14.6055 15.0915 14.2956 14.8903 14.0935Z" fill="#2B3990"/>
<path d="M15.4268 11.9783L16.0975 11.5201L16.2719 11.7896C16.2853 11.5471 16.3658 11.2776 16.634 11.089C16.8889 10.9138 17.1572 10.9003 17.3986 11.0216C17.4389 10.7117 17.5462 10.4557 17.8279 10.2671C18.2303 9.9841 18.6596 10.0784 18.9681 10.5231L19.8266 11.7896L19.1559 12.2477L18.4449 11.1968C18.2974 10.9812 18.123 10.9408 17.962 11.0486C17.8011 11.1563 17.7608 11.345 17.9084 11.5606L18.6193 12.6115L17.9486 13.0697L17.2377 12.0187C17.0901 11.8031 16.9157 11.7627 16.7548 11.8839C16.5938 11.9917 16.5535 12.1804 16.7011 12.396L17.4121 13.4469L16.7413 13.9051L15.4268 11.9783Z" fill="#2B3990"/>
<path d="M20.1216 10.9276C19.9204 10.4829 20.1619 10.1056 20.6582 9.89005C20.8594 9.79573 21.0606 9.75531 21.2082 9.74183L21.1948 9.70141C21.1009 9.48582 20.8997 9.41845 20.618 9.53972C20.3899 9.63404 20.2424 9.75531 20.0814 9.91699L19.6924 9.45888C19.8936 9.25676 20.1082 9.06813 20.4838 8.90644C20.8594 8.73128 21.1679 8.70433 21.4094 8.79865C21.6374 8.87949 21.7984 9.0816 21.9326 9.37803L22.4825 10.6042L21.7448 10.941L21.6509 10.7254C21.5838 10.9545 21.4228 11.1431 21.1411 11.2779C20.7253 11.453 20.3094 11.3587 20.1216 10.9276ZM21.396 10.173L21.3557 10.0787C21.2618 10.0787 21.1545 10.1056 21.0472 10.1595C20.8326 10.2538 20.7521 10.4155 20.8326 10.5907C20.8997 10.7389 21.0472 10.7793 21.1948 10.712C21.4094 10.5907 21.5033 10.3751 21.396 10.173Z" fill="#2B3990"/>
<path d="M23.113 9.63355L22.8448 8.73079L22.5765 8.81163L22.3887 8.17835L22.657 8.09751L22.4826 7.5316L23.2606 7.28906L23.435 7.85497L23.9581 7.69328L24.1459 8.32657L23.6228 8.48825L23.8508 9.2428C23.9045 9.40449 23.985 9.44491 24.1325 9.40449C24.2398 9.37754 24.3203 9.31017 24.4008 9.2428L24.5886 9.86261C24.4679 9.98387 24.3069 10.0917 24.0789 10.159C23.6228 10.2938 23.274 10.1725 23.113 9.63355Z" fill="#2B3990"/>
<path d="M24.6963 6.68297L25.528 6.50781L25.6487 7.10067L24.817 7.27583L24.6963 6.68297ZM24.8707 7.47794L25.6755 7.31625L26.1316 9.60683L25.3268 9.76852L24.8707 7.47794Z" fill="#2B3990"/>
<path d="M26.7349 8.31334C26.6678 7.6531 27.1373 7.06024 27.8617 6.9794C28.3312 6.93897 28.6665 7.11414 28.8946 7.41057L28.3848 7.85522C28.2641 7.707 28.1165 7.6531 27.9422 7.66658C27.647 7.69353 27.4861 7.94954 27.5129 8.23249C27.5397 8.52892 27.7544 8.74451 28.0226 8.71756C28.2104 8.70409 28.3177 8.59629 28.4385 8.4346L29.0287 8.78493C28.8409 9.12179 28.5592 9.36432 28.0495 9.41822C27.3519 9.47211 26.7885 8.97357 26.7349 8.31334Z" fill="#2B3990"/>
<path d="M32.3147 7.1142L31.416 7.00641L31.5099 6.27881L34.1256 6.60219L34.0317 7.32979L33.133 7.22199L32.8647 9.48564L32.0331 9.37784L32.3147 7.1142Z" fill="#2B3990"/>
<path d="M34.8239 7.46484L35.6153 7.66695L35.4946 8.12507C35.6958 7.84212 35.9641 7.6939 36.3263 7.81517L36.1116 8.65056L36.0446 8.63709C35.6287 8.52929 35.3336 8.71793 35.2129 9.22995L35.0385 9.9306L34.2471 9.72849L34.8239 7.46484Z" fill="#2B3990"/>
<path d="M36.3931 9.57963C36.5674 9.13499 36.9967 9.02719 37.5064 9.21583C37.7076 9.29668 37.882 9.40447 37.9893 9.49879L38.0028 9.45836C38.0832 9.2293 38.0028 9.05414 37.7076 8.93288C37.4796 8.83856 37.2918 8.82508 37.0638 8.82508L37.1174 8.21875C37.3991 8.21875 37.6808 8.2457 38.0564 8.39391C38.4454 8.54213 38.6735 8.74424 38.7808 8.9733C38.8881 9.20236 38.8613 9.44489 38.7539 9.75479L38.271 11.0079L37.5198 10.7115L37.6003 10.4824C37.3857 10.5902 37.1442 10.6171 36.8626 10.5093C36.4467 10.3881 36.2187 10.0243 36.3931 9.57963ZM37.8284 9.9569L37.8686 9.86259C37.8015 9.79522 37.7076 9.74132 37.5869 9.68742C37.3723 9.60658 37.1979 9.66048 37.1308 9.83564C37.0772 9.98385 37.1577 10.1186 37.3052 10.1725C37.5333 10.2533 37.7479 10.1725 37.8284 9.9569Z" fill="#2B3990"/>
<path d="M40.0816 9.31055L40.7926 9.71477L40.6316 9.99772C40.8596 9.90341 41.1413 9.84951 41.423 10.0112C41.8523 10.2537 41.9462 10.6849 41.6913 11.143L40.9535 12.477L40.2426 12.0727L40.8596 10.9679C40.9804 10.7523 40.9401 10.5636 40.7657 10.4693C40.5914 10.375 40.4036 10.4154 40.2694 10.6445L39.6524 11.7494L38.9414 11.3451L40.0816 9.31055Z" fill="#2B3990"/>
<path d="M41.6113 12.5713L42.1479 12.3558C42.2552 12.6522 42.4296 12.9082 42.6308 13.0564C42.7381 13.1373 42.8186 13.1507 42.8723 13.0699C42.9259 13.0025 42.8454 12.8812 42.6979 12.6791C42.4028 12.3019 42.2015 11.965 42.4967 11.5743C42.7918 11.1835 43.2747 11.197 43.7039 11.5204C43.9722 11.7225 44.2003 12.0189 44.3076 12.3153L43.771 12.5579C43.6637 12.3019 43.5027 12.0863 43.3552 11.965C43.2613 11.8842 43.1808 11.8842 43.1271 11.9515C43.0735 12.0189 43.154 12.1402 43.3015 12.3423C43.5832 12.733 43.7844 13.0699 43.5161 13.4472C43.2076 13.8514 42.7381 13.8379 42.2954 13.501C41.9735 13.272 41.7321 12.9486 41.6113 12.5713Z" fill="#2B3990"/>
<path d="M45.2869 12.8271L45.8502 13.42L45.6222 13.6356C45.8637 13.6086 46.1454 13.6491 46.36 13.8916C46.5746 14.1206 46.6283 14.3901 46.5478 14.6461C46.8563 14.6327 47.1246 14.7 47.3526 14.956C47.688 15.3198 47.6746 15.751 47.2721 16.1283L46.1588 17.1792L45.5954 16.5864L46.521 15.7106C46.7088 15.5354 46.7222 15.3468 46.588 15.212C46.4539 15.0773 46.2661 15.0638 46.0783 15.239L45.1527 16.1148L44.5893 15.5219L45.5149 14.6461C45.7027 14.471 45.7161 14.2823 45.582 14.1476C45.4478 14.0129 45.26 13.9994 45.0722 14.1745L44.1467 15.0504L43.5967 14.4171L45.2869 12.8271Z" fill="#2B3990"/>
<path d="M48.479 16.4919L48.9485 17.1656L47.0437 18.4995L46.5742 17.8258L48.479 16.4919ZM49.1363 16.0068L49.6192 16.7075L49.1229 17.0578L48.64 16.3572L49.1363 16.0068Z" fill="#2B3990"/>
<path d="M47.6606 18.8767L48.2374 18.9036C48.2106 19.227 48.2776 19.5234 48.3983 19.739C48.4654 19.8603 48.5325 19.9007 48.613 19.8603C48.6935 19.8199 48.6666 19.6851 48.5996 19.4291C48.4788 18.971 48.4386 18.5668 48.8544 18.3377C49.2837 18.0952 49.7129 18.3108 49.9812 18.7824C50.1422 19.0788 50.2361 19.4426 50.2093 19.7525H49.619C49.619 19.483 49.5654 19.2001 49.4715 19.0384C49.4044 18.9306 49.3373 18.8902 49.2703 18.9306C49.1898 18.971 49.2166 19.1057 49.2703 19.3618C49.3776 19.8333 49.4178 20.2241 49.0154 20.4532C48.5727 20.6957 48.1435 20.4936 47.8752 19.995C47.7008 19.6717 47.6069 19.2809 47.6606 18.8767Z" fill="#2B3990"/>
<path d="M48.8679 21.1272L49.4447 21.2215C49.3776 21.5314 49.4045 21.8413 49.4984 22.0703C49.552 22.2051 49.6191 22.2455 49.6996 22.2186C49.7801 22.1781 49.7801 22.0434 49.7398 21.8009C49.6862 21.3293 49.6862 20.925 50.1288 20.7499C50.5849 20.5612 50.9874 20.8307 51.1886 21.3293C51.3093 21.6392 51.363 22.0164 51.2959 22.3263L50.7191 22.259C50.7459 21.9895 50.7325 21.7065 50.6654 21.5448C50.6252 21.4236 50.5447 21.3832 50.4776 21.4101C50.3971 21.4505 50.4105 21.5853 50.424 21.8413C50.4776 22.3129 50.4642 22.7171 50.0349 22.8923C49.5654 23.0809 49.1764 22.8249 48.9618 22.2994C48.8142 21.9086 48.774 21.5179 48.8679 21.1272Z" fill="#2B3990"/>
<path d="M51.8058 23.1751L52.0339 23.9566L49.8071 24.6034L49.5791 23.8219L51.8058 23.1751ZM52.5704 22.9326L52.8119 23.7545L52.2351 23.9162L51.9936 23.0943L52.5704 22.9326Z" fill="#2B3990"/>
<path d="M51.1488 25.102C51.8061 24.9942 52.4365 25.4388 52.5572 26.1799C52.678 26.921 52.2353 27.5408 51.5646 27.6486C50.9073 27.7563 50.2769 27.3117 50.1561 26.5706C50.0354 25.8296 50.4915 25.2098 51.1488 25.102ZM51.4439 26.8536C51.7256 26.8132 51.9268 26.5572 51.8731 26.2742C51.8195 25.9778 51.5646 25.8296 51.2829 25.8835C51.0012 25.9239 50.8 26.1799 50.8537 26.4628C50.8939 26.7593 51.1488 26.9075 51.4439 26.8536Z" fill="#2B3990"/>
<path d="M52.7982 28.4707L52.8116 29.2926H52.4897C52.6909 29.4408 52.8787 29.6564 52.8787 29.9798C52.8921 30.4783 52.5701 30.7748 52.0336 30.7882L50.5178 30.8152L50.5044 29.9933L51.7653 29.9663C52.0202 29.9663 52.1543 29.8316 52.1543 29.6295C52.1543 29.4274 52.0068 29.2926 51.7519 29.2926L50.491 29.3196L50.4775 28.4977L52.7982 28.4707Z" fill="#2B3990"/>
<path d="M53.228 33.8063L52.9597 35.0729C52.7988 35.8139 52.3159 36.2181 51.6586 36.0834C50.961 35.9352 50.7196 35.3154 50.8671 34.5878L50.9476 34.1836L50.1025 34.0084L50.2769 33.1865L53.228 33.8063ZM51.511 34.6956C51.444 34.992 51.5647 35.1941 51.8061 35.248C52.061 35.3019 52.2354 35.1537 52.289 34.8573L52.3695 34.4665L51.5915 34.3048L51.511 34.6956Z" fill="#2B3990"/>
<path d="M50.25 36.3396C50.7061 36.5013 50.8134 36.9325 50.6122 37.458C50.5317 37.6601 50.4244 37.8487 50.3305 37.9565L50.3708 37.97C50.5988 38.0508 50.7732 37.9565 50.8805 37.6601C50.961 37.431 50.9878 37.2289 50.9878 37.0133L51.5914 37.0537C51.6049 37.3367 51.578 37.6331 51.4305 37.9969C51.2829 38.3877 51.0951 38.6167 50.8537 38.7245C50.6256 38.8323 50.3842 38.8188 50.0756 38.6976L48.8281 38.226L49.1098 37.4714L49.3379 37.5523C49.2305 37.3367 49.1903 37.0942 49.2976 36.8112C49.4586 36.3935 49.8074 36.1644 50.25 36.3396ZM49.9013 37.7813L50.0086 37.8218C50.0756 37.7544 50.1293 37.6601 50.1695 37.5388C50.25 37.3097 50.1964 37.1481 50.022 37.0807C49.8744 37.0268 49.7403 37.1076 49.6866 37.2693C49.5927 37.4984 49.6732 37.7005 49.9013 37.7813Z" fill="#2B3990"/>
<path d="M50.5583 40.0045L50.1827 40.7321L49.7669 40.5166C49.9815 40.786 50.0754 41.069 49.8742 41.4059L49.1096 41.0016L49.1364 40.9343C49.3376 40.557 49.2303 40.2336 48.7474 39.9776L48.1035 39.6407L48.4791 38.9131L50.5583 40.0045Z" fill="#2B3990"/>
<path d="M47.9694 41.379L48.7608 41.9045L48.9084 41.6754L49.4584 42.0392L49.3108 42.2683L49.8071 42.5917L49.3511 43.2788L48.8547 42.9555L48.5596 43.4136L48.0096 43.0498L48.3048 42.5917L47.6475 42.1605C47.5133 42.0662 47.4194 42.0931 47.3255 42.2144C47.2719 42.3087 47.2316 42.403 47.2182 42.5108L46.6816 42.1605C46.6951 41.9988 46.7621 41.7967 46.8829 41.608C47.178 41.1903 47.5133 41.0691 47.9694 41.379Z" fill="#2B3990"/>
<path d="M46.548 42.7261L46.7224 43.2785C46.4139 43.3728 46.159 43.5345 45.998 43.7231C45.9041 43.8309 45.9041 43.9118 45.9712 43.9657C46.0383 44.0196 46.159 43.9522 46.3602 43.804C46.7492 43.5345 47.098 43.3459 47.4602 43.6558C47.8358 43.9792 47.7955 44.4507 47.4468 44.8684C47.2321 45.1244 46.9236 45.34 46.6285 45.4343L46.4139 44.8819C46.6687 44.7876 46.8968 44.6394 47.0175 44.4912C47.098 44.3969 47.098 44.316 47.0443 44.2621C46.9773 44.2082 46.8565 44.2756 46.6419 44.4238C46.2395 44.6933 45.8907 44.8684 45.5419 44.572C45.1529 44.2352 45.1932 43.777 45.5554 43.3459C45.8236 43.0495 46.159 42.8204 46.548 42.7261Z" fill="#2B3990"/>
<path d="M18.3772 47.6713L17.6126 47.1862L18.0016 46.5664L20.2418 47.9677L19.8528 48.5875L19.0882 48.1025L17.8809 50.0427L17.1699 49.5981L18.3772 47.6713Z" fill="#EF4323"/>
<path d="M20.175 48.6816L20.9128 49.032L20.7116 49.4497C20.9664 49.2206 21.2481 49.1263 21.5969 49.3149L21.2213 50.0964L21.1542 50.0695C20.7652 49.8808 20.4433 50.0021 20.2153 50.4872L19.9067 51.1474L19.1689 50.7971L20.175 48.6816Z" fill="#EF4323"/>
<path d="M21.2339 51.0264C21.3949 50.5683 21.8241 50.4605 22.3338 50.6356C22.5351 50.703 22.7229 50.8243 22.8302 50.9051L22.8436 50.8647C22.9241 50.6356 22.8302 50.4605 22.5351 50.3527C22.307 50.2718 22.1058 50.2584 21.8912 50.2584L21.918 49.652C22.1997 49.6386 22.4948 49.6655 22.8704 49.8002C23.2594 49.935 23.5009 50.1236 23.6082 50.3662C23.7155 50.5817 23.7021 50.8378 23.5948 51.1477L23.1521 52.4142L22.3875 52.1447L22.468 51.9157C22.2534 52.0235 22.0119 52.0639 21.7302 51.9696C21.3144 51.8348 21.0729 51.471 21.2339 51.0264ZM22.6826 51.3632L22.7229 51.2554C22.6558 51.2016 22.5619 51.1342 22.4412 51.0938C22.2131 51.0129 22.0521 51.0803 21.9851 51.2554C21.9314 51.4037 22.0119 51.5384 22.1729 51.5923C22.4009 51.6731 22.6155 51.5788 22.6826 51.3632Z" fill="#EF4323"/>
<path d="M24.4802 50.3794L25.2851 50.5411L25.218 50.8645C25.4058 50.7028 25.6473 50.568 25.9826 50.6354C26.4655 50.7297 26.6936 51.1205 26.5863 51.6325L26.2777 53.1281L25.4729 52.9664L25.7278 51.7268C25.7814 51.4708 25.6741 51.3091 25.4863 51.2822C25.2985 51.2417 25.1241 51.3495 25.0705 51.5921L24.8156 52.8317L24.0107 52.67L24.4802 50.3794Z" fill="#EF4323"/>
<path d="M26.9756 52.9395L27.3244 52.4679C27.5792 52.67 27.8609 52.7778 28.1024 52.7913C28.2499 52.8048 28.317 52.7644 28.317 52.67C28.3304 52.5757 28.1963 52.5218 27.9548 52.441C27.5122 52.2793 27.15 52.1041 27.1902 51.6191C27.2305 51.1205 27.6463 50.878 28.1829 50.9184C28.5182 50.9454 28.867 51.0666 29.1219 51.2687L28.7999 51.7673C28.5719 51.6191 28.317 51.5113 28.1292 51.4978C28.0085 51.4843 27.9414 51.5247 27.928 51.6056C27.9146 51.6999 28.0487 51.7538 28.2902 51.8481C28.7328 52.0233 29.095 52.1984 29.0548 52.6566C29.0145 53.1686 28.6121 53.4111 28.0487 53.3572C27.6597 53.3303 27.2841 53.1955 26.9756 52.9395Z" fill="#EF4323"/>
<path d="M29.6719 50.4066L30.8255 50.3392C31.8986 50.2718 32.5559 50.8647 32.6096 51.7405C32.6632 52.6163 32.0596 53.29 30.9865 53.3574L29.8463 53.4247L29.6719 50.4066ZM30.973 52.6163C31.4694 52.5893 31.7913 52.2929 31.7511 51.7944C31.7242 51.3093 31.3755 51.0398 30.8792 51.0668L30.5438 51.0803L30.6377 52.6163H30.973Z" fill="#EF4323"/>
<path d="M33.2406 51.9968C33.1064 51.3231 33.4686 50.7033 34.1393 50.5551C34.9308 50.3934 35.4137 50.8919 35.5479 51.5656C35.5613 51.6195 35.5747 51.6734 35.5747 51.7273L34.0588 52.0507C34.1796 52.2932 34.3808 52.3741 34.6223 52.3202C34.8101 52.2797 34.9442 52.1719 35.0784 51.9833L35.6015 52.2528C35.4405 52.5762 35.1588 52.8322 34.7027 52.9265C33.9918 53.0882 33.3881 52.7109 33.2406 51.9968ZM34.743 51.4848C34.6625 51.2422 34.4747 51.1075 34.2601 51.1479C34.0454 51.1883 33.9381 51.3905 33.9515 51.6465L34.743 51.4848Z" fill="#EF4323"/>
<path d="M36.4192 51.7002L36.1241 50.7975L35.8692 50.8783L35.668 50.245L35.9228 50.1642L35.735 49.5983L36.5131 49.3423L36.7009 49.9082L37.2106 49.733L37.4118 50.3663L36.9021 50.5415L37.1435 51.296C37.1972 51.4577 37.2911 51.4981 37.4252 51.4442C37.5325 51.4038 37.613 51.3499 37.6935 51.2691L37.8947 51.8754C37.7874 51.9967 37.613 52.1045 37.3984 52.1853C36.9423 52.3335 36.5936 52.2257 36.4192 51.7002Z" fill="#EF4323"/>
<path d="M38.2838 51.1205C38.0825 50.6758 38.3106 50.2986 38.8069 50.0695C39.0081 49.9752 39.2094 49.9348 39.3569 49.9213L39.3435 49.8809C39.2362 49.6653 39.0484 49.5979 38.7667 49.7327C38.5386 49.8405 38.3911 49.9617 38.2435 50.1234L37.8545 49.6653C38.0423 49.4632 38.2703 49.2745 38.6325 49.0994C39.0081 48.9242 39.3033 48.8973 39.5581 48.9781C39.7862 49.059 39.9606 49.2476 40.0947 49.544L40.6581 50.7567L39.9203 51.0935L39.813 50.878C39.7459 51.107 39.5984 51.3091 39.3167 51.4304C38.8874 51.6325 38.4716 51.5517 38.2838 51.1205ZM39.5447 50.339L39.5045 50.2447C39.4106 50.2447 39.3033 50.2716 39.1959 50.3255C38.9813 50.4198 38.9008 50.595 38.9813 50.7567C39.0484 50.9049 39.1959 50.9319 39.3435 50.8645C39.5581 50.7567 39.652 50.5546 39.5447 50.339Z" fill="#EF4323"/>
<path d="M39.7324 47.6441L40.4702 47.2129L40.7787 47.7384L40.0409 48.1696L39.7324 47.6441ZM40.1617 48.3447L40.8592 47.927L42.0396 49.9347L41.3421 50.3524L40.1617 48.3447Z" fill="#EF4323"/>
<path d="M40.9531 46.9032L41.6238 46.4316L43.4079 49.0187L42.7372 49.4903L40.9531 46.9032Z" fill="#EF4323"/>
<path d="M20.564 38.2258V24.9134H15.7617V21.7739H28.6661V24.9134H23.8638V38.2258H20.564Z" fill="#EF4323"/>
<path d="M32.0869 38.2258V21.7739H37.694C40.2964 21.7739 42.4561 22.5689 43.945 24.0645C45.3938 25.5062 46.145 27.5543 46.145 29.9662C46.145 32.3645 45.3669 34.4126 43.9048 35.8947C42.389 37.4308 40.2025 38.2527 37.5867 38.2527H32.0869V38.2258ZM35.3868 35.0324H37.7477C40.8195 35.0324 42.7109 33.0921 42.7109 29.9662C42.7109 26.8941 40.7659 24.8999 37.7477 24.8999H35.3868V35.0324Z" fill="#EF4323"/>
</g>
<defs>
<linearGradient id="paint0_linear_3720_16926" x1="0.935652" y1="7.81632" x2="66.342" y2="57.5241" gradientUnits="userSpaceOnUse">
<stop stop-color="#D4D4D4"/>
<stop offset="1"/>
</linearGradient>
<clipPath id="clip0_3720_16926">
<rect width="59.7333" height="60" fill="white"/>
</clipPath>
</defs>
</svg>
