<svg width="202" height="60" viewBox="0 0 202 60" fill="none" xmlns="http://www.w3.org/2000/svg">
<g clip-path="url(#clip0_3436_17172)">
<g clip-path="url(#clip1_3436_17172)">
<path d="M57.8553 26.5585C57.5334 23.8772 56.8358 21.3171 55.8298 18.9322L56.9029 17.0459L54.5689 12.9767L52.3958 12.9632C50.8129 10.8478 48.9349 8.9749 46.8423 7.38496L46.8289 5.20216L42.7778 2.85768L40.8998 3.9356C38.5121 2.91157 35.9634 2.22439 33.3074 1.90102L32.2208 0.0146484H27.5527L26.4662 1.90102C23.7967 2.22439 21.2481 2.92505 18.8737 3.9356L16.9958 2.85768L12.9044 5.18869L12.891 7.37149C10.7984 8.9749 8.93384 10.8478 7.33755 12.9632L5.16446 12.9767L2.83039 17.0459L3.90352 18.9322C2.88405 21.3306 2.19992 23.8907 1.87798 26.5585L0 27.6499V32.3389L1.87798 33.4303C2.19992 36.1117 2.89746 38.6717 3.90352 41.0566L2.83039 42.943L5.16446 47.0122L7.33755 47.0256C8.92043 49.1411 10.7984 51.014 12.891 52.6039L12.9044 54.7867L16.9555 57.1312L18.8335 56.0533C21.2212 57.0773 23.7699 57.7645 26.4259 58.0878L27.5125 59.9742H32.1806L33.2671 58.0878C35.9366 57.7645 38.4853 57.0638 40.8596 56.0533L42.7376 57.1312L46.7886 54.7867L46.802 52.6039C48.9081 51.014 50.7726 49.1276 52.3555 47.0256L54.5286 47.0122L56.8627 42.943L55.7895 41.0566C56.809 38.6583 57.4931 36.0982 57.8151 33.4303L59.6931 32.3389V27.6499L57.8553 26.5585ZM29.8599 48.4C19.7457 48.4 11.5496 40.1673 11.5496 30.0079C11.5496 19.8485 19.7457 11.6023 29.8599 11.6023C39.9742 11.6023 48.1703 19.835 48.1703 29.9944C48.1703 40.1539 39.9742 48.4 29.8599 48.4Z" fill="#B3B3B3"/>
<path d="M20.0005 25.4793H15.1982V21.208H29.216V25.4793H24.4138V38.7917H19.9871V25.4793H20.0005Z" fill="#D1D3D4"/>
<path d="M31.5234 21.208H37.6939C43.4083 21.208 46.7081 24.8325 46.7081 29.9526C46.7081 35.0323 43.3546 38.8051 37.6 38.8051H31.5234V21.208ZM37.761 34.4664C40.4035 34.4664 42.1742 32.863 42.1742 29.9661C42.1742 27.15 40.417 25.4658 37.761 25.4658H35.9501V34.4664H37.761Z" fill="#D1D3D4"/>
<path d="M29.8601 3.78613C15.4533 3.78613 3.76953 15.522 3.76953 29.9932C3.76953 44.4643 15.4533 56.2002 29.8601 56.2002C44.2669 56.2002 55.9507 44.4643 55.9507 29.9932C55.9507 15.522 44.2803 3.78613 29.8601 3.78613ZM29.8601 48.3987C19.7458 48.3987 11.5498 40.1661 11.5498 30.0067C11.5498 19.8472 19.7458 11.6011 29.8601 11.6011C39.9744 11.6011 48.1705 19.8337 48.1705 29.9932C48.1705 40.1526 39.9744 48.3987 29.8601 48.3987Z" fill="white"/>
<path d="M29.8601 3.78613C15.4533 3.78613 3.76953 15.522 3.76953 29.9932C3.76953 44.4643 15.4533 56.2002 29.8601 56.2002C44.2669 56.2002 55.9507 44.4643 55.9507 29.9932C55.9507 15.522 44.2803 3.78613 29.8601 3.78613ZM47.6741 47.8867C42.9121 52.67 36.594 55.2975 29.8601 55.2975C23.1262 55.2975 16.8081 52.67 12.0461 47.8867C7.28405 43.1034 4.66828 36.7572 4.66828 29.9932C4.66828 23.2292 7.28405 16.8829 12.0461 12.0996C16.8081 7.31634 23.1262 4.68889 29.8601 4.68889C36.594 4.68889 42.9121 7.31634 47.6741 12.0996C52.4362 16.8829 55.0519 23.2292 55.0519 29.9932C55.0519 36.7572 52.4362 43.1169 47.6741 47.8867Z" fill="#D4D4D4"/>
<path d="M43.4481 16.3575C39.8128 12.7195 34.9971 10.7119 29.8595 10.7119C24.7219 10.7119 19.9062 12.7195 16.2709 16.3575C12.6491 19.9955 10.6504 24.8462 10.6504 30.0067C10.6504 35.1673 12.6491 40.0045 16.2709 43.6559C19.9062 47.2939 24.7219 49.3015 29.8595 49.3015C34.9971 49.3015 39.8128 47.2939 43.4481 43.6559C47.0699 40.0045 49.0686 35.1673 49.0686 30.0067C49.082 24.8462 47.0833 19.9955 43.4481 16.3575ZM29.8595 48.3988C19.7452 48.3988 11.5491 40.1662 11.5491 30.0067C11.5491 19.8473 19.7452 11.6012 29.8595 11.6012C39.9738 11.6012 48.1699 19.8338 48.1699 29.9933C48.1699 40.1527 39.9738 48.3988 29.8595 48.3988Z" fill="url(#paint0_linear_3436_17172)"/>
<path d="M13.6026 45.1647C12.9319 45.7037 11.9527 45.5959 11.3625 44.8683C10.7857 44.1407 10.893 43.1706 11.5771 42.6181C12.2478 42.0792 13.227 42.187 13.8173 42.9146C14.3941 43.6422 14.2733 44.6123 13.6026 45.1647ZM12.1003 43.2918C11.7649 43.5613 11.6576 44.0464 11.9527 44.4102C12.2344 44.7605 12.7173 44.774 13.0661 44.491C13.4014 44.2215 13.5087 43.7365 13.2136 43.3727C12.9319 43.0223 12.449 43.0089 12.1003 43.2918Z" fill="#2B3990"/>
<path d="M10.3964 42.228L9.98055 41.5138L10.383 41.2713C10.0476 41.3117 9.75251 41.2309 9.57812 40.894L10.3159 40.4629L10.3561 40.5168C10.5708 40.8806 10.9061 40.9749 11.3622 40.6919L11.9793 40.3281L12.3951 41.0423L10.3964 42.228Z" fill="#2B3990"/>
<path d="M8.49109 40.4488L8.12891 39.6808L8.67889 39.4248L9.04108 40.1928L8.49109 40.4488ZM9.21546 40.085L8.86669 39.344L10.9727 38.3604L11.3215 39.1014L9.21546 40.085Z" fill="#2B3990"/>
<path d="M11.0539 37.5122L10.4637 37.4314C10.5174 37.1484 10.5174 36.8924 10.4235 36.5825C10.3028 36.1917 10.0479 36.057 9.6857 36.1783L9.60521 36.2052C9.83325 36.2995 10.0479 36.4612 10.1552 36.7846C10.3296 37.3236 10.0881 37.903 9.44424 38.1051C8.81378 38.3207 8.2638 37.9973 8.10282 37.4853C7.99551 37.1484 8.06258 36.9059 8.18331 36.6903L7.91503 36.7846L7.66016 36.0031L9.33693 35.4507C9.73936 35.3159 10.0479 35.3159 10.3162 35.4507C10.5844 35.5854 10.7991 35.8549 10.9466 36.3265C11.0808 36.7577 11.121 37.1484 11.0539 37.5122ZM8.89426 36.4477C8.65281 36.5286 8.53208 36.7711 8.61256 37.0406C8.69305 37.3101 8.94792 37.4314 9.20279 37.3505C9.44424 37.2697 9.56497 37.0271 9.48449 36.7577C9.39059 36.4882 9.14913 36.3669 8.89426 36.4477Z" fill="#2B3990"/>
<path d="M6.64046 35.1264L6.47949 34.2909L7.06972 34.1697L7.23069 35.0051L6.64046 35.1264ZM7.44531 34.9512L7.28434 34.1427L9.56476 33.6846L9.72572 34.4931L7.44531 34.9512Z" fill="#2B3990"/>
<path d="M7.0833 33.0923L7.01623 32.2704L7.33817 32.2434C7.13696 32.1087 6.93574 31.9066 6.90892 31.5832C6.86867 31.0847 7.16379 30.7613 7.70035 30.7209L9.21615 30.5996L9.28322 31.4215L8.02229 31.5293C7.76742 31.5563 7.64669 31.691 7.66011 31.8931C7.67352 32.0952 7.82108 32.23 8.07595 32.203L9.33688 32.0952L9.40395 32.9172L7.0833 33.0923Z" fill="#2B3990"/>
<path d="M8.53165 29.9122C8.04874 29.8852 7.8207 29.508 7.86094 28.9555C7.87435 28.7399 7.92801 28.5378 7.98167 28.4031H7.94142C7.69997 28.3896 7.55241 28.5378 7.539 28.8477C7.52558 29.0903 7.56583 29.2789 7.6329 29.4945L7.04267 29.6292C6.94877 29.3597 6.89512 29.0768 6.92195 28.6726C6.94877 28.2549 7.05609 27.9719 7.2573 27.7968C7.4451 27.6351 7.68655 27.5677 8.00849 27.5946L9.3365 27.6755L9.28284 28.4839L9.04139 28.4705C9.20236 28.6456 9.30967 28.8612 9.29626 29.1711C9.26943 29.6158 9.00114 29.9391 8.53165 29.9122ZM8.45116 28.4166H8.34385C8.30361 28.4974 8.27678 28.6052 8.26336 28.7265C8.24995 28.969 8.35726 29.1037 8.53165 29.1172C8.69262 29.1307 8.78652 29.0094 8.79993 28.8477C8.81334 28.6187 8.6792 28.43 8.45116 28.4166Z" fill="#2B3990"/>
<path d="M6.37207 26.3685L6.50621 25.5601L9.59147 26.0856L9.45733 26.894L6.37207 26.3685Z" fill="#2B3990"/>
<path d="M7.7002 21.6528L7.99531 20.8982L11.2818 20.8174L10.9598 21.6528H10.383L9.95377 22.7307L10.3696 23.1349L10.0477 23.9568L7.7002 21.6528ZM9.68548 21.6393H8.77332L9.44403 22.2726L9.68548 21.6393Z" fill="#2B3990"/>
<path d="M10.8529 19.9819L9.55176 19.2004L9.9676 18.4997L11.0541 19.1465C11.2688 19.2812 11.4566 19.2273 11.5639 19.0656C11.6578 18.904 11.6175 18.7019 11.4029 18.5671L10.3164 17.9204L10.7322 17.2197L12.7309 18.4189L12.3151 19.1195L12.0468 18.9579C12.1407 19.1869 12.1809 19.4564 12.0066 19.7528C11.7383 20.1705 11.309 20.2514 10.8529 19.9819Z" fill="#2B3990"/>
<path d="M12.7041 17.2198L11.9663 16.6404L11.7919 16.856L11.2687 16.4518L11.4431 16.2362L10.9736 15.8723L11.4834 15.2256L11.9529 15.5894L12.2882 15.1582L12.8114 15.5624L12.476 15.9936L13.0931 16.4787C13.2272 16.5865 13.3211 16.5595 13.415 16.4518C13.4821 16.3709 13.5223 16.2631 13.5492 16.1553L14.0589 16.5461C14.0321 16.7078 13.9516 16.8964 13.8174 17.0716C13.4955 17.4623 13.1467 17.5701 12.7041 17.2198Z" fill="#2B3990"/>
<path d="M13.6293 15.3466C13.1598 14.875 13.1598 14.0935 13.6964 13.568C14.2195 13.0425 14.9842 13.056 15.4671 13.5276C15.9366 13.9992 15.9366 14.7807 15.4 15.3062C14.8634 15.8317 14.0988 15.8182 13.6293 15.3466ZM14.8903 14.0935C14.689 13.8914 14.3805 13.8644 14.1659 14.0666C13.9513 14.2821 13.9915 14.5786 14.1927 14.7807C14.3939 14.9828 14.7025 15.0097 14.9171 14.8076C15.1183 14.6055 15.0915 14.2956 14.8903 14.0935Z" fill="#2B3990"/>
<path d="M15.4268 11.9783L16.0975 11.5201L16.2719 11.7896C16.2853 11.5471 16.3658 11.2776 16.634 11.089C16.8889 10.9138 17.1572 10.9003 17.3986 11.0216C17.4389 10.7117 17.5462 10.4557 17.8279 10.2671C18.2303 9.9841 18.6596 10.0784 18.9681 10.5231L19.8266 11.7896L19.1559 12.2477L18.4449 11.1968C18.2974 10.9812 18.123 10.9408 17.962 11.0486C17.8011 11.1563 17.7608 11.345 17.9084 11.5606L18.6193 12.6115L17.9486 13.0697L17.2377 12.0187C17.0901 11.8031 16.9157 11.7627 16.7548 11.8839C16.5938 11.9917 16.5535 12.1804 16.7011 12.396L17.4121 13.4469L16.7413 13.9051L15.4268 11.9783Z" fill="#2B3990"/>
<path d="M20.1216 10.9276C19.9204 10.4829 20.1619 10.1056 20.6582 9.89005C20.8594 9.79573 21.0606 9.75531 21.2082 9.74183L21.1948 9.70141C21.1009 9.48582 20.8997 9.41845 20.618 9.53972C20.3899 9.63404 20.2424 9.75531 20.0814 9.91699L19.6924 9.45888C19.8936 9.25676 20.1082 9.06813 20.4838 8.90644C20.8594 8.73128 21.1679 8.70433 21.4094 8.79865C21.6374 8.87949 21.7984 9.0816 21.9326 9.37803L22.4825 10.6042L21.7448 10.941L21.6509 10.7254C21.5838 10.9545 21.4228 11.1431 21.1411 11.2779C20.7253 11.453 20.3094 11.3587 20.1216 10.9276ZM21.396 10.173L21.3557 10.0787C21.2618 10.0787 21.1545 10.1056 21.0472 10.1595C20.8326 10.2538 20.7521 10.4155 20.8326 10.5907C20.8997 10.7389 21.0472 10.7793 21.1948 10.712C21.4094 10.5907 21.5033 10.3751 21.396 10.173Z" fill="#2B3990"/>
<path d="M23.113 9.63355L22.8448 8.73079L22.5765 8.81163L22.3887 8.17835L22.657 8.09751L22.4826 7.5316L23.2606 7.28906L23.435 7.85497L23.9581 7.69328L24.1459 8.32657L23.6228 8.48825L23.8508 9.2428C23.9045 9.40449 23.985 9.44491 24.1325 9.40449C24.2398 9.37754 24.3203 9.31017 24.4008 9.2428L24.5886 9.86261C24.4679 9.98387 24.3069 10.0917 24.0789 10.159C23.6228 10.2938 23.274 10.1725 23.113 9.63355Z" fill="#2B3990"/>
<path d="M24.6963 6.68297L25.528 6.50781L25.6487 7.10067L24.817 7.27583L24.6963 6.68297ZM24.8707 7.47794L25.6755 7.31625L26.1316 9.60683L25.3268 9.76852L24.8707 7.47794Z" fill="#2B3990"/>
<path d="M26.7349 8.31334C26.6678 7.6531 27.1373 7.06024 27.8617 6.9794C28.3312 6.93897 28.6665 7.11414 28.8946 7.41057L28.3848 7.85522C28.2641 7.707 28.1165 7.6531 27.9422 7.66658C27.647 7.69353 27.4861 7.94954 27.5129 8.23249C27.5397 8.52892 27.7544 8.74451 28.0226 8.71756C28.2104 8.70409 28.3177 8.59629 28.4385 8.4346L29.0287 8.78493C28.8409 9.12179 28.5592 9.36432 28.0495 9.41822C27.3519 9.47211 26.7885 8.97357 26.7349 8.31334Z" fill="#2B3990"/>
<path d="M32.3147 7.1142L31.416 7.00641L31.5099 6.27881L34.1256 6.60219L34.0317 7.32979L33.133 7.22199L32.8647 9.48564L32.0331 9.37784L32.3147 7.1142Z" fill="#2B3990"/>
<path d="M34.8239 7.46484L35.6153 7.66695L35.4946 8.12507C35.6958 7.84212 35.9641 7.6939 36.3263 7.81517L36.1116 8.65056L36.0446 8.63709C35.6287 8.52929 35.3336 8.71793 35.2129 9.22995L35.0385 9.9306L34.2471 9.72849L34.8239 7.46484Z" fill="#2B3990"/>
<path d="M36.3931 9.57963C36.5674 9.13499 36.9967 9.02719 37.5064 9.21583C37.7076 9.29668 37.882 9.40447 37.9893 9.49879L38.0028 9.45836C38.0832 9.2293 38.0028 9.05414 37.7076 8.93288C37.4796 8.83856 37.2918 8.82508 37.0638 8.82508L37.1174 8.21875C37.3991 8.21875 37.6808 8.2457 38.0564 8.39391C38.4454 8.54213 38.6735 8.74424 38.7808 8.9733C38.8881 9.20236 38.8613 9.44489 38.7539 9.75479L38.271 11.0079L37.5198 10.7115L37.6003 10.4824C37.3857 10.5902 37.1442 10.6171 36.8626 10.5093C36.4467 10.3881 36.2187 10.0243 36.3931 9.57963ZM37.8284 9.9569L37.8686 9.86259C37.8015 9.79522 37.7076 9.74132 37.5869 9.68742C37.3723 9.60658 37.1979 9.66048 37.1308 9.83564C37.0772 9.98385 37.1577 10.1186 37.3052 10.1725C37.5333 10.2533 37.7479 10.1725 37.8284 9.9569Z" fill="#2B3990"/>
<path d="M40.0816 9.31055L40.7926 9.71477L40.6316 9.99772C40.8596 9.90341 41.1413 9.84951 41.423 10.0112C41.8523 10.2537 41.9462 10.6849 41.6913 11.143L40.9535 12.477L40.2426 12.0727L40.8596 10.9679C40.9804 10.7523 40.9401 10.5636 40.7657 10.4693C40.5914 10.375 40.4036 10.4154 40.2694 10.6445L39.6524 11.7494L38.9414 11.3451L40.0816 9.31055Z" fill="#2B3990"/>
<path d="M41.6113 12.5713L42.1479 12.3558C42.2552 12.6522 42.4296 12.9082 42.6308 13.0564C42.7381 13.1373 42.8186 13.1507 42.8723 13.0699C42.9259 13.0025 42.8454 12.8812 42.6979 12.6791C42.4028 12.3019 42.2015 11.965 42.4967 11.5743C42.7918 11.1835 43.2747 11.197 43.7039 11.5204C43.9722 11.7225 44.2003 12.0189 44.3076 12.3153L43.771 12.5579C43.6637 12.3019 43.5027 12.0863 43.3552 11.965C43.2613 11.8842 43.1808 11.8842 43.1271 11.9515C43.0735 12.0189 43.154 12.1402 43.3015 12.3423C43.5832 12.733 43.7844 13.0699 43.5161 13.4472C43.2076 13.8514 42.7381 13.8379 42.2954 13.501C41.9735 13.272 41.7321 12.9486 41.6113 12.5713Z" fill="#2B3990"/>
<path d="M45.2869 12.8271L45.8502 13.42L45.6222 13.6356C45.8637 13.6086 46.1454 13.6491 46.36 13.8916C46.5746 14.1206 46.6283 14.3901 46.5478 14.6461C46.8563 14.6327 47.1246 14.7 47.3526 14.956C47.688 15.3198 47.6746 15.751 47.2721 16.1283L46.1588 17.1792L45.5954 16.5864L46.521 15.7106C46.7088 15.5354 46.7222 15.3468 46.588 15.212C46.4539 15.0773 46.2661 15.0638 46.0783 15.239L45.1527 16.1148L44.5893 15.5219L45.5149 14.6461C45.7027 14.471 45.7161 14.2823 45.582 14.1476C45.4478 14.0129 45.26 13.9994 45.0722 14.1745L44.1467 15.0504L43.5967 14.4171L45.2869 12.8271Z" fill="#2B3990"/>
<path d="M48.479 16.4919L48.9485 17.1656L47.0437 18.4995L46.5742 17.8258L48.479 16.4919ZM49.1363 16.0068L49.6192 16.7075L49.1229 17.0578L48.64 16.3572L49.1363 16.0068Z" fill="#2B3990"/>
<path d="M47.6606 18.8767L48.2374 18.9036C48.2106 19.227 48.2776 19.5234 48.3983 19.739C48.4654 19.8603 48.5325 19.9007 48.613 19.8603C48.6935 19.8199 48.6666 19.6851 48.5996 19.4291C48.4788 18.971 48.4386 18.5668 48.8544 18.3377C49.2837 18.0952 49.7129 18.3108 49.9812 18.7824C50.1422 19.0788 50.2361 19.4426 50.2093 19.7525H49.619C49.619 19.483 49.5654 19.2001 49.4715 19.0384C49.4044 18.9306 49.3373 18.8902 49.2703 18.9306C49.1898 18.971 49.2166 19.1057 49.2703 19.3618C49.3776 19.8333 49.4178 20.2241 49.0154 20.4532C48.5727 20.6957 48.1435 20.4936 47.8752 19.995C47.7008 19.6717 47.6069 19.2809 47.6606 18.8767Z" fill="#2B3990"/>
<path d="M48.8679 21.1272L49.4447 21.2215C49.3776 21.5314 49.4045 21.8413 49.4984 22.0703C49.552 22.2051 49.6191 22.2455 49.6996 22.2186C49.7801 22.1781 49.7801 22.0434 49.7398 21.8009C49.6862 21.3293 49.6862 20.925 50.1288 20.7499C50.5849 20.5612 50.9874 20.8307 51.1886 21.3293C51.3093 21.6392 51.363 22.0164 51.2959 22.3263L50.7191 22.259C50.7459 21.9895 50.7325 21.7065 50.6654 21.5448C50.6252 21.4236 50.5447 21.3832 50.4776 21.4101C50.3971 21.4505 50.4105 21.5853 50.424 21.8413C50.4776 22.3129 50.4642 22.7171 50.0349 22.8923C49.5654 23.0809 49.1764 22.8249 48.9618 22.2994C48.8142 21.9086 48.774 21.5179 48.8679 21.1272Z" fill="#2B3990"/>
<path d="M51.8058 23.1751L52.0339 23.9566L49.8071 24.6034L49.5791 23.8219L51.8058 23.1751ZM52.5704 22.9326L52.8119 23.7545L52.2351 23.9162L51.9936 23.0943L52.5704 22.9326Z" fill="#2B3990"/>
<path d="M51.1488 25.102C51.8061 24.9942 52.4365 25.4388 52.5572 26.1799C52.678 26.921 52.2353 27.5408 51.5646 27.6486C50.9073 27.7563 50.2769 27.3117 50.1561 26.5706C50.0354 25.8296 50.4915 25.2098 51.1488 25.102ZM51.4439 26.8536C51.7256 26.8132 51.9268 26.5572 51.8731 26.2742C51.8195 25.9778 51.5646 25.8296 51.2829 25.8835C51.0012 25.9239 50.8 26.1799 50.8537 26.4628C50.8939 26.7593 51.1488 26.9075 51.4439 26.8536Z" fill="#2B3990"/>
<path d="M52.7982 28.4707L52.8116 29.2926H52.4897C52.6909 29.4408 52.8787 29.6564 52.8787 29.9798C52.8921 30.4783 52.5701 30.7748 52.0336 30.7882L50.5178 30.8152L50.5044 29.9933L51.7653 29.9663C52.0202 29.9663 52.1543 29.8316 52.1543 29.6295C52.1543 29.4274 52.0068 29.2926 51.7519 29.2926L50.491 29.3196L50.4775 28.4977L52.7982 28.4707Z" fill="#2B3990"/>
<path d="M53.228 33.8063L52.9597 35.0729C52.7988 35.8139 52.3159 36.2181 51.6586 36.0834C50.961 35.9352 50.7196 35.3154 50.8671 34.5878L50.9476 34.1836L50.1025 34.0084L50.2769 33.1865L53.228 33.8063ZM51.511 34.6956C51.444 34.992 51.5647 35.1941 51.8061 35.248C52.061 35.3019 52.2354 35.1537 52.289 34.8573L52.3695 34.4665L51.5915 34.3048L51.511 34.6956Z" fill="#2B3990"/>
<path d="M50.25 36.3396C50.7061 36.5013 50.8134 36.9325 50.6122 37.458C50.5317 37.6601 50.4244 37.8487 50.3305 37.9565L50.3708 37.97C50.5988 38.0508 50.7732 37.9565 50.8805 37.6601C50.961 37.431 50.9878 37.2289 50.9878 37.0133L51.5914 37.0537C51.6049 37.3367 51.578 37.6331 51.4305 37.9969C51.2829 38.3877 51.0951 38.6167 50.8537 38.7245C50.6256 38.8323 50.3842 38.8188 50.0756 38.6976L48.8281 38.226L49.1098 37.4714L49.3379 37.5523C49.2305 37.3367 49.1903 37.0942 49.2976 36.8112C49.4586 36.3935 49.8074 36.1644 50.25 36.3396ZM49.9013 37.7813L50.0086 37.8218C50.0756 37.7544 50.1293 37.6601 50.1695 37.5388C50.25 37.3097 50.1964 37.1481 50.022 37.0807C49.8744 37.0268 49.7403 37.1076 49.6866 37.2693C49.5927 37.4984 49.6732 37.7005 49.9013 37.7813Z" fill="#2B3990"/>
<path d="M50.5583 40.0045L50.1827 40.7321L49.7669 40.5166C49.9815 40.786 50.0754 41.069 49.8742 41.4059L49.1096 41.0016L49.1364 40.9343C49.3376 40.557 49.2303 40.2336 48.7474 39.9776L48.1035 39.6407L48.4791 38.9131L50.5583 40.0045Z" fill="#2B3990"/>
<path d="M47.9694 41.379L48.7608 41.9045L48.9084 41.6754L49.4584 42.0392L49.3108 42.2683L49.8071 42.5917L49.3511 43.2788L48.8547 42.9555L48.5596 43.4136L48.0096 43.0498L48.3048 42.5917L47.6475 42.1605C47.5133 42.0662 47.4194 42.0931 47.3255 42.2144C47.2719 42.3087 47.2316 42.403 47.2182 42.5108L46.6816 42.1605C46.6951 41.9988 46.7621 41.7967 46.8829 41.608C47.178 41.1903 47.5133 41.0691 47.9694 41.379Z" fill="#2B3990"/>
<path d="M46.548 42.7261L46.7224 43.2785C46.4139 43.3728 46.159 43.5345 45.998 43.7231C45.9041 43.8309 45.9041 43.9118 45.9712 43.9657C46.0383 44.0196 46.159 43.9522 46.3602 43.804C46.7492 43.5345 47.098 43.3459 47.4602 43.6558C47.8358 43.9792 47.7955 44.4507 47.4468 44.8684C47.2321 45.1244 46.9236 45.34 46.6285 45.4343L46.4139 44.8819C46.6687 44.7876 46.8968 44.6394 47.0175 44.4912C47.098 44.3969 47.098 44.316 47.0443 44.2621C46.9773 44.2082 46.8565 44.2756 46.6419 44.4238C46.2395 44.6933 45.8907 44.8684 45.5419 44.572C45.1529 44.2352 45.1932 43.777 45.5554 43.3459C45.8236 43.0495 46.159 42.8204 46.548 42.7261Z" fill="#2B3990"/>
<path d="M18.3772 47.6713L17.6126 47.1862L18.0016 46.5664L20.2418 47.9677L19.8528 48.5875L19.0882 48.1025L17.8809 50.0427L17.1699 49.5981L18.3772 47.6713Z" fill="#EF4323"/>
<path d="M20.175 48.6816L20.9128 49.032L20.7116 49.4497C20.9664 49.2206 21.2481 49.1263 21.5969 49.3149L21.2213 50.0964L21.1542 50.0695C20.7652 49.8808 20.4433 50.0021 20.2153 50.4872L19.9067 51.1474L19.1689 50.7971L20.175 48.6816Z" fill="#EF4323"/>
<path d="M21.2339 51.0264C21.3949 50.5683 21.8241 50.4605 22.3338 50.6356C22.5351 50.703 22.7229 50.8243 22.8302 50.9051L22.8436 50.8647C22.9241 50.6356 22.8302 50.4605 22.5351 50.3527C22.307 50.2718 22.1058 50.2584 21.8912 50.2584L21.918 49.652C22.1997 49.6386 22.4948 49.6655 22.8704 49.8002C23.2594 49.935 23.5009 50.1236 23.6082 50.3662C23.7155 50.5817 23.7021 50.8378 23.5948 51.1477L23.1521 52.4142L22.3875 52.1447L22.468 51.9157C22.2534 52.0235 22.0119 52.0639 21.7302 51.9696C21.3144 51.8348 21.0729 51.471 21.2339 51.0264ZM22.6826 51.3632L22.7229 51.2554C22.6558 51.2016 22.5619 51.1342 22.4412 51.0938C22.2131 51.0129 22.0521 51.0803 21.9851 51.2554C21.9314 51.4037 22.0119 51.5384 22.1729 51.5923C22.4009 51.6731 22.6155 51.5788 22.6826 51.3632Z" fill="#EF4323"/>
<path d="M24.4802 50.3794L25.2851 50.5411L25.218 50.8645C25.4058 50.7028 25.6473 50.568 25.9826 50.6354C26.4655 50.7297 26.6936 51.1205 26.5863 51.6325L26.2777 53.1281L25.4729 52.9664L25.7278 51.7268C25.7814 51.4708 25.6741 51.3091 25.4863 51.2822C25.2985 51.2417 25.1241 51.3495 25.0705 51.5921L24.8156 52.8317L24.0107 52.67L24.4802 50.3794Z" fill="#EF4323"/>
<path d="M26.9756 52.9395L27.3244 52.4679C27.5792 52.67 27.8609 52.7778 28.1024 52.7913C28.2499 52.8048 28.317 52.7644 28.317 52.67C28.3304 52.5757 28.1963 52.5218 27.9548 52.441C27.5122 52.2793 27.15 52.1041 27.1902 51.6191C27.2305 51.1205 27.6463 50.878 28.1829 50.9184C28.5182 50.9454 28.867 51.0666 29.1219 51.2687L28.7999 51.7673C28.5719 51.6191 28.317 51.5113 28.1292 51.4978C28.0085 51.4843 27.9414 51.5247 27.928 51.6056C27.9146 51.6999 28.0487 51.7538 28.2902 51.8481C28.7328 52.0233 29.095 52.1984 29.0548 52.6566C29.0145 53.1686 28.6121 53.4111 28.0487 53.3572C27.6597 53.3303 27.2841 53.1955 26.9756 52.9395Z" fill="#EF4323"/>
<path d="M29.6719 50.4066L30.8255 50.3392C31.8986 50.2718 32.5559 50.8647 32.6096 51.7405C32.6632 52.6163 32.0596 53.29 30.9865 53.3574L29.8463 53.4247L29.6719 50.4066ZM30.973 52.6163C31.4694 52.5893 31.7913 52.2929 31.7511 51.7944C31.7242 51.3093 31.3755 51.0398 30.8792 51.0668L30.5438 51.0803L30.6377 52.6163H30.973Z" fill="#EF4323"/>
<path d="M33.2406 51.9968C33.1064 51.3231 33.4686 50.7033 34.1393 50.5551C34.9308 50.3934 35.4137 50.8919 35.5479 51.5656C35.5613 51.6195 35.5747 51.6734 35.5747 51.7273L34.0588 52.0507C34.1796 52.2932 34.3808 52.3741 34.6223 52.3202C34.8101 52.2797 34.9442 52.1719 35.0784 51.9833L35.6015 52.2528C35.4405 52.5762 35.1588 52.8322 34.7027 52.9265C33.9918 53.0882 33.3881 52.7109 33.2406 51.9968ZM34.743 51.4848C34.6625 51.2422 34.4747 51.1075 34.2601 51.1479C34.0454 51.1883 33.9381 51.3905 33.9515 51.6465L34.743 51.4848Z" fill="#EF4323"/>
<path d="M36.4192 51.7002L36.1241 50.7975L35.8692 50.8783L35.668 50.245L35.9228 50.1642L35.735 49.5983L36.5131 49.3423L36.7009 49.9082L37.2106 49.733L37.4118 50.3663L36.9021 50.5415L37.1435 51.296C37.1972 51.4577 37.2911 51.4981 37.4252 51.4442C37.5325 51.4038 37.613 51.3499 37.6935 51.2691L37.8947 51.8754C37.7874 51.9967 37.613 52.1045 37.3984 52.1853C36.9423 52.3335 36.5936 52.2257 36.4192 51.7002Z" fill="#EF4323"/>
<path d="M38.2838 51.1205C38.0825 50.6758 38.3106 50.2986 38.8069 50.0695C39.0081 49.9752 39.2094 49.9348 39.3569 49.9213L39.3435 49.8809C39.2362 49.6653 39.0484 49.5979 38.7667 49.7327C38.5386 49.8405 38.3911 49.9617 38.2435 50.1234L37.8545 49.6653C38.0423 49.4632 38.2703 49.2745 38.6325 49.0994C39.0081 48.9242 39.3033 48.8973 39.5581 48.9781C39.7862 49.059 39.9606 49.2476 40.0947 49.544L40.6581 50.7567L39.9203 51.0935L39.813 50.878C39.7459 51.107 39.5984 51.3091 39.3167 51.4304C38.8874 51.6325 38.4716 51.5517 38.2838 51.1205ZM39.5447 50.339L39.5045 50.2447C39.4106 50.2447 39.3033 50.2716 39.1959 50.3255C38.9813 50.4198 38.9008 50.595 38.9813 50.7567C39.0484 50.9049 39.1959 50.9319 39.3435 50.8645C39.5581 50.7567 39.652 50.5546 39.5447 50.339Z" fill="#EF4323"/>
<path d="M39.7324 47.6441L40.4702 47.2129L40.7787 47.7384L40.0409 48.1696L39.7324 47.6441ZM40.1617 48.3447L40.8592 47.927L42.0396 49.9347L41.3421 50.3524L40.1617 48.3447Z" fill="#EF4323"/>
<path d="M40.9531 46.9032L41.6238 46.4316L43.4079 49.0187L42.7372 49.4903L40.9531 46.9032Z" fill="#EF4323"/>
<path d="M20.564 38.2258V24.9134H15.7617V21.7739H28.6661V24.9134H23.8638V38.2258H20.564Z" fill="#EF4323"/>
<path d="M32.0869 38.2258V21.7739H37.694C40.2964 21.7739 42.4561 22.5689 43.945 24.0645C45.3938 25.5062 46.145 27.5543 46.145 29.9662C46.145 32.3645 45.3669 34.4126 43.9048 35.8947C42.389 37.4308 40.2025 38.2527 37.5867 38.2527H32.0869V38.2258ZM35.3868 35.0324H37.7477C40.8195 35.0324 42.7109 33.0921 42.7109 29.9662C42.7109 26.8941 40.7659 24.8999 37.7477 24.8999H35.3868V35.0324Z" fill="#EF4323"/>
</g>
<path d="M76.7699 20.0341H72.8732V30.2448H69.9147V20.0341H66V17.4364H76.7699V20.0341Z" fill="#F34E09"/>
<path d="M79.658 30.2448V17.4364H85.4308C86.0321 17.4364 86.5853 17.5626 87.0904 17.8152C87.6076 18.0557 88.0526 18.3865 88.4254 18.8074C88.7982 19.2163 89.0869 19.6793 89.2913 20.1965C89.5078 20.7136 89.616 21.2368 89.616 21.766C89.616 22.2951 89.5319 22.8003 89.3635 23.2813C89.1951 23.7504 88.9546 24.1773 88.6419 24.5622C88.3292 24.935 87.9564 25.2417 87.5234 25.4822L90.3376 30.2448H87.0724L84.619 26.1136H82.6165V30.2448H79.658ZM82.6165 23.5339H85.3225C85.5631 23.5339 85.7735 23.4617 85.9539 23.3174C86.1464 23.1611 86.3027 22.9506 86.423 22.686C86.5432 22.4214 86.6034 22.1147 86.6034 21.766C86.6034 21.4172 86.5312 21.1165 86.3869 20.864C86.2546 20.5994 86.0862 20.3949 85.8818 20.2506C85.6773 20.1063 85.4608 20.0341 85.2323 20.0341H82.6165V23.5339Z" fill="#F34E09"/>
<path d="M96.4157 17.4364H99.6088L104.011 30.2448H100.98L99.9876 27.3764H96.0008L95.0266 30.2448H91.9959L96.4157 17.4364ZM99.5006 25.3379L98.0032 20.413L96.4698 25.3379H99.5006Z" fill="#F34E09"/>
<path d="M109.674 22.9205V30.2448H106.715V17.4364H109.06L114.995 24.9771V17.4364H117.954V30.2448H115.537L109.674 22.9205Z" fill="#F34E09"/>
<path d="M129.532 21.1887C129.496 21.1286 129.37 21.0384 129.153 20.9181C128.937 20.7858 128.666 20.6475 128.341 20.5032C128.017 20.3588 127.662 20.2326 127.277 20.1243C126.892 20.0161 126.507 19.962 126.122 19.962C125.617 19.962 125.226 20.0522 124.95 20.2326C124.673 20.4009 124.535 20.6655 124.535 21.0263C124.535 21.315 124.637 21.5435 124.842 21.7118C125.058 21.8802 125.365 22.0306 125.762 22.1628C126.158 22.2831 126.646 22.4274 127.223 22.5958C128.041 22.8123 128.75 23.0769 129.352 23.3896C129.953 23.6902 130.41 24.0811 130.723 24.5622C131.047 25.0432 131.21 25.6806 131.21 26.4744C131.21 27.196 131.077 27.8094 130.813 28.3145C130.548 28.8076 130.187 29.2105 129.73 29.5232C129.285 29.8238 128.774 30.0463 128.197 30.1906C127.62 30.3229 127.024 30.3891 126.411 30.3891C125.786 30.3891 125.142 30.3289 124.481 30.2087C123.831 30.0764 123.206 29.896 122.605 29.6675C122.003 29.4269 121.45 29.1383 120.945 28.8016L122.244 26.2218C122.292 26.282 122.448 26.3962 122.713 26.5646C122.977 26.7209 123.302 26.8893 123.687 27.0697C124.084 27.2381 124.523 27.3884 125.004 27.5207C125.485 27.653 125.972 27.7192 126.465 27.7192C126.994 27.7192 127.385 27.635 127.638 27.4666C127.902 27.2982 128.035 27.0637 128.035 26.763C128.035 26.4383 127.896 26.1858 127.62 26.0054C127.355 25.825 126.988 25.6626 126.519 25.5183C126.062 25.374 125.533 25.2116 124.932 25.0312C124.15 24.7907 123.501 24.5201 122.983 24.2194C122.478 23.9187 122.099 23.5519 121.847 23.119C121.606 22.686 121.486 22.1448 121.486 21.4954C121.486 20.5934 121.697 19.8357 122.117 19.2223C122.55 18.5969 123.128 18.1279 123.849 17.8152C124.571 17.4905 125.359 17.3281 126.213 17.3281C126.814 17.3281 127.391 17.4003 127.944 17.5446C128.51 17.6889 129.033 17.8693 129.514 18.0858C130.007 18.3023 130.446 18.5188 130.831 18.7352L129.532 21.1887Z" fill="#F34E09"/>
<path d="M134.389 30.2448V17.4364H139.17C140.577 17.4364 141.749 17.725 142.687 18.3023C143.637 18.8675 144.353 19.6372 144.834 20.6114C145.315 21.5735 145.556 22.6439 145.556 23.8225C145.556 25.1214 145.291 26.2519 144.762 27.214C144.233 28.1762 143.487 28.9218 142.525 29.451C141.575 29.9802 140.456 30.2448 139.17 30.2448H134.389ZM142.543 23.8225C142.543 23.0769 142.411 22.4214 142.146 21.8562C141.882 21.2789 141.497 20.8339 140.992 20.5212C140.486 20.1965 139.879 20.0341 139.17 20.0341H137.347V27.647H139.17C139.891 27.647 140.498 27.4846 140.992 27.1599C141.497 26.8232 141.882 26.3662 142.146 25.7889C142.411 25.1996 142.543 24.5441 142.543 23.8225Z" fill="#F34E09"/>
<path d="M157.747 27.647V30.2448H148.746V17.4364H157.585V20.0341H151.704V22.5236H156.755V24.923H151.704V27.647H157.747Z" fill="#F34E09"/>
<path d="M170.748 20.0341H166.851V30.2448H163.892V20.0341H159.978V17.4364H170.748V20.0341Z" fill="#F34E09"/>
<path d="M175.685 17.4364H178.878L183.279 30.2448H180.249L179.257 27.3764H175.27L174.296 30.2448H171.265L175.685 17.4364ZM178.769 25.3379L177.272 20.413L175.739 25.3379H178.769Z" fill="#F34E09"/>
<path d="M185.984 30.2448V17.4364H188.943V30.2448H185.984Z" fill="#F34E09"/>
<path d="M192.836 30.2448V17.4364H195.794V27.647H202V30.2448H192.836Z" fill="#F34E09"/>
<path d="M73.3203 40.2032C72.9595 40.2032 72.6324 40.131 72.3389 39.9867C72.0455 39.8424 71.7905 39.6475 71.574 39.4022C71.3624 39.152 71.1988 38.873 71.0833 38.5651C70.9679 38.2524 70.9102 37.9325 70.9102 37.6054C70.9102 37.2639 70.9703 36.9391 71.0906 36.6313C71.2156 36.3186 71.3864 36.0419 71.6029 35.8014C71.8242 35.5561 72.0816 35.3636 72.375 35.2241C72.6685 35.0798 72.9884 35.0077 73.3347 35.0077C73.6955 35.0077 74.0227 35.0822 74.3161 35.2314C74.6096 35.3805 74.8621 35.5801 75.0738 35.8303C75.2855 36.0804 75.449 36.3595 75.5645 36.6673C75.6799 36.9752 75.7377 37.2903 75.7377 37.6126C75.7377 37.9542 75.6775 38.2813 75.5573 38.594C75.437 38.9019 75.2662 39.1785 75.0449 39.4238C74.8284 39.6644 74.5735 39.8544 74.28 39.9939C73.9866 40.1334 73.6667 40.2032 73.3203 40.2032ZM71.5668 37.6054C71.5668 37.8652 71.6077 38.1177 71.6895 38.3631C71.7761 38.6036 71.8963 38.8177 72.0503 39.0053C72.2042 39.1929 72.3894 39.3421 72.6059 39.4527C72.8224 39.5634 73.0629 39.6187 73.3275 39.6187C73.6017 39.6187 73.8471 39.5609 74.0635 39.4455C74.28 39.33 74.4628 39.1761 74.612 38.9837C74.7659 38.7912 74.8814 38.5748 74.9583 38.3342C75.0401 38.0937 75.081 37.8508 75.081 37.6054C75.081 37.3456 75.0377 37.0955 74.9511 36.8549C74.8693 36.6144 74.7491 36.4003 74.5903 36.2127C74.4364 36.0203 74.2512 35.8712 74.0347 35.7653C73.823 35.6547 73.5873 35.5994 73.3275 35.5994C73.0533 35.5994 72.808 35.6571 72.5915 35.7725C72.375 35.8832 72.1898 36.0347 72.0359 36.2272C71.8867 36.4196 71.7713 36.6361 71.6895 36.8766C71.6077 37.1123 71.5668 37.3553 71.5668 37.6054Z" fill="#1A0D3F"/>
<path d="M78.4954 36.956C78.1779 36.9608 77.8964 37.0426 77.6511 37.2013C77.4105 37.3553 77.2398 37.5693 77.1387 37.8435V40.1671H76.5037V36.4003H77.0955V37.2735C77.2253 37.0137 77.3961 36.8044 77.6078 36.6457C77.8243 36.4821 78.0504 36.3907 78.2861 36.3715C78.3342 36.3715 78.3751 36.3715 78.4088 36.3715C78.4424 36.3715 78.4713 36.3739 78.4954 36.3787V36.956Z" fill="#1A0D3F"/>
<path d="M79.1252 40.1671V36.4003H79.7602V40.1671H79.1252ZM79.1252 35.6932V34.8994H79.7602V35.6932H79.1252Z" fill="#1A0D3F"/>
<path d="M82.2892 40.2104C82.0342 40.2104 81.7985 40.1599 81.582 40.0589C81.3703 39.953 81.1875 39.8111 81.0336 39.6331C80.8796 39.4503 80.7594 39.2434 80.6728 39.0125C80.591 38.7816 80.5501 38.5411 80.5501 38.2909C80.5501 38.0263 80.591 37.7762 80.6728 37.5405C80.7594 37.3047 80.8796 37.0979 81.0336 36.9199C81.1923 36.7371 81.3775 36.5952 81.5892 36.4941C81.8009 36.3883 82.0366 36.3354 82.2964 36.3354C82.6091 36.3354 82.8809 36.4124 83.1118 36.5663C83.3475 36.7203 83.5447 36.9151 83.7035 37.1508V36.4003H84.2663V40.1238C84.2663 40.4798 84.1798 40.7805 84.0066 41.0258C83.8382 41.2711 83.6073 41.4564 83.3138 41.5814C83.0252 41.7113 82.7029 41.7763 82.3469 41.7763C81.9236 41.7763 81.5772 41.7017 81.3078 41.5526C81.0384 41.4034 80.8147 41.2014 80.6367 40.9464L81.0047 40.6217C81.1538 40.843 81.3463 41.009 81.582 41.1196C81.8225 41.2302 82.0775 41.2856 82.3469 41.2856C82.5778 41.2856 82.7895 41.2423 82.9819 41.1557C83.1791 41.0739 83.3355 40.9464 83.4509 40.7732C83.5712 40.6001 83.6313 40.3836 83.6313 40.1238V39.4599C83.4918 39.6908 83.2994 39.8736 83.0541 40.0083C82.8135 40.143 82.5586 40.2104 82.2892 40.2104ZM82.484 39.6908C82.6187 39.6908 82.7486 39.6668 82.8737 39.6187C82.9987 39.5706 83.1142 39.508 83.22 39.4311C83.3259 39.3493 83.4149 39.2579 83.487 39.1569C83.5592 39.0558 83.6073 38.9524 83.6313 38.8466V37.7642C83.564 37.591 83.4678 37.4394 83.3427 37.3096C83.2176 37.1749 83.0757 37.0714 82.917 36.9993C82.7582 36.9223 82.5946 36.8838 82.4263 36.8838C82.2338 36.8838 82.0607 36.9247 81.9067 37.0065C81.7576 37.0883 81.6301 37.1989 81.5243 37.3384C81.4184 37.4731 81.3367 37.6247 81.2789 37.793C81.2212 37.9614 81.1923 38.1322 81.1923 38.3054C81.1923 38.493 81.226 38.671 81.2934 38.8393C81.3607 39.0029 81.4521 39.1496 81.5676 39.2795C81.683 39.4094 81.8201 39.5104 81.9789 39.5826C82.1376 39.6548 82.306 39.6908 82.484 39.6908Z" fill="#1A0D3F"/>
<path d="M85.2912 40.1671V36.4003H85.9262V40.1671H85.2912ZM85.2912 35.6932V34.8994H85.9262V35.6932H85.2912Z" fill="#1A0D3F"/>
<path d="M90.2231 40.1671H89.5881V38.06C89.5881 37.6607 89.5256 37.3697 89.4005 37.1869C89.2802 36.9993 89.095 36.9055 88.8448 36.9055C88.6717 36.9055 88.4985 36.9488 88.3253 37.0353C88.1569 37.1219 88.0054 37.2398 87.8707 37.3889C87.7408 37.5333 87.647 37.7016 87.5893 37.8941V40.1671H86.9543V36.4003H87.5315V37.2085C87.6326 37.0305 87.7624 36.8766 87.9212 36.7467C88.0799 36.6168 88.2603 36.5158 88.4624 36.4436C88.6644 36.3715 88.8761 36.3354 89.0974 36.3354C89.3139 36.3354 89.4943 36.3763 89.6386 36.4581C89.7877 36.535 89.9032 36.6457 89.985 36.79C90.0716 36.9295 90.1317 37.0955 90.1654 37.2879C90.2039 37.4803 90.2231 37.6896 90.2231 37.9157V40.1671Z" fill="#1A0D3F"/>
<path d="M90.9147 39.0775C90.9147 38.8369 90.9821 38.6301 91.1168 38.4569C91.2563 38.2789 91.4463 38.1418 91.6868 38.0456C91.9274 37.9494 92.2064 37.9013 92.5239 37.9013C92.6922 37.9013 92.8702 37.9157 93.0579 37.9446C93.2455 37.9686 93.4114 38.0071 93.5558 38.06V37.7858C93.5558 37.4972 93.4692 37.2711 93.296 37.1075C93.1228 36.9391 92.8775 36.8549 92.56 36.8549C92.3531 36.8549 92.1535 36.8934 91.961 36.9704C91.7734 37.0426 91.5738 37.1484 91.3621 37.2879L91.1312 36.8405C91.3765 36.6721 91.6219 36.5471 91.8672 36.4653C92.1126 36.3787 92.3675 36.3354 92.6321 36.3354C93.1132 36.3354 93.4932 36.4701 93.7722 36.7395C94.0513 37.0041 94.1908 37.3745 94.1908 37.8508V39.4455C94.1908 39.5225 94.2052 39.5802 94.2341 39.6187C94.2677 39.6524 94.3207 39.6716 94.3928 39.6764V40.1671C94.3303 40.1767 94.275 40.1839 94.2269 40.1887C94.1836 40.1936 94.1475 40.196 94.1186 40.196C93.9695 40.196 93.8564 40.1551 93.7795 40.0733C93.7073 39.9915 93.6664 39.9049 93.6568 39.8135L93.6424 39.5754C93.4788 39.7871 93.2647 39.9506 93.0001 40.0661C92.7355 40.1815 92.4734 40.2393 92.2136 40.2393C91.9634 40.2393 91.7397 40.1887 91.5425 40.0877C91.3453 39.9819 91.1913 39.8424 91.0807 39.6692C90.97 39.4912 90.9147 39.294 90.9147 39.0775ZM93.3681 39.3445C93.4259 39.2771 93.4716 39.2098 93.5053 39.1424C93.5389 39.0703 93.5558 39.0101 93.5558 38.962V38.493C93.4066 38.4353 93.2503 38.392 93.0867 38.3631C92.9232 38.3294 92.762 38.3126 92.6033 38.3126C92.2809 38.3126 92.0188 38.3775 91.8167 38.5074C91.6195 38.6325 91.5209 38.8057 91.5209 39.027C91.5209 39.1472 91.5521 39.2651 91.6147 39.3805C91.682 39.4912 91.7782 39.5826 91.9033 39.6548C92.0332 39.7269 92.1919 39.763 92.3796 39.763C92.5768 39.763 92.7644 39.7245 92.9424 39.6475C93.1204 39.5658 93.2623 39.4647 93.3681 39.3445Z" fill="#1A0D3F"/>
<path d="M95.2206 34.8994H95.8556V39.1929C95.8556 39.3998 95.8844 39.5273 95.9422 39.5754C95.9999 39.6235 96.0697 39.6475 96.1514 39.6475C96.2525 39.6475 96.3487 39.6379 96.4401 39.6187C96.5315 39.5946 96.6084 39.5706 96.671 39.5465L96.772 40.0661C96.6662 40.1094 96.5411 40.1454 96.3968 40.1743C96.2525 40.2032 96.125 40.2176 96.0143 40.2176C95.769 40.2176 95.5742 40.1479 95.4298 40.0083C95.2903 39.8688 95.2206 39.674 95.2206 39.4238V34.8994Z" fill="#1A0D3F"/>
<path d="M100.312 35.0437H100.86L102.953 40.1671H102.26L101.654 38.6662H99.5035L98.9046 40.1671H98.2119L100.312 35.0437ZM101.51 38.161L100.586 35.7942L99.6334 38.161H101.51Z" fill="#1A0D3F"/>
<path d="M103.422 38.6589V36.4003H104.057V38.5363C104.057 38.9211 104.124 39.2098 104.259 39.4022C104.394 39.5946 104.593 39.6908 104.858 39.6908C105.031 39.6908 105.197 39.6548 105.356 39.5826C105.519 39.5056 105.666 39.3974 105.796 39.2579C105.926 39.1184 106.027 38.9524 106.099 38.76V36.4003H106.734V39.4455C106.734 39.5225 106.749 39.5802 106.777 39.6187C106.811 39.6524 106.864 39.6716 106.936 39.6764V40.1671C106.864 40.1767 106.806 40.1815 106.763 40.1815C106.724 40.1863 106.686 40.1887 106.647 40.1887C106.527 40.1887 106.424 40.1527 106.337 40.0805C106.251 40.0035 106.205 39.9097 106.2 39.7991L106.186 39.3589C106.022 39.6379 105.801 39.8544 105.522 40.0083C105.248 40.1623 104.947 40.2393 104.62 40.2393C104.225 40.2393 103.927 40.107 103.725 39.8424C103.523 39.573 103.422 39.1785 103.422 38.6589Z" fill="#1A0D3F"/>
<path d="M109.74 39.9795C109.687 40.0035 109.615 40.0348 109.524 40.0733C109.432 40.1118 109.326 40.1454 109.206 40.1743C109.086 40.2032 108.958 40.2176 108.824 40.2176C108.67 40.2176 108.528 40.1911 108.398 40.1382C108.268 40.0805 108.165 39.9939 108.088 39.8785C108.011 39.7582 107.972 39.6091 107.972 39.4311V36.8982H107.46V36.4003H107.972V35.1448H108.607V36.4003H109.452V36.8982H108.607V39.2362C108.617 39.3709 108.663 39.472 108.744 39.5393C108.826 39.6018 108.922 39.6331 109.033 39.6331C109.158 39.6331 109.274 39.6115 109.379 39.5682C109.485 39.5249 109.555 39.4936 109.589 39.4744L109.74 39.9795Z" fill="#1A0D3F"/>
<path d="M111.925 40.2393C111.641 40.2393 111.383 40.1887 111.153 40.0877C110.922 39.9819 110.722 39.84 110.554 39.662C110.385 39.4792 110.255 39.2699 110.164 39.0342C110.073 38.7985 110.027 38.5507 110.027 38.2909C110.027 38.0263 110.073 37.7762 110.164 37.5405C110.255 37.3047 110.385 37.0979 110.554 36.9199C110.722 36.7371 110.922 36.5952 111.153 36.4941C111.388 36.3883 111.646 36.3354 111.925 36.3354C112.208 36.3354 112.466 36.3883 112.697 36.4941C112.928 36.5952 113.127 36.7371 113.296 36.9199C113.469 37.0979 113.601 37.3047 113.693 37.5405C113.784 37.7762 113.83 38.0263 113.83 38.2909C113.83 38.5507 113.784 38.7985 113.693 39.0342C113.601 39.2699 113.471 39.4792 113.303 39.662C113.135 39.84 112.932 39.9819 112.697 40.0877C112.466 40.1887 112.208 40.2393 111.925 40.2393ZM110.676 38.2981C110.676 38.5579 110.732 38.7936 110.842 39.0053C110.958 39.217 111.109 39.3854 111.297 39.5104C111.484 39.6307 111.694 39.6908 111.925 39.6908C112.156 39.6908 112.365 39.6283 112.552 39.5032C112.745 39.3781 112.896 39.2098 113.007 38.9981C113.123 38.7816 113.18 38.5435 113.18 38.2837C113.18 38.0239 113.123 37.7882 113.007 37.5765C112.896 37.3649 112.745 37.1965 112.552 37.0714C112.365 36.9464 112.156 36.8838 111.925 36.8838C111.694 36.8838 111.484 36.9488 111.297 37.0786C111.109 37.2037 110.958 37.3721 110.842 37.5838C110.732 37.7954 110.676 38.0336 110.676 38.2981Z" fill="#1A0D3F"/>
<path d="M120.278 40.1671H119.643V38.06C119.643 37.6655 119.578 37.3745 119.448 37.1869C119.323 36.9993 119.136 36.9055 118.885 36.9055C118.63 36.9055 118.4 36.9993 118.193 37.1869C117.986 37.3697 117.839 37.6078 117.753 37.9013V40.1671H117.118V38.06C117.118 37.6607 117.055 37.3697 116.93 37.1869C116.805 36.9993 116.617 36.9055 116.367 36.9055C116.117 36.9055 115.886 36.9969 115.674 37.1797C115.467 37.3577 115.321 37.5958 115.234 37.8941V40.1671H114.599V36.4003H115.176V37.2085C115.33 36.9295 115.53 36.7154 115.775 36.5663C116.021 36.4124 116.297 36.3354 116.605 36.3354C116.918 36.3354 117.168 36.422 117.356 36.5952C117.543 36.7635 117.659 36.9824 117.702 37.2518C117.87 36.9536 118.075 36.7275 118.315 36.5735C118.556 36.4148 118.83 36.3354 119.138 36.3354C119.354 36.3354 119.535 36.3763 119.679 36.4581C119.828 36.535 119.946 36.6457 120.033 36.79C120.119 36.9295 120.182 37.0955 120.22 37.2879C120.259 37.4803 120.278 37.6896 120.278 37.9157V40.1671Z" fill="#1A0D3F"/>
<path d="M120.97 39.0775C120.97 38.8369 121.037 38.6301 121.172 38.4569C121.311 38.2789 121.501 38.1418 121.742 38.0456C121.982 37.9494 122.261 37.9013 122.579 37.9013C122.747 37.9013 122.925 37.9157 123.113 37.9446C123.3 37.9686 123.466 38.0071 123.611 38.06V37.7858C123.611 37.4972 123.524 37.2711 123.351 37.1075C123.178 36.9391 122.932 36.8549 122.615 36.8549C122.408 36.8549 122.208 36.8934 122.016 36.9704C121.828 37.0426 121.629 37.1484 121.417 37.2879L121.186 36.8405C121.431 36.6721 121.677 36.5471 121.922 36.4653C122.167 36.3787 122.422 36.3354 122.687 36.3354C123.168 36.3354 123.548 36.4701 123.827 36.7395C124.106 37.0041 124.246 37.3745 124.246 37.8508V39.4455C124.246 39.5225 124.26 39.5802 124.289 39.6187C124.323 39.6524 124.376 39.6716 124.448 39.6764V40.1671C124.385 40.1767 124.33 40.1839 124.282 40.1887C124.238 40.1936 124.202 40.196 124.174 40.196C124.024 40.196 123.911 40.1551 123.834 40.0733C123.762 39.9915 123.721 39.9049 123.712 39.8135L123.697 39.5754C123.534 39.7871 123.32 39.9506 123.055 40.0661C122.79 40.1815 122.528 40.2393 122.269 40.2393C122.018 40.2393 121.795 40.1887 121.597 40.0877C121.4 39.9819 121.246 39.8424 121.136 39.6692C121.025 39.4912 120.97 39.294 120.97 39.0775ZM123.423 39.3445C123.481 39.2771 123.526 39.2098 123.56 39.1424C123.594 39.0703 123.611 39.0101 123.611 38.962V38.493C123.462 38.4353 123.305 38.392 123.142 38.3631C122.978 38.3294 122.817 38.3126 122.658 38.3126C122.336 38.3126 122.074 38.3775 121.872 38.5074C121.674 38.6325 121.576 38.8057 121.576 39.027C121.576 39.1472 121.607 39.2651 121.67 39.3805C121.737 39.4912 121.833 39.5826 121.958 39.6548C122.088 39.7269 122.247 39.763 122.434 39.763C122.632 39.763 122.819 39.7245 122.997 39.6475C123.175 39.5658 123.317 39.4647 123.423 39.3445Z" fill="#1A0D3F"/>
<path d="M127.181 39.9795C127.128 40.0035 127.056 40.0348 126.965 40.0733C126.873 40.1118 126.767 40.1454 126.647 40.1743C126.527 40.2032 126.399 40.2176 126.265 40.2176C126.111 40.2176 125.969 40.1911 125.839 40.1382C125.709 40.0805 125.606 39.9939 125.529 39.8785C125.452 39.7582 125.413 39.6091 125.413 39.4311V36.8982H124.901V36.4003H125.413V35.1448H126.048V36.4003H126.893V36.8982H126.048V39.2362C126.058 39.3709 126.104 39.472 126.185 39.5393C126.267 39.6018 126.363 39.6331 126.474 39.6331C126.599 39.6331 126.715 39.6115 126.82 39.5682C126.926 39.5249 126.996 39.4936 127.03 39.4744L127.181 39.9795Z" fill="#1A0D3F"/>
<path d="M127.77 40.1671V36.4003H128.405V40.1671H127.77ZM127.77 35.6932V34.8994H128.405V35.6932H127.77Z" fill="#1A0D3F"/>
<path d="M131.1 40.2393C130.816 40.2393 130.556 40.1887 130.32 40.0877C130.089 39.9819 129.887 39.8376 129.714 39.6548C129.546 39.472 129.414 39.2627 129.317 39.027C129.226 38.7912 129.18 38.5411 129.18 38.2765C129.18 37.9205 129.26 37.5958 129.418 37.3023C129.577 37.0089 129.801 36.7756 130.089 36.6024C130.378 36.4244 130.712 36.3354 131.092 36.3354C131.463 36.3354 131.785 36.4196 132.059 36.588C132.338 36.7515 132.545 36.9728 132.68 37.2518L132.059 37.4467C131.963 37.2687 131.829 37.1316 131.655 37.0353C131.482 36.9343 131.29 36.8838 131.078 36.8838C130.847 36.8838 130.635 36.9439 130.443 37.0642C130.255 37.1845 130.106 37.3504 129.996 37.5621C129.885 37.769 129.83 38.0071 129.83 38.2765C129.83 38.5411 129.885 38.7816 129.996 38.9981C130.111 39.2098 130.263 39.3781 130.45 39.5032C130.643 39.6283 130.854 39.6908 131.085 39.6908C131.234 39.6908 131.376 39.6644 131.511 39.6115C131.651 39.5585 131.771 39.4888 131.872 39.4022C131.978 39.3108 132.05 39.2122 132.088 39.1063L132.709 39.294C132.632 39.4768 132.514 39.6403 132.355 39.7846C132.201 39.9242 132.016 40.0348 131.8 40.1166C131.588 40.1984 131.355 40.2393 131.1 40.2393Z" fill="#1A0D3F"/>
<path d="M138.831 35.621H137.063V40.1671H136.413V35.621H134.645V35.0437H138.831V35.621Z" fill="#1A0D3F"/>
<path d="M140.874 36.956C140.557 36.9608 140.275 37.0426 140.03 37.2013C139.789 37.3553 139.619 37.5693 139.518 37.8435V40.1671H138.883V36.4003H139.474V37.2735C139.604 37.0137 139.775 36.8044 139.987 36.6457C140.203 36.4821 140.429 36.3907 140.665 36.3715C140.713 36.3715 140.754 36.3715 140.788 36.3715C140.821 36.3715 140.85 36.3739 140.874 36.3787V36.956Z" fill="#1A0D3F"/>
<path d="M141.208 39.0775C141.208 38.8369 141.276 38.6301 141.41 38.4569C141.55 38.2789 141.74 38.1418 141.98 38.0456C142.221 37.9494 142.5 37.9013 142.817 37.9013C142.986 37.9013 143.164 37.9157 143.351 37.9446C143.539 37.9686 143.705 38.0071 143.849 38.06V37.7858C143.849 37.4972 143.763 37.2711 143.59 37.1075C143.416 36.9391 143.171 36.8549 142.853 36.8549C142.647 36.8549 142.447 36.8934 142.255 36.9704C142.067 37.0426 141.867 37.1484 141.656 37.2879L141.425 36.8405C141.67 36.6721 141.915 36.5471 142.161 36.4653C142.406 36.3787 142.661 36.3354 142.926 36.3354C143.407 36.3354 143.787 36.4701 144.066 36.7395C144.345 37.0041 144.484 37.3745 144.484 37.8508V39.4455C144.484 39.5225 144.499 39.5802 144.528 39.6187C144.561 39.6524 144.614 39.6716 144.686 39.6764V40.1671C144.624 40.1767 144.568 40.1839 144.52 40.1887C144.477 40.1936 144.441 40.196 144.412 40.196C144.263 40.196 144.15 40.1551 144.073 40.0733C144.001 39.9915 143.96 39.9049 143.95 39.8135L143.936 39.5754C143.772 39.7871 143.558 39.9506 143.294 40.0661C143.029 40.1815 142.767 40.2393 142.507 40.2393C142.257 40.2393 142.033 40.1887 141.836 40.0877C141.639 39.9819 141.485 39.8424 141.374 39.6692C141.264 39.4912 141.208 39.294 141.208 39.0775ZM143.662 39.3445C143.719 39.2771 143.765 39.2098 143.799 39.1424C143.832 39.0703 143.849 39.0101 143.849 38.962V38.493C143.7 38.4353 143.544 38.392 143.38 38.3631C143.217 38.3294 143.056 38.3126 142.897 38.3126C142.574 38.3126 142.312 38.3775 142.11 38.5074C141.913 38.6325 141.814 38.8057 141.814 39.027C141.814 39.1472 141.846 39.2651 141.908 39.3805C141.976 39.4912 142.072 39.5826 142.197 39.6548C142.327 39.7269 142.485 39.763 142.673 39.763C142.87 39.763 143.058 39.7245 143.236 39.6475C143.414 39.5658 143.556 39.4647 143.662 39.3445Z" fill="#1A0D3F"/>
<path d="M148.769 40.1671H148.134V38.06C148.134 37.6607 148.071 37.3697 147.946 37.1869C147.826 36.9993 147.64 36.9055 147.39 36.9055C147.217 36.9055 147.044 36.9488 146.871 37.0353C146.702 37.1219 146.551 37.2398 146.416 37.3889C146.286 37.5333 146.192 37.7016 146.135 37.8941V40.1671H145.5V36.4003H146.077V37.2085C146.178 37.0305 146.308 36.8766 146.467 36.7467C146.625 36.6168 146.806 36.5158 147.008 36.4436C147.21 36.3715 147.422 36.3354 147.643 36.3354C147.859 36.3354 148.04 36.3763 148.184 36.4581C148.333 36.535 148.449 36.6457 148.53 36.79C148.617 36.9295 148.677 37.0955 148.711 37.2879C148.749 37.4803 148.769 37.6896 148.769 37.9157V40.1671Z" fill="#1A0D3F"/>
<path d="M151.048 40.2393C150.735 40.2393 150.442 40.1887 150.167 40.0877C149.893 39.9819 149.657 39.8255 149.46 39.6187L149.705 39.1713C149.922 39.3733 150.138 39.5177 150.355 39.6042C150.571 39.6908 150.793 39.7341 151.019 39.7341C151.279 39.7341 151.49 39.686 151.654 39.5898C151.817 39.4888 151.899 39.3421 151.899 39.1496C151.899 39.0101 151.856 38.9067 151.769 38.8393C151.687 38.772 151.57 38.7167 151.416 38.6734C151.262 38.6253 151.079 38.5724 150.867 38.5146C150.607 38.4377 150.389 38.3559 150.211 38.2693C150.033 38.1827 149.898 38.0745 149.806 37.9446C149.715 37.8147 149.669 37.6511 149.669 37.4539C149.669 37.2133 149.732 37.0113 149.857 36.8477C149.982 36.6794 150.153 36.5519 150.369 36.4653C150.591 36.3787 150.841 36.3354 151.12 36.3354C151.399 36.3354 151.651 36.3787 151.877 36.4653C152.104 36.5519 152.298 36.6794 152.462 36.8477L152.173 37.2879C152.024 37.134 151.861 37.0209 151.683 36.9488C151.505 36.8718 151.305 36.8333 151.084 36.8333C150.954 36.8333 150.826 36.8501 150.701 36.8838C150.576 36.9127 150.473 36.968 150.391 37.0498C150.309 37.1268 150.268 37.2374 150.268 37.3817C150.268 37.502 150.3 37.5982 150.362 37.6704C150.429 37.7377 150.526 37.7954 150.651 37.8435C150.781 37.8916 150.937 37.9446 151.12 38.0023C151.404 38.0841 151.649 38.1659 151.856 38.2476C152.068 38.3294 152.231 38.4353 152.347 38.5651C152.462 38.695 152.52 38.8754 152.52 39.1063C152.52 39.4623 152.385 39.7413 152.116 39.9434C151.846 40.1406 151.49 40.2393 151.048 40.2393Z" fill="#1A0D3F"/>
<path d="M158.958 40.1671H158.323V38.06C158.323 37.6655 158.258 37.3745 158.129 37.1869C158.004 36.9993 157.816 36.9055 157.566 36.9055C157.311 36.9055 157.08 36.9993 156.873 37.1869C156.666 37.3697 156.519 37.6078 156.433 37.9013V40.1671H155.798V38.06C155.798 37.6607 155.735 37.3697 155.61 37.1869C155.485 36.9993 155.298 36.9055 155.047 36.9055C154.797 36.9055 154.566 36.9969 154.355 37.1797C154.148 37.3577 154.001 37.5958 153.914 37.8941V40.1671H153.279V36.4003H153.857V37.2085C154.011 36.9295 154.21 36.7154 154.456 36.5663C154.701 36.4124 154.978 36.3354 155.285 36.3354C155.598 36.3354 155.848 36.422 156.036 36.5952C156.224 36.7635 156.339 36.9824 156.382 37.2518C156.551 36.9536 156.755 36.7275 156.996 36.5735C157.236 36.4148 157.51 36.3354 157.818 36.3354C158.035 36.3354 158.215 36.3763 158.359 36.4581C158.509 36.535 158.626 36.6457 158.713 36.79C158.8 36.9295 158.862 37.0955 158.901 37.2879C158.939 37.4803 158.958 37.6896 158.958 37.9157V40.1671Z" fill="#1A0D3F"/>
<path d="M159.946 40.1671V36.4003H160.581V40.1671H159.946ZM159.946 35.6932V34.8994H160.581V35.6932H159.946Z" fill="#1A0D3F"/>
<path d="M162.9 40.2393C162.588 40.2393 162.294 40.1887 162.02 40.0877C161.746 39.9819 161.51 39.8255 161.313 39.6187L161.558 39.1713C161.775 39.3733 161.991 39.5177 162.208 39.6042C162.424 39.6908 162.646 39.7341 162.872 39.7341C163.131 39.7341 163.343 39.686 163.507 39.5898C163.67 39.4888 163.752 39.3421 163.752 39.1496C163.752 39.0101 163.709 38.9067 163.622 38.8393C163.54 38.772 163.422 38.7167 163.269 38.6734C163.115 38.6253 162.932 38.5724 162.72 38.5146C162.46 38.4377 162.241 38.3559 162.063 38.2693C161.885 38.1827 161.751 38.0745 161.659 37.9446C161.568 37.8147 161.522 37.6511 161.522 37.4539C161.522 37.2133 161.585 37.0113 161.71 36.8477C161.835 36.6794 162.006 36.5519 162.222 36.4653C162.443 36.3787 162.694 36.3354 162.973 36.3354C163.252 36.3354 163.504 36.3787 163.73 36.4653C163.956 36.5519 164.151 36.6794 164.315 36.8477L164.026 37.2879C163.877 37.134 163.713 37.0209 163.535 36.9488C163.357 36.8718 163.158 36.8333 162.937 36.8333C162.807 36.8333 162.679 36.8501 162.554 36.8838C162.429 36.9127 162.326 36.968 162.244 37.0498C162.162 37.1268 162.121 37.2374 162.121 37.3817C162.121 37.502 162.152 37.5982 162.215 37.6704C162.282 37.7377 162.379 37.7954 162.504 37.8435C162.633 37.8916 162.79 37.9446 162.973 38.0023C163.256 38.0841 163.502 38.1659 163.709 38.2476C163.92 38.3294 164.084 38.4353 164.199 38.5651C164.315 38.695 164.373 38.8754 164.373 39.1063C164.373 39.4623 164.238 39.7413 163.968 39.9434C163.699 40.1406 163.343 40.2393 162.9 40.2393Z" fill="#1A0D3F"/>
<path d="M166.424 40.2393C166.111 40.2393 165.818 40.1887 165.544 40.0877C165.269 39.9819 165.034 39.8255 164.836 39.6187L165.082 39.1713C165.298 39.3733 165.515 39.5177 165.731 39.6042C165.948 39.6908 166.169 39.7341 166.395 39.7341C166.655 39.7341 166.867 39.686 167.03 39.5898C167.194 39.4888 167.275 39.3421 167.275 39.1496C167.275 39.0101 167.232 38.9067 167.146 38.8393C167.064 38.772 166.946 38.7167 166.792 38.6734C166.638 38.6253 166.455 38.5724 166.244 38.5146C165.984 38.4377 165.765 38.3559 165.587 38.2693C165.409 38.1827 165.274 38.0745 165.183 37.9446C165.091 37.8147 165.046 37.6511 165.046 37.4539C165.046 37.2133 165.108 37.0113 165.233 36.8477C165.358 36.6794 165.529 36.5519 165.746 36.4653C165.967 36.3787 166.217 36.3354 166.496 36.3354C166.775 36.3354 167.028 36.3787 167.254 36.4653C167.48 36.5519 167.675 36.6794 167.838 36.8477L167.55 37.2879C167.4 37.134 167.237 37.0209 167.059 36.9488C166.881 36.8718 166.681 36.8333 166.46 36.8333C166.33 36.8333 166.203 36.8501 166.078 36.8838C165.952 36.9127 165.849 36.968 165.767 37.0498C165.685 37.1268 165.645 37.2374 165.645 37.3817C165.645 37.502 165.676 37.5982 165.738 37.6704C165.806 37.7377 165.902 37.7954 166.027 37.8435C166.157 37.8916 166.313 37.9446 166.496 38.0023C166.78 38.0841 167.025 38.1659 167.232 38.2476C167.444 38.3294 167.607 38.4353 167.723 38.5651C167.838 38.695 167.896 38.8754 167.896 39.1063C167.896 39.4623 167.761 39.7413 167.492 39.9434C167.222 40.1406 166.867 40.2393 166.424 40.2393Z" fill="#1A0D3F"/>
<path d="M168.656 40.1671V36.4003H169.291V40.1671H168.656ZM168.656 35.6932V34.8994H169.291V35.6932H168.656Z" fill="#1A0D3F"/>
<path d="M171.964 40.2393C171.68 40.2393 171.423 40.1887 171.192 40.0877C170.961 39.9819 170.761 39.84 170.593 39.662C170.425 39.4792 170.295 39.2699 170.203 39.0342C170.112 38.7985 170.066 38.5507 170.066 38.2909C170.066 38.0263 170.112 37.7762 170.203 37.5405C170.295 37.3047 170.425 37.0979 170.593 36.9199C170.761 36.7371 170.961 36.5952 171.192 36.4941C171.428 36.3883 171.685 36.3354 171.964 36.3354C172.248 36.3354 172.505 36.3883 172.736 36.4941C172.967 36.5952 173.167 36.7371 173.335 36.9199C173.508 37.0979 173.641 37.3047 173.732 37.5405C173.823 37.7762 173.869 38.0263 173.869 38.2909C173.869 38.5507 173.823 38.7985 173.732 39.0342C173.641 39.2699 173.511 39.4792 173.342 39.662C173.174 39.84 172.972 39.9819 172.736 40.0877C172.505 40.1887 172.248 40.2393 171.964 40.2393ZM170.716 38.2981C170.716 38.5579 170.771 38.7936 170.882 39.0053C170.997 39.217 171.149 39.3854 171.336 39.5104C171.524 39.6307 171.733 39.6908 171.964 39.6908C172.195 39.6908 172.404 39.6283 172.592 39.5032C172.784 39.3781 172.936 39.2098 173.046 38.9981C173.162 38.7816 173.22 38.5435 173.22 38.2837C173.22 38.0239 173.162 37.7882 173.046 37.5765C172.936 37.3649 172.784 37.1965 172.592 37.0714C172.404 36.9464 172.195 36.8838 171.964 36.8838C171.733 36.8838 171.524 36.9488 171.336 37.0786C171.149 37.2037 170.997 37.3721 170.882 37.5838C170.771 37.7954 170.716 38.0336 170.716 38.2981Z" fill="#1A0D3F"/>
<path d="M177.907 40.1671H177.272V38.06C177.272 37.6607 177.21 37.3697 177.085 37.1869C176.964 36.9993 176.779 36.9055 176.529 36.9055C176.356 36.9055 176.183 36.9488 176.01 37.0353C175.841 37.1219 175.69 37.2398 175.555 37.3889C175.425 37.5333 175.331 37.7016 175.273 37.8941V40.1671H174.638V36.4003H175.216V37.2085C175.317 37.0305 175.447 36.8766 175.605 36.7467C175.764 36.6168 175.945 36.5158 176.147 36.4436C176.349 36.3715 176.56 36.3354 176.782 36.3354C176.998 36.3354 177.179 36.3763 177.323 36.4581C177.472 36.535 177.587 36.6457 177.669 36.79C177.756 36.9295 177.816 37.0955 177.85 37.2879C177.888 37.4803 177.907 37.6896 177.907 37.9157V40.1671Z" fill="#1A0D3F"/>
<path d="M180.821 40.1671V35.0437H182.957C183.183 35.0437 183.39 35.0918 183.577 35.1881C183.765 35.2795 183.929 35.4045 184.068 35.5633C184.208 35.7172 184.316 35.8928 184.393 36.0901C184.47 36.2825 184.508 36.4797 184.508 36.6818C184.508 36.9608 184.446 37.2278 184.321 37.4827C184.196 37.7329 184.02 37.9373 183.794 38.0961C183.568 38.25 183.303 38.327 183 38.327H181.47V40.1671H180.821ZM181.47 37.7497H182.964C183.142 37.7497 183.296 37.7016 183.426 37.6054C183.561 37.5092 183.664 37.3793 183.736 37.2157C183.813 37.0522 183.852 36.8742 183.852 36.6818C183.852 36.4797 183.808 36.2993 183.722 36.1406C183.635 35.977 183.522 35.8495 183.383 35.7581C183.243 35.6667 183.089 35.621 182.921 35.621H181.47V37.7497Z" fill="#1A0D3F"/>
<path d="M184.878 39.0775C184.878 38.8369 184.945 38.6301 185.08 38.4569C185.219 38.2789 185.409 38.1418 185.65 38.0456C185.89 37.9494 186.169 37.9013 186.487 37.9013C186.655 37.9013 186.833 37.9157 187.021 37.9446C187.208 37.9686 187.374 38.0071 187.519 38.06V37.7858C187.519 37.4972 187.432 37.2711 187.259 37.1075C187.086 36.9391 186.84 36.8549 186.523 36.8549C186.316 36.8549 186.116 36.8934 185.924 36.9704C185.736 37.0426 185.537 37.1484 185.325 37.2879L185.094 36.8405C185.34 36.6721 185.585 36.5471 185.83 36.4653C186.076 36.3787 186.331 36.3354 186.595 36.3354C187.076 36.3354 187.456 36.4701 187.735 36.7395C188.014 37.0041 188.154 37.3745 188.154 37.8508V39.4455C188.154 39.5225 188.168 39.5802 188.197 39.6187C188.231 39.6524 188.284 39.6716 188.356 39.6764V40.1671C188.293 40.1767 188.238 40.1839 188.19 40.1887C188.147 40.1936 188.11 40.196 188.082 40.196C187.932 40.196 187.819 40.1551 187.742 40.0733C187.67 39.9915 187.629 39.9049 187.62 39.8135L187.605 39.5754C187.442 39.7871 187.228 39.9506 186.963 40.0661C186.699 40.1815 186.436 40.2393 186.177 40.2393C185.926 40.2393 185.703 40.1887 185.506 40.0877C185.308 39.9819 185.154 39.8424 185.044 39.6692C184.933 39.4912 184.878 39.294 184.878 39.0775ZM187.331 39.3445C187.389 39.2771 187.435 39.2098 187.468 39.1424C187.502 39.0703 187.519 39.0101 187.519 38.962V38.493C187.37 38.4353 187.213 38.392 187.05 38.3631C186.886 38.3294 186.725 38.3126 186.566 38.3126C186.244 38.3126 185.982 38.3775 185.78 38.5074C185.582 38.6325 185.484 38.8057 185.484 39.027C185.484 39.1472 185.515 39.2651 185.578 39.3805C185.645 39.4912 185.741 39.5826 185.866 39.6548C185.996 39.7269 186.155 39.763 186.343 39.763C186.54 39.763 186.727 39.7245 186.905 39.6475C187.083 39.5658 187.225 39.4647 187.331 39.3445Z" fill="#1A0D3F"/>
<path d="M191.161 36.956C190.843 36.9608 190.562 37.0426 190.316 37.2013C190.076 37.3553 189.905 37.5693 189.804 37.8435V40.1671H189.169V36.4003H189.761V37.2735C189.891 37.0137 190.062 36.8044 190.273 36.6457C190.49 36.4821 190.716 36.3907 190.951 36.3715C191 36.3715 191.04 36.3715 191.074 36.3715C191.108 36.3715 191.137 36.3739 191.161 36.3787V36.956Z" fill="#1A0D3F"/>
<path d="M193.739 39.9795C193.686 40.0035 193.614 40.0348 193.522 40.0733C193.431 40.1118 193.325 40.1454 193.205 40.1743C193.085 40.2032 192.957 40.2176 192.822 40.2176C192.669 40.2176 192.527 40.1911 192.397 40.1382C192.267 40.0805 192.163 39.9939 192.086 39.8785C192.009 39.7582 191.971 39.6091 191.971 39.4311V36.8982H191.459V36.4003H191.971V35.1448H192.606V36.4003H193.45V36.8982H192.606V39.2362C192.616 39.3709 192.661 39.472 192.743 39.5393C192.825 39.6018 192.921 39.6331 193.032 39.6331C193.157 39.6331 193.272 39.6115 193.378 39.5682C193.484 39.5249 193.554 39.4936 193.587 39.4744L193.739 39.9795Z" fill="#1A0D3F"/>
<path d="M195.619 40.2393C195.306 40.2393 195.013 40.1887 194.739 40.0877C194.465 39.9819 194.229 39.8255 194.032 39.6187L194.277 39.1713C194.493 39.3733 194.71 39.5177 194.926 39.6042C195.143 39.6908 195.364 39.7341 195.59 39.7341C195.85 39.7341 196.062 39.686 196.225 39.5898C196.389 39.4888 196.471 39.3421 196.471 39.1496C196.471 39.0101 196.427 38.9067 196.341 38.8393C196.259 38.772 196.141 38.7167 195.987 38.6734C195.833 38.6253 195.65 38.5724 195.439 38.5146C195.179 38.4377 194.96 38.3559 194.782 38.2693C194.604 38.1827 194.469 38.0745 194.378 37.9446C194.287 37.8147 194.241 37.6511 194.241 37.4539C194.241 37.2133 194.303 37.0113 194.428 36.8477C194.554 36.6794 194.724 36.5519 194.941 36.4653C195.162 36.3787 195.412 36.3354 195.691 36.3354C195.97 36.3354 196.223 36.3787 196.449 36.4653C196.675 36.5519 196.87 36.6794 197.033 36.8477L196.745 37.2879C196.596 37.134 196.432 37.0209 196.254 36.9488C196.076 36.8718 195.876 36.8333 195.655 36.8333C195.525 36.8333 195.398 36.8501 195.273 36.8838C195.148 36.9127 195.044 36.968 194.962 37.0498C194.881 37.1268 194.84 37.2374 194.84 37.3817C194.84 37.502 194.871 37.5982 194.934 37.6704C195.001 37.7377 195.097 37.7954 195.222 37.8435C195.352 37.8916 195.508 37.9446 195.691 38.0023C195.975 38.0841 196.22 38.1659 196.427 38.2476C196.639 38.3294 196.803 38.4353 196.918 38.5651C197.033 38.695 197.091 38.8754 197.091 39.1063C197.091 39.4623 196.956 39.7413 196.687 39.9434C196.418 40.1406 196.062 40.2393 195.619 40.2393Z" fill="#1A0D3F"/>
</g>
<defs>
<linearGradient id="paint0_linear_3436_17172" x1="0.935652" y1="7.81632" x2="66.342" y2="57.5241" gradientUnits="userSpaceOnUse">
<stop stop-color="#D4D4D4"/>
<stop offset="1"/>
</linearGradient>
<clipPath id="clip0_3436_17172">
<rect width="202" height="60" fill="white"/>
</clipPath>
<clipPath id="clip1_3436_17172">
<rect width="59.7333" height="60" fill="white"/>
</clipPath>
</defs>
</svg>
